<svg width="18" height="18" viewBox="0 0 18 18" fill="none" xmlns="http://www.w3.org/2000/svg">
<path d="M16.5 4.29002L13.0538 1.39877L12.09 2.54627L15.5363 5.43752L16.5 4.29002ZM5.91 2.54252L4.94625 1.39502L1.5 4.28627L2.46375 5.43377L5.91 2.54252ZM9.375 6.00002H8.25V10.5L11.8088 12.6413L12.375 11.715L9.375 9.93752V6.00002ZM8.99625 3.00002C5.265 3.00002 2.25 6.02252 2.25 9.75002C2.25 13.4775 5.265 16.5 8.99625 16.5C12.7275 16.5 15.75 13.4775 15.75 9.75002C15.75 6.02252 12.7275 3.00002 8.99625 3.00002ZM9 15C6.10125 15 3.75 12.6488 3.75 9.75002C3.75 6.85127 6.10125 4.50002 9 4.50002C11.8988 4.50002 14.25 6.85127 14.25 9.75002C14.25 12.6488 11.9025 15 9 15Z" fill="#9FA2B4"/>
</svg>
