<svg width="200" height="128" viewBox="0 0 200 128" fill="none" xmlns="http://www.w3.org/2000/svg">
<path d="M188 0H12C5.37259 0 0 5.37259 0 12V116C0 122.627 5.37259 128 12 128H188C194.627 128 200 122.627 200 116V12C200 5.37259 194.627 0 188 0Z" fill="white"/>
<g opacity="0.6">
<path opacity="0.6" d="M100.17 44.2493L85 51.1405L100.17 60.0924L115.335 51.1405L100.17 44.2493Z" fill="#010101"/>
</g>
<g opacity="0.45">
<path opacity="0.45" d="M85 51.1406L100.17 60.0926V26L85 51.1406Z" fill="#010101"/>
</g>
<g opacity="0.8">
<path opacity="0.8" d="M100.169 26V60.0926L115.333 51.1406L100.169 26Z" fill="#010101"/>
</g>
<g opacity="0.45">
<path opacity="0.45" d="M85 54.0117L100.17 75.3583V62.9637L85 54.0117Z" fill="#010101"/>
</g>
<g opacity="0.8">
<path opacity="0.8" d="M100.169 62.9637V75.3583L115.345 54.0117L100.169 62.9637Z" fill="#010101"/>
</g>
<path d="M44.2797 93.1797H39.9672V95.8906H45.0609V98H37.225V86.625H45.0766V88.7422H39.9672V91.1406H44.2797V93.1797ZM61.6641 88.7422H58.25V98H55.5078V88.7422H52.1562V86.625H61.6641V88.7422ZM78.7359 98H76.0094V93.25H71.9703V98H69.2281V86.625H71.9703V91.1406H76.0094V86.625H78.7359V98ZM93.9328 93.1797H89.6203V95.8906H94.7141V98H86.8781V86.625H94.7297V88.7422H89.6203V91.1406H93.9328V93.1797ZM106.458 93.9844H104.973V98H102.231V86.625H106.708C108.057 86.625 109.111 86.9245 109.872 87.5234C110.632 88.1224 111.012 88.9688 111.012 90.0625C111.012 90.8542 110.851 91.5104 110.528 92.0312C110.21 92.5521 109.71 92.974 109.028 93.2969L111.403 97.8828V98H108.466L106.458 93.9844ZM104.973 91.8672H106.708C107.229 91.8672 107.619 91.7318 107.88 91.4609C108.145 91.1849 108.278 90.8021 108.278 90.3125C108.278 89.8229 108.145 89.4401 107.88 89.1641C107.614 88.8828 107.223 88.7422 106.708 88.7422H104.973V91.8672ZM126.123 93.1797H121.811V95.8906H126.905V98H119.069V86.625H126.92V88.7422H121.811V91.1406H126.123V93.1797ZM143.344 86.625V94.0703C143.344 94.9141 143.164 95.6458 142.805 96.2656C142.445 96.8802 141.93 97.349 141.258 97.6719C140.586 97.9948 139.792 98.1562 138.875 98.1562C137.49 98.1562 136.398 97.7969 135.602 97.0781C134.805 96.3594 134.398 95.375 134.383 94.125V86.625H137.141V94.1797C137.172 95.4245 137.75 96.0469 138.875 96.0469C139.443 96.0469 139.872 95.8906 140.164 95.5781C140.456 95.2656 140.602 94.7578 140.602 94.0547V86.625H143.344ZM155.064 86.625L157.603 94.5391L160.134 86.625H163.744V98H160.994V95.3438L161.259 89.9062L158.509 98H156.697L153.939 89.8984L154.205 95.3438V98H151.463V86.625H155.064Z" fill="#3C3C3C"/>
</svg>
