<svg width="48" height="48" viewBox="0 0 48 48" fill="none" xmlns="http://www.w3.org/2000/svg">
<rect width="48" height="48" rx="9" fill="#FBED10"/>
<path d="M37.5 19C37.5 20.375 36.3955 21.5 35.0455 21.5C34.8245 21.5 34.6159 21.475 34.4195 21.4125L30.0505 25.85C30.1118 26.05 30.1364 26.275 30.1364 26.5C30.1364 27.875 29.0318 29 27.6818 29C26.3318 29 25.2273 27.875 25.2273 26.5C25.2273 26.275 25.2518 26.05 25.3132 25.85L22.1836 22.6625C21.9873 22.725 21.7664 22.75 21.5455 22.75C21.3245 22.75 21.1036 22.725 20.9073 22.6625L15.3232 28.3625C15.3845 28.5625 15.4091 28.775 15.4091 29C15.4091 30.375 14.3045 31.5 12.9545 31.5C11.6045 31.5 10.5 30.375 10.5 29C10.5 27.625 11.6045 26.5 12.9545 26.5C13.1755 26.5 13.3841 26.525 13.5805 26.5875L19.1768 20.9C19.1155 20.7 19.0909 20.475 19.0909 20.25C19.0909 18.875 20.1955 17.75 21.5455 17.75C22.8955 17.75 24 18.875 24 20.25C24 20.475 23.9755 20.7 23.9141 20.9L27.0436 24.0875C27.24 24.025 27.4609 24 27.6818 24C27.9027 24 28.1236 24.025 28.32 24.0875L32.6768 19.6375C32.6155 19.4375 32.5909 19.225 32.5909 19C32.5909 17.625 33.6955 16.5 35.0455 16.5C36.3955 16.5 37.5 17.625 37.5 19Z" fill="#222222"/>
</svg>
