<svg width="48" height="48" viewBox="0 0 48 48" fill="none" xmlns="http://www.w3.org/2000/svg">
<rect width="48" height="48" rx="9" fill="#FBED10"/>
<path d="M22.5 14.85C24.24 14.85 25.65 16.26 25.65 18C25.65 19.74 24.24 21.15 22.5 21.15C20.76 21.15 19.35 19.74 19.35 18C19.35 16.26 20.76 14.85 22.5 14.85ZM22.5 28.35C26.9625 28.35 31.65 30.5325 31.65 31.5V33.15H13.35V31.5C13.35 30.5325 18.0375 28.35 22.5 28.35ZM22.5 12C19.185 12 16.5 14.685 16.5 18C16.5 21.3075 19.185 24 22.5 24C25.815 24 28.5 21.3075 28.5 18C28.5 14.685 25.815 12 22.5 12ZM22.5 25.5C18.5025 25.5 10.5 27.5025 10.5 31.5V36H34.5V31.5C34.5 27.5025 26.4975 25.5 22.5 25.5Z" fill="#222222"/>
<path d="M39 18.375H35.625V15H33.375V18.375H30V20.625H33.375V24H35.625V20.625H39V18.375Z" fill="#222222"/>
</svg>
