<svg width="140" height="42" viewBox="0 0 140 42" fill="none" xmlns="http://www.w3.org/2000/svg">
<path d="M57.3298 36.9111C56.838 37.458 56.1184 37.8985 55.1711 38.2327C54.2238 38.5669 53.1854 38.734 52.0559 38.734C50.3192 38.734 48.9317 38.2023 47.8933 37.139C46.8549 36.0756 46.2993 34.596 46.2264 32.7002L46.2173 31.5517C46.2173 30.2453 46.448 29.106 46.9095 28.1337C47.371 27.1554 48.0299 26.405 48.8861 25.8824C49.7484 25.3538 50.7443 25.0895 51.8738 25.0895C53.5255 25.0895 54.8067 25.4693 55.7176 26.2288C56.6345 26.9823 57.1689 28.1094 57.3207 29.6103H54.242C54.1327 28.869 53.8959 28.3403 53.5315 28.0244C53.1672 27.7084 52.651 27.5504 51.9831 27.5504C51.1815 27.5504 50.5621 27.8907 50.1249 28.5712C49.6877 29.2518 49.466 30.224 49.46 31.4879V32.29C49.46 33.6146 49.6846 34.6112 50.134 35.2796C50.5894 35.9419 51.3029 36.2731 52.2745 36.2731C53.1065 36.2731 53.7259 36.0877 54.1327 35.7171V33.6572H51.9102V31.4606H57.3298V36.9111Z" fill="#FBED10"/>
<path d="M66.7209 36.0725H62.3396L61.5745 38.5517H58.1587L63.0227 25.2809H66.0286L70.9291 38.5517H67.4951L66.7209 36.0725ZM63.1047 33.6025H65.9557L64.5257 28.9996L63.1047 33.6025Z" fill="#FBED10"/>
<path d="M76.1028 25.2809L79.0631 34.514L82.0143 25.2809H86.2225V38.5517H83.0162V35.4528L83.3259 29.109L80.1197 38.5517H78.0065L74.7911 29.0999L75.1008 35.4528V38.5517H71.9037V25.2809H76.1028Z" fill="#FBED10"/>
<path d="M88.2628 38.5517V25.2809H93.0266C94.733 25.2809 96.0295 25.5938 96.916 26.2197C97.8087 26.8456 98.255 27.754 98.255 28.9449C98.255 29.6316 98.0971 30.2179 97.7814 30.7041C97.4656 31.1902 97.0011 31.5487 96.3877 31.7796C97.08 31.9619 97.6113 32.3021 97.9818 32.8004C98.3522 33.2987 98.5374 33.9063 98.5374 34.6233C98.5374 35.9237 98.1245 36.902 97.2986 37.5582C96.4788 38.2084 95.2613 38.5396 93.646 38.5517H88.2628ZM91.46 32.9098V36.0908H93.555C94.1318 36.0908 94.5751 35.9601 94.8848 35.6988C95.1945 35.4315 95.3494 35.0578 95.3494 34.5778C95.3494 33.4719 94.7998 32.9159 93.7007 32.9098H91.46ZM91.46 30.8134H93.1268C93.8252 30.8074 94.3231 30.6798 94.6207 30.4306C94.9182 30.1815 95.067 29.8139 95.067 29.3278C95.067 28.7687 94.9061 28.3677 94.5842 28.1246C94.2624 27.8755 93.7432 27.7509 93.0266 27.7509H91.46V30.8134Z" fill="#FBED10"/>
<path d="M103.502 36.0908H109.067V38.5517H100.304V25.2809H103.502V36.0908Z" fill="#FBED10"/>
<path d="M113.822 38.5517H110.634V25.2809H113.822V38.5517Z" fill="#FBED10"/>
<path d="M127.12 38.5517H123.941L119.241 30.2939V38.5517H116.044V25.2809H119.241L123.932 33.5387V25.2809H127.12V38.5517Z" fill="#FBED10"/>
<path d="M140 36.9111C139.508 37.458 138.789 37.8985 137.841 38.2327C136.894 38.5669 135.856 38.734 134.726 38.734C132.989 38.734 131.602 38.2023 130.563 37.139C129.525 36.0756 128.969 34.596 128.897 32.7002L128.887 31.5517C128.887 30.2453 129.118 29.106 129.58 28.1337C130.041 27.1554 130.7 26.405 131.556 25.8824C132.419 25.3538 133.414 25.0895 134.544 25.0895C136.196 25.0895 137.477 25.4693 138.388 26.2288C139.305 26.9823 139.839 28.1094 139.991 29.6103H136.912C136.803 28.869 136.566 28.3403 136.202 28.0244C135.837 27.7084 135.321 27.5504 134.653 27.5504C133.852 27.5504 133.232 27.8907 132.795 28.5712C132.358 29.2518 132.136 30.224 132.13 31.4879V32.29C132.13 33.6146 132.355 34.6112 132.804 35.2796C133.26 35.9419 133.973 36.2731 134.945 36.2731C135.777 36.2731 136.396 36.0877 136.803 35.7171V33.6572H134.58V31.4606H140V36.9111Z" fill="#FBED10"/>
<path d="M51.7554 3.1143H54.9434V12.2198C54.9434 13.0644 54.7461 13.8179 54.3514 14.4802C53.9627 15.1425 53.4162 15.656 52.7118 16.0205C52.0135 16.3851 51.2332 16.5674 50.3709 16.5674C48.9256 16.5674 47.8022 16.2028 47.0007 15.4737C46.1991 14.7445 45.7983 13.7115 45.7983 12.3747H49.0046C49.0046 12.9824 49.1078 13.4229 49.3143 13.6963C49.5268 13.9698 49.879 14.1065 50.3709 14.1065C50.8142 14.1065 51.1542 13.9424 51.3911 13.6143C51.634 13.2801 51.7554 12.8153 51.7554 12.2198V3.1143Z" fill="white"/>
<path d="M68.1965 10.0232C68.1965 11.3174 67.9567 12.4628 67.477 13.4594C66.9972 14.4559 66.3141 15.2245 65.4275 15.7653C64.547 16.3001 63.542 16.5674 62.4125 16.5674C61.2831 16.5674 60.2811 16.3092 59.4067 15.7927C58.5322 15.2701 57.8491 14.5258 57.3572 13.5596C56.8714 12.5935 56.6164 11.4845 56.5921 10.2328V9.48539C56.5921 8.18505 56.8289 7.03965 57.3026 6.04919C57.7823 5.05267 58.4655 4.284 59.352 3.7432C60.2447 3.20241 61.2588 2.93201 62.3943 2.93201C63.5177 2.93201 64.5197 3.19937 65.4002 3.73409C66.2807 4.26881 66.9638 5.0314 67.4496 6.02185C67.9415 7.00623 68.1905 8.13643 68.1965 9.41248V10.0232ZM64.9447 9.46716C64.9447 8.14859 64.7231 7.14902 64.2798 6.46847C63.8426 5.78183 63.2141 5.43852 62.3943 5.43852C60.7912 5.43852 59.9441 6.64164 59.853 9.04789L59.8439 10.0232C59.8439 11.3235 60.0595 12.3231 60.4906 13.0219C60.9218 13.7206 61.5624 14.07 62.4125 14.07C63.2202 14.07 63.8426 13.7267 64.2798 13.0401C64.717 12.3534 64.9387 11.366 64.9447 10.0778V9.46716Z" fill="white"/>
<path d="M73.2518 16.3851H70.0638V3.1143H73.2518V16.3851Z" fill="white"/>
<path d="M86.5505 16.3851H83.3716L78.6715 8.12732V16.3851H75.4744V3.1143H78.6715L83.3625 11.3721V3.1143H86.5505V16.3851Z" fill="white"/>
<path d="M23.0696 25.2915C23.0696 26.9725 22.3829 28.4865 21.2569 29.5994C20.1424 30.7013 18.5996 31.3916 16.9108 31.3916C15.2106 31.3916 13.6683 30.7013 12.5537 29.5994C11.4392 28.4861 10.741 26.9721 10.741 25.2915V17.0539V10.6085H26.7175V7.01282H8.91691H7.09277V8.80502V17.0536V25.2912C7.09277 27.9629 8.19625 30.3896 9.97501 32.1482C11.7538 33.9069 14.2086 34.9979 16.9105 34.9979C19.6127 34.9979 22.0557 33.9069 23.8349 32.1482C25.6136 30.3896 26.7171 27.9625 26.7171 25.2912V21.6845V18.0888H23.0692H16.9108V21.6845H23.0696V25.2915Z" fill="#FBED10"/>
<path d="M10.7412 0H31.9872H33.8113V1.79221V25.2914C33.8113 29.9001 31.9197 34.0745 28.8575 37.1021C25.7949 40.1301 21.5617 42 16.9118 42C12.2504 42 8.02825 40.1297 4.96604 37.1021C1.90268 34.0745 0 29.9001 0 25.2914H3.64789C3.64789 28.8981 5.13419 32.1821 7.54362 34.5529C9.94161 36.9238 13.2631 38.4046 16.911 38.4046C20.5589 38.4046 23.8693 36.9242 26.2787 34.5529C28.6771 32.1821 30.163 28.8981 30.163 25.2914V3.59572H10.7412V0Z" fill="#FBED10"/>
</svg>