<svg width="200" height="128" viewBox="0 0 200 128" fill="none" xmlns="http://www.w3.org/2000/svg">
<path d="M188 0H12C5.37258 0 0 5.37258 0 12V116C0 122.627 5.37258 128 12 128H188C194.627 128 200 122.627 200 116V12C200 5.37258 194.627 0 188 0Z" fill="white"/>
<path d="M62.9713 94.6549C62.9713 95.0528 62.9284 95.4233 62.8426 95.7666C62.7568 96.1098 62.6047 96.4102 62.3862 96.6676C62.1756 96.9251 61.8869 97.1279 61.5203 97.2761C61.1614 97.4244 60.705 97.4985 60.1511 97.4985C59.6362 97.4985 59.1877 97.4283 58.8054 97.2878C58.4309 97.1396 58.1423 96.9836 57.9395 96.8198L58.466 95.6613C58.6611 95.7939 58.899 95.9226 59.1799 96.0474C59.4685 96.1645 59.7611 96.223 60.0575 96.223C60.5568 96.223 60.9196 96.0981 61.1458 95.8485C61.372 95.5989 61.4852 95.1698 61.4852 94.5613V89.2135H62.9713V94.6549Z" fill="black"/>
<path d="M70.9719 97.1357C70.6989 97.2059 70.3439 97.2761 69.9071 97.3464C69.4702 97.4244 68.9904 97.4634 68.4677 97.4634C67.9762 97.4634 67.5627 97.3932 67.2273 97.2527C66.8996 97.1123 66.6344 96.9173 66.4316 96.6676C66.2365 96.418 66.0961 96.1215 66.0103 95.7783C65.9245 95.4272 65.8816 95.045 65.8816 94.6315V91.2028H67.2975V94.4092C67.2975 95.0645 67.3911 95.5325 67.5784 95.8134C67.7734 96.0942 68.1088 96.2347 68.5847 96.2347C68.7564 96.2347 68.9358 96.2269 69.123 96.2113C69.3181 96.1957 69.4624 96.1762 69.556 96.1528V91.2028H70.9719V97.1357Z" fill="black"/>
<path d="M75.4773 96.3049C75.8518 96.3049 76.1248 96.262 76.2964 96.1762C76.4681 96.0825 76.5539 95.9265 76.5539 95.7081C76.5539 95.5052 76.4603 95.3375 76.273 95.2049C76.0936 95.0723 75.7933 94.9279 75.372 94.7719C75.1145 94.6783 74.8766 94.5808 74.6582 94.4794C74.4475 94.3701 74.2642 94.2453 74.1082 94.1049C73.9521 93.9645 73.8273 93.7967 73.7337 93.6017C73.6479 93.3989 73.605 93.1531 73.605 92.8645C73.605 92.3028 73.8117 91.862 74.2252 91.5422C74.6387 91.2145 75.2004 91.0507 75.9103 91.0507C76.2691 91.0507 76.6124 91.0858 76.9401 91.156C77.2677 91.2184 77.5135 91.2808 77.6773 91.3432L77.4198 92.49C77.2638 92.4198 77.0649 92.3574 76.823 92.3028C76.5812 92.2404 76.3003 92.2092 75.9805 92.2092C75.6918 92.2092 75.4578 92.2599 75.2784 92.3613C75.0989 92.4549 75.0092 92.6031 75.0092 92.806C75.0092 92.9074 75.0248 92.9971 75.056 93.0751C75.095 93.1531 75.1574 93.2272 75.2433 93.2975C75.3291 93.3599 75.4422 93.4262 75.5826 93.4964C75.723 93.5588 75.8947 93.6251 76.0975 93.6953C76.433 93.8201 76.7177 93.945 76.9518 94.0698C77.1858 94.1868 77.3769 94.3233 77.5252 94.4794C77.6812 94.6276 77.7943 94.7992 77.8645 94.9943C77.9347 95.1893 77.9698 95.4233 77.9698 95.6964C77.9698 96.2815 77.7514 96.7262 77.3145 97.0304C76.8854 97.3269 76.2691 97.4751 75.4656 97.4751C74.9273 97.4751 74.4943 97.4283 74.1667 97.3347C73.839 97.2488 73.6089 97.1786 73.4763 97.124L73.722 95.9421C73.9326 96.0279 74.1823 96.1098 74.4709 96.1879C74.7674 96.2659 75.1028 96.3049 75.4773 96.3049Z" fill="black"/>
<path d="M80.3925 89.5879L81.8085 89.3539V91.2028H83.985V92.3847H81.8085V94.8772C81.8085 95.3687 81.8865 95.7198 82.0425 95.9304C82.1985 96.141 82.4638 96.2464 82.8382 96.2464C83.0957 96.2464 83.3219 96.2191 83.517 96.1645C83.7198 96.1098 83.8797 96.0591 83.9967 96.0123L84.2308 97.1357C84.067 97.2059 83.8524 97.2761 83.5872 97.3464C83.3219 97.4244 83.0099 97.4634 82.651 97.4634C82.2141 97.4634 81.8475 97.4049 81.551 97.2878C81.2624 97.1708 81.0322 97.0031 80.8606 96.7847C80.689 96.5584 80.568 96.2893 80.4978 95.9772C80.4276 95.6574 80.3925 95.2946 80.3925 94.8889V89.5879Z" fill="black"/>
<path d="M94.486 94.2921C94.486 93.6602 94.3417 93.1687 94.0531 92.8177C93.7722 92.4666 93.3158 92.2911 92.6839 92.2911C92.5513 92.2911 92.4109 92.2989 92.2627 92.3145C92.1222 92.3223 91.9818 92.3457 91.8414 92.3847V95.8836C91.9662 95.9694 92.13 96.0513 92.3329 96.1293C92.5435 96.1996 92.7659 96.2347 92.9999 96.2347C93.5148 96.2347 93.8892 96.0591 94.1233 95.7081C94.3651 95.357 94.486 94.885 94.486 94.2921ZM95.9371 94.2687C95.9371 94.7368 95.8747 95.1659 95.7499 95.5559C95.6328 95.946 95.4612 96.2815 95.235 96.5623C95.0087 96.8432 94.724 97.0616 94.3807 97.2176C94.0453 97.3737 93.663 97.4517 93.2339 97.4517C92.9453 97.4517 92.68 97.4166 92.4382 97.3464C92.1964 97.2761 91.9974 97.1981 91.8414 97.1123V99.4878H90.4254V91.4017C90.7141 91.3237 91.0691 91.2496 91.4903 91.1794C91.9116 91.1092 92.3563 91.0741 92.8244 91.0741C93.308 91.0741 93.741 91.1482 94.1233 91.2964C94.5055 91.4446 94.8293 91.6592 95.0946 91.94C95.3676 92.2131 95.5743 92.5485 95.7148 92.9464C95.863 93.3365 95.9371 93.7772 95.9371 94.2687Z" fill="black"/>
<path d="M98.2272 94.2921C98.2272 93.7538 98.3052 93.2819 98.4613 92.8762C98.6251 92.4705 98.8396 92.1351 99.1049 91.8698C99.3701 91.5968 99.6744 91.3939 100.018 91.2613C100.361 91.1209 100.712 91.0507 101.071 91.0507C101.913 91.0507 102.569 91.312 103.037 91.8347C103.513 92.3574 103.751 93.1375 103.751 94.1751C103.751 94.2531 103.747 94.3428 103.739 94.4443C103.739 94.5379 103.735 94.6237 103.727 94.7017H99.69C99.729 95.1932 99.9006 95.5755 100.205 95.8485C100.517 96.1137 100.965 96.2464 101.551 96.2464C101.894 96.2464 102.206 96.2152 102.487 96.1528C102.775 96.0903 103.002 96.024 103.165 95.9538L103.353 97.1123C103.275 97.1513 103.165 97.1942 103.025 97.241C102.892 97.28 102.736 97.3152 102.557 97.3464C102.385 97.3854 102.198 97.4166 101.995 97.44C101.792 97.4634 101.586 97.4751 101.375 97.4751C100.837 97.4751 100.369 97.3971 99.9708 97.241C99.5729 97.0772 99.2453 96.8549 98.9878 96.574C98.7304 96.2854 98.5393 95.9499 98.4144 95.5677C98.2896 95.1776 98.2272 94.7524 98.2272 94.2921ZM102.335 93.6602C102.335 93.4652 102.307 93.2819 102.253 93.1102C102.198 92.9308 102.116 92.7787 102.007 92.6538C101.906 92.5212 101.777 92.4198 101.621 92.3496C101.473 92.2716 101.293 92.2326 101.083 92.2326C100.864 92.2326 100.673 92.2755 100.509 92.3613C100.345 92.4393 100.205 92.5446 100.088 92.6773C99.9786 92.8099 99.8928 92.962 99.8304 93.1336C99.768 93.3053 99.7251 93.4808 99.7017 93.6602H102.335Z" fill="black"/>
<path d="M109.909 92.4783C109.792 92.4393 109.628 92.4003 109.418 92.3613C109.215 92.3145 108.977 92.2911 108.704 92.2911C108.548 92.2911 108.38 92.3067 108.201 92.3379C108.029 92.3691 107.908 92.3964 107.838 92.4198V97.323H106.422V91.4953C106.695 91.3939 107.034 91.3003 107.44 91.2145C107.854 91.1209 108.31 91.0741 108.809 91.0741C108.903 91.0741 109.012 91.0819 109.137 91.0975C109.262 91.1053 109.387 91.1209 109.511 91.1443C109.636 91.1599 109.757 91.1833 109.874 91.2145C109.991 91.2379 110.085 91.2613 110.155 91.2847L109.909 92.4783Z" fill="black"/>
<path d="M114.804 88.2422C115.132 88.2422 115.421 88.2734 115.67 88.3358C115.92 88.3904 116.107 88.4411 116.232 88.4879L115.963 89.6581C115.83 89.5957 115.674 89.545 115.495 89.506C115.323 89.467 115.136 89.4475 114.933 89.4475C114.707 89.4475 114.516 89.4826 114.36 89.5528C114.204 89.6152 114.079 89.7049 113.985 89.822C113.892 89.939 113.825 90.0833 113.786 90.2549C113.747 90.4188 113.728 90.5982 113.728 90.7932V91.2028H115.951V92.3847H113.728V97.323H112.312V90.7698C112.312 89.9819 112.519 89.3656 112.932 88.9209C113.346 88.4684 113.97 88.2422 114.804 88.2422Z" fill="black"/>
<path d="M117.714 94.2921C117.714 93.7538 117.792 93.2819 117.948 92.8762C118.112 92.4705 118.326 92.1351 118.591 91.8698C118.857 91.5968 119.161 91.3939 119.504 91.2613C119.847 91.1209 120.199 91.0507 120.557 91.0507C121.4 91.0507 122.055 91.312 122.523 91.8347C122.999 92.3574 123.237 93.1375 123.237 94.1751C123.237 94.2531 123.233 94.3428 123.225 94.4443C123.225 94.5379 123.222 94.6237 123.214 94.7017H119.177C119.216 95.1932 119.387 95.5755 119.691 95.8485C120.004 96.1137 120.452 96.2464 121.037 96.2464C121.38 96.2464 121.693 96.2152 121.973 96.1528C122.262 96.0903 122.488 96.024 122.652 95.9538L122.839 97.1123C122.761 97.1513 122.652 97.1942 122.512 97.241C122.379 97.28 122.223 97.3152 122.044 97.3464C121.872 97.3854 121.685 97.4166 121.482 97.44C121.279 97.4634 121.072 97.4751 120.862 97.4751C120.323 97.4751 119.855 97.3971 119.457 97.241C119.06 97.0772 118.732 96.8549 118.474 96.574C118.217 96.2854 118.026 95.9499 117.901 95.5677C117.776 95.1776 117.714 94.7524 117.714 94.2921ZM121.821 93.6602C121.821 93.4652 121.794 93.2819 121.739 93.1102C121.685 92.9308 121.603 92.7787 121.494 92.6538C121.392 92.5212 121.263 92.4198 121.107 92.3496C120.959 92.2716 120.78 92.2326 120.569 92.2326C120.351 92.2326 120.16 92.2755 119.996 92.3613C119.832 92.4393 119.691 92.5446 119.574 92.6773C119.465 92.8099 119.379 92.962 119.317 93.1336C119.255 93.3053 119.212 93.4808 119.188 93.6602H121.821Z" fill="black"/>
<path d="M125.569 94.2687C125.569 93.8162 125.639 93.395 125.78 93.0049C125.92 92.607 126.119 92.2638 126.377 91.9751C126.642 91.6865 126.962 91.4602 127.336 91.2964C127.711 91.1326 128.132 91.0507 128.6 91.0507C129.177 91.0507 129.723 91.156 130.238 91.3666L129.934 92.5251C129.77 92.4549 129.583 92.3964 129.372 92.3496C129.17 92.3028 128.951 92.2794 128.717 92.2794C128.163 92.2794 127.742 92.4549 127.453 92.806C127.165 93.1492 127.02 93.6368 127.02 94.2687C127.02 94.8772 127.157 95.3609 127.43 95.7198C127.703 96.0708 128.163 96.2464 128.811 96.2464C129.053 96.2464 129.29 96.223 129.525 96.1762C129.759 96.1293 129.961 96.0708 130.133 96.0006L130.332 97.1708C130.176 97.2488 129.938 97.3191 129.618 97.3815C129.306 97.4439 128.982 97.4751 128.647 97.4751C128.124 97.4751 127.668 97.3971 127.278 97.241C126.895 97.0772 126.576 96.8549 126.318 96.574C126.069 96.2854 125.881 95.946 125.756 95.5559C125.632 95.1581 125.569 94.729 125.569 94.2687Z" fill="black"/>
<path d="M132.528 89.5879L133.944 89.3539V91.2028H136.121V92.3847H133.944V94.8772C133.944 95.3687 134.022 95.7198 134.178 95.9304C134.334 96.141 134.599 96.2464 134.974 96.2464C135.231 96.2464 135.458 96.2191 135.653 96.1645C135.855 96.1098 136.015 96.0591 136.132 96.0123L136.366 97.1357C136.203 97.2059 135.988 97.2761 135.723 97.3464C135.458 97.4244 135.146 97.4634 134.787 97.4634C134.35 97.4634 133.983 97.4049 133.687 97.2878C133.398 97.1708 133.168 97.0031 132.996 96.7847C132.825 96.5584 132.704 96.2893 132.634 95.9772C132.563 95.6574 132.528 95.2946 132.528 94.8889V89.5879Z" fill="black"/>
<path d="M58.1284 84.0554C59.63 83.9017 60.5936 83.5647 61.0192 83.0445C61.4449 82.5124 61.6577 81.2887 61.6577 79.3733V64.6178C61.6577 63.3054 61.4508 62.4542 61.037 62.064C60.6231 61.662 59.6832 61.4255 58.2171 61.3546V60.6807H65.3998L73.8061 79.0009L81.8401 60.6807H89.0759V61.3546C87.7281 61.4492 86.8591 61.6975 86.4689 62.0995C86.0787 62.4896 85.8836 63.3291 85.8836 64.6178V80.7744C85.8836 82.0986 86.0787 82.9499 86.4689 83.3282C86.8591 83.6947 87.7281 83.9371 89.0759 84.0554V84.7115H78.8961V84.0554C80.3622 83.9371 81.2726 83.677 81.6273 83.275C81.9938 82.8612 82.177 81.8858 82.177 80.3487V64.0326L72.8839 84.7115H72.3873L63.2538 64.8839V79.3733C63.2538 81.3596 63.5435 82.6543 64.1228 83.2573C64.5012 83.6475 65.3466 83.9135 66.6589 84.0554V84.7115H58.1284V84.0554Z" fill="#F01010"/>
<path d="M90.9558 76.4825C90.9558 74.1297 91.7007 72.1434 93.1905 70.5236C94.692 68.892 96.6192 68.0761 98.9721 68.0761C101.313 68.0761 103.252 68.8447 104.789 70.3817C106.326 71.9187 107.095 73.9642 107.095 76.518C107.095 78.8708 106.35 80.9163 104.86 82.6543C103.37 84.3923 101.443 85.2613 99.0785 85.2613C96.8084 85.2613 94.8871 84.4278 93.3146 82.7607C91.7421 81.0936 90.9558 79.0009 90.9558 76.4825ZM98.4755 69.1402C97.5414 69.1402 96.7315 69.4477 96.0458 70.0625C94.8635 71.1384 94.2723 72.9946 94.2723 75.6312C94.2723 77.7358 94.7452 79.6985 95.6911 81.5193C96.6488 83.34 97.973 84.2504 99.6637 84.2504C100.988 84.2504 102.005 83.6415 102.714 82.4237C103.435 81.2059 103.796 79.6098 103.796 77.6353C103.796 75.5899 103.341 73.6627 102.43 71.8537C101.52 70.0447 100.202 69.1402 98.4755 69.1402Z" fill="#F01010"/>
<path d="M108.85 84.215C109.69 84.1086 110.275 83.9017 110.606 83.5942C110.949 83.275 111.121 82.5715 111.121 81.4838V72.4922C111.121 71.7355 111.05 71.2034 110.908 70.896C110.683 70.4467 110.222 70.2221 109.524 70.2221C109.418 70.2221 109.306 70.228 109.187 70.2398C109.081 70.2516 108.945 70.2694 108.779 70.293V69.6723C109.264 69.5304 110.411 69.1639 112.22 68.5727L113.887 68.0229C113.97 68.0229 114.017 68.0525 114.029 68.1116C114.053 68.1707 114.065 68.2535 114.065 68.3599V70.9669C115.152 69.9501 116.004 69.2526 116.618 68.8742C117.541 68.2949 118.498 68.0052 119.491 68.0052C120.295 68.0052 121.028 68.2358 121.691 68.6969C122.967 69.5954 123.606 71.1975 123.606 73.503V81.7853C123.606 82.6366 123.777 83.2514 124.12 83.6297C124.463 84.0081 125.037 84.2031 125.841 84.215V84.7115H118.268V84.215C119.131 84.0967 119.734 83.8603 120.077 83.5056C120.42 83.139 120.591 82.3528 120.591 81.1468V73.574C120.591 72.5572 120.402 71.7177 120.023 71.0556C119.645 70.3817 118.948 70.0447 117.931 70.0447C117.233 70.0447 116.524 70.2812 115.803 70.7541C115.401 71.0261 114.88 71.4753 114.242 72.102V82.0336C114.242 82.8848 114.431 83.4583 114.809 83.7539C115.188 84.0376 115.785 84.1913 116.601 84.215V84.7115H108.85V84.215Z" fill="#F01010"/>
<path d="M134.673 68.0761C136.34 68.0761 137.8 68.6555 139.053 69.8142C140.306 70.961 140.933 72.5927 140.933 74.709H129.671C129.79 77.452 130.41 79.4502 131.533 80.7034C132.657 81.9567 133.987 82.5834 135.524 82.5834C136.765 82.5834 137.812 82.2582 138.663 81.6079C139.514 80.9576 140.3 80.0354 141.022 78.8413L141.642 79.0541C141.158 80.5557 140.247 81.9449 138.911 83.2218C137.587 84.4987 135.961 85.1372 134.034 85.1372C131.811 85.1372 130.091 84.2977 128.873 82.6188C127.667 80.9399 127.064 79.0068 127.064 76.8195C127.064 74.443 127.768 72.3917 129.175 70.6655C130.582 68.9392 132.414 68.0761 134.673 68.0761ZM133.644 69.3708C132.296 69.3708 131.267 69.9679 130.558 71.162C130.18 71.8005 129.908 72.6045 129.742 73.574H134.994C136.185 73.574 137.187 72.5095 136.764 71.3959C136.699 71.224 136.628 71.0692 136.552 70.9315C135.973 69.891 135.004 69.3708 133.644 69.3708Z" fill="#F01010"/>
<path d="M142.99 68.4131H150.474V68.9629C149.883 68.9747 149.446 69.0279 149.162 69.1225C148.618 69.2762 148.346 69.5777 148.346 70.027C148.346 70.1925 148.376 70.364 148.435 70.5413C148.494 70.7068 148.6 70.961 148.754 71.3039L152.904 80.5084L156.238 71.233C156.274 71.1384 156.327 70.9256 156.398 70.5945C156.481 70.2635 156.522 70.0388 156.522 69.9206C156.522 69.6132 156.416 69.3885 156.203 69.2467C155.99 69.1048 155.718 69.022 155.387 68.9984L154.837 68.9629V68.4131H159.714V68.9629C159.23 69.022 158.863 69.1875 158.615 69.4595C158.378 69.7314 158.171 70.1098 157.994 70.5945L152.408 85.3855C151.438 87.9393 150.51 89.7897 149.623 90.9365C148.736 92.0834 147.613 92.6568 146.253 92.6568C145.591 92.6568 144.971 92.4913 144.391 92.1602C143.812 91.8292 143.522 91.303 143.522 90.5818C143.522 90.1089 143.694 89.7187 144.037 89.4113C144.391 89.1157 144.835 88.9679 145.367 88.9679C145.674 88.9679 146.129 89.0803 146.732 89.3049C147.347 89.5296 147.785 89.6419 148.045 89.6419C148.707 89.6419 149.404 88.8734 150.137 87.3363C150.87 85.7993 151.237 84.7707 151.237 84.2504C151.237 84.144 151.219 84.014 151.184 83.8603C151.148 83.7066 151.107 83.5706 151.06 83.4524L145.384 71.1798C144.982 70.3048 144.628 69.7314 144.32 69.4595C144.025 69.1757 143.581 68.9925 142.99 68.9097V68.4131Z" fill="#F01010"/>
<path d="M50.1029 36.6703C51.77 36.6703 53.2302 37.2496 54.4835 38.4083C55.7367 39.5552 56.3634 41.1868 56.3634 43.3032H45.1017C45.2199 46.0462 45.8406 48.0443 46.9638 49.2976C48.0871 50.5509 49.4172 51.1775 50.9542 51.1775C52.1957 51.1775 53.242 50.8524 54.0933 50.2021C54.9446 49.5518 55.7308 48.6296 56.452 47.4354L57.0728 47.6482C56.588 49.1498 55.6776 50.539 54.3416 51.816C53.0174 53.0929 51.3917 53.7313 49.4645 53.7313C47.2417 53.7313 45.5214 52.8919 44.3036 51.213C43.0976 49.5341 42.4946 47.6009 42.4946 45.4136C42.4946 43.0371 43.1981 40.9858 44.6051 39.2596C46.0121 37.5334 47.8447 36.6703 50.1029 36.6703ZM49.0743 37.9649C47.7264 37.9649 46.6978 38.562 45.9884 39.7562C45.6101 40.3946 45.3381 41.1986 45.1726 42.1681H50.4247C51.6158 42.1681 52.6171 41.1037 52.1945 39.99C52.1293 39.8182 52.0587 39.6634 51.9828 39.5256C51.4035 38.4852 50.434 37.9649 49.0743 37.9649Z" fill="#F01010"/>
<path d="M58.0837 52.7204C59.1714 52.6259 59.8926 52.4367 60.2473 52.1529C60.602 51.8573 60.7794 51.2366 60.7794 50.2907V42.2923C60.7794 41.1218 60.6671 40.2882 60.4424 39.7916C60.2296 39.2832 59.8335 39.029 59.2542 39.029C59.1359 39.029 58.9763 39.0468 58.7753 39.0822C58.5862 39.1059 58.3852 39.1414 58.1723 39.1887V38.6034C58.8463 38.3669 59.5379 38.1246 60.2473 37.8763C60.9567 37.628 61.4474 37.4506 61.7193 37.3442C62.3105 37.1196 62.9194 36.8654 63.546 36.5816C63.6288 36.5816 63.6761 36.6112 63.6879 36.6703C63.7116 36.7294 63.7234 36.8536 63.7234 37.0427V39.9513C64.4801 38.899 65.2072 38.0773 65.9048 37.4861C66.6142 36.8949 67.3472 36.5994 68.1039 36.5994C68.7069 36.5994 69.1976 36.7826 69.5759 37.1491C69.9543 37.5038 70.1434 37.9531 70.1434 38.497C70.1434 38.9818 69.9957 39.3897 69.7001 39.7207C69.4163 40.0518 69.0557 40.2173 68.6182 40.2173C68.169 40.2173 67.7138 40.0104 67.2526 39.5966C66.8034 39.1827 66.4487 38.9758 66.1886 38.9758C65.7747 38.9758 65.2663 39.3128 64.6633 39.9867C64.0604 40.6488 63.7589 41.3346 63.7589 42.044V50.0425C63.7589 51.0593 63.9953 51.7687 64.4683 52.1707C64.9412 52.5608 65.7274 52.7441 66.827 52.7204V53.3057H58.0837V52.7204Z" fill="#F01010"/>
<path d="M70.7287 52.8091C71.982 52.75 72.8037 52.5194 73.1939 52.1175C73.5959 51.7036 73.7969 50.8405 73.7969 49.5281V38.1423H70.7642V36.9541H73.7969C73.7969 35.086 74.0511 33.5076 74.5595 32.2188C75.529 29.7477 77.3084 28.5122 79.8977 28.5122C80.9381 28.5122 81.8663 28.7191 82.6821 29.1329C83.5097 29.5467 83.9235 30.1024 83.9235 30.8C83.9235 31.1902 83.7816 31.539 83.4979 31.8464C83.2141 32.1538 82.8712 32.3075 82.4693 32.3075C82.1264 32.3075 81.8308 32.207 81.5825 32.006C81.3342 31.7932 81.0386 31.4267 80.6958 30.9064L80.3943 30.4453C80.2287 30.197 80.0337 29.9901 79.809 29.8246C79.5844 29.6472 79.271 29.5586 78.8691 29.5586C77.9705 29.5586 77.3616 30.0019 77.0424 30.8887C76.865 31.3616 76.7763 31.9823 76.7763 32.7509V36.9541H81.2278V38.1423H76.8118V49.5281C76.8118 50.8642 76.9892 51.7214 77.3438 52.0997C77.7104 52.4662 78.6562 52.7027 80.1814 52.8091V53.3057H70.7287V52.8091Z" fill="#F01010"/>
<path d="M90.4323 36.6703C92.0993 36.6703 93.5595 37.2496 94.8128 38.4083C96.0661 39.5552 96.6927 41.1868 96.6927 43.3032H85.431C85.5492 46.0462 86.1699 48.0443 87.2932 49.2976C88.4164 50.5509 89.7465 51.1775 91.2835 51.1775C92.525 51.1775 93.5713 50.8524 94.4226 50.2021C95.2739 49.5518 96.0602 48.6296 96.7814 47.4354L97.4021 47.6482C96.9173 49.1498 96.0069 50.539 94.6709 51.816C93.3467 53.0929 91.721 53.7313 89.7938 53.7313C87.571 53.7313 85.8507 52.8919 84.6329 51.213C83.4269 49.5341 82.824 47.6009 82.824 45.4136C82.824 43.0371 83.5274 40.9858 84.9344 39.2596C86.3414 37.5334 88.174 36.6703 90.4323 36.6703ZM89.4036 37.9649C88.0558 37.9649 87.0271 38.562 86.3177 39.7562C85.9394 40.3946 85.6675 41.1986 85.5019 42.1681H90.754C91.9452 42.1681 92.9464 41.1037 92.5238 39.99C92.4586 39.8182 92.3881 39.6634 92.3122 39.5256C91.7328 38.4852 90.7633 37.9649 89.4036 37.9649Z" fill="#F01010"/>
<path d="M107.28 36.5816C108.758 36.5816 110.029 36.9659 111.093 37.7344C112.169 38.4911 112.707 39.3246 112.707 40.235C112.707 40.6252 112.571 40.9917 112.299 41.3346C112.028 41.6656 111.608 41.8312 111.04 41.8312C110.626 41.8312 110.26 41.6893 109.941 41.4055C109.633 41.1218 109.409 40.708 109.267 40.1641L109.054 39.3128C108.9 38.6862 108.634 38.2428 108.256 37.9827C107.866 37.7344 107.351 37.6102 106.713 37.6102C105.365 37.6102 104.224 38.2014 103.29 39.3837C102.368 40.5543 101.907 42.1149 101.907 44.0658C101.907 45.8511 102.415 47.4532 103.432 48.872C104.461 50.2907 105.844 51.0001 107.582 51.0001C108.812 51.0001 109.905 50.5982 110.863 49.7942C111.407 49.3331 112.022 48.6 112.707 47.595L113.204 47.8965C112.53 49.3153 111.821 50.4385 111.076 51.2662C109.645 52.8505 107.99 53.6427 106.11 53.6427C104.266 53.6427 102.634 52.9155 101.215 51.4613C99.7963 50.007 99.0869 48.0325 99.0869 45.5378C99.0869 43.0904 99.8614 40.9858 101.41 39.2241C102.959 37.4625 104.916 36.5816 107.28 36.5816Z" fill="#F01010"/>
<path d="M123.632 36.9541V38.231H120.014L119.979 48.4463C119.979 49.3449 120.056 50.0247 120.209 50.4858C120.493 51.3016 121.049 51.7095 121.876 51.7095C122.302 51.7095 122.669 51.609 122.976 51.4081C123.295 51.2071 123.656 50.8878 124.058 50.4504L124.519 50.8405L124.129 51.3726C123.514 52.2002 122.864 52.7855 122.178 53.1283C121.492 53.4712 120.83 53.6427 120.192 53.6427C118.796 53.6427 117.851 53.0219 117.354 51.7805C117.082 51.1066 116.946 50.1725 116.946 48.9784V38.231H115.013C114.954 38.1955 114.907 38.16 114.871 38.1246C114.847 38.0891 114.836 38.0418 114.836 37.9827C114.836 37.8644 114.859 37.7758 114.907 37.7167C114.966 37.6457 115.137 37.492 115.421 37.2555C116.237 36.5816 116.822 36.0377 117.177 35.6239C117.543 35.1983 118.394 34.0869 119.73 32.2898C119.884 32.2898 119.973 32.3016 119.996 32.3252C120.032 32.3489 120.05 32.4375 120.05 32.5912V36.9541H123.632Z" fill="#F01010"/>
<path d="M28.9673 49.3677V44.0926C27.6802 44.0813 26.4557 43.9909 25.3259 43.8572V48.944C25.3259 50.445 25.1534 51.4092 24.8084 51.8349C24.4634 52.2492 23.5952 52.5204 22.2019 52.6503V53.3057H32.4306V52.6503C30.9672 52.5449 30.0213 52.3132 29.5929 51.9592C29.1759 51.6032 28.9673 50.7407 28.9673 49.3677Z" fill="#F01010"/>
<path d="M38.946 31.0659C37.3044 29.8719 34.9349 29.2749 31.8413 29.2749H22.2021V29.9491C23.5119 30.0565 24.3555 30.3088 24.7365 30.7119C25.1289 31.113 25.326 31.9473 25.326 33.2129V41.2602C26.5051 41.3149 27.7486 41.3167 28.9675 41.2226V31.8287C28.9675 31.3202 29.0509 30.9944 29.2177 30.8531C29.3959 30.6987 29.8603 30.6233 30.611 30.6233C32.1938 30.6233 33.5037 30.8475 34.5387 31.2976C36.4665 32.1243 37.4314 33.6498 37.4314 35.874C37.4314 37.2545 37.2039 38.4409 36.5348 39.2432C32.2488 44.3696 18.6667 41.3883 18.6667 41.3883C18.6667 41.3883 26.6928 44.3922 35.0107 42.539C36.8627 42.1266 38.4095 41.4335 39.49 40.554C39.49 40.554 39.5431 40.5107 39.5735 40.4843C39.5962 40.4655 39.6379 40.4259 39.6379 40.4259C40.817 39.3186 41.4103 37.7724 41.4103 35.7855C41.4103 33.8325 40.5895 32.2599 38.946 31.0659Z" fill="#F01010"/>
<circle cx="173.969" cy="67.6148" r="10.0303" fill="#F01010"/>
<path d="M172.628 70.8535C173.056 70.8097 173.331 70.7136 173.452 70.5653C173.574 70.4136 173.634 70.0647 173.634 69.5185V65.3111C173.634 64.9369 173.575 64.6942 173.457 64.5829C173.339 64.4683 173.071 64.4009 172.653 64.3806V64.1885H174.701L177.098 69.4123L179.389 64.1885H181.452V64.3806C181.068 64.4076 180.82 64.4784 180.709 64.593C180.598 64.7043 180.542 64.9436 180.542 65.3111V69.918C180.542 70.2956 180.598 70.5383 180.709 70.6462C180.82 70.7507 181.068 70.8198 181.452 70.8535V71.0407H178.55V70.8535C178.968 70.8198 179.227 70.7457 179.328 70.631C179.433 70.513 179.485 70.2349 179.485 69.7966V65.1442L176.835 71.0407H176.694L174.089 65.387V69.5185C174.089 70.0849 174.172 70.454 174.337 70.626C174.445 70.7372 174.686 70.8131 175.06 70.8535V71.0407H172.628V70.8535Z" fill="white"/>
<path d="M168.902 69.918V68.4138C168.535 68.4106 168.186 68.3848 167.863 68.3467V69.7971C167.863 70.2251 167.814 70.5001 167.716 70.6214C167.617 70.7396 167.37 70.8169 166.973 70.854V71.0408H169.889V70.854C169.472 70.8239 169.202 70.7578 169.08 70.6569C168.961 70.5554 168.902 70.3094 168.902 69.918Z" fill="white"/>
<path d="M171.746 64.6992C171.278 64.3587 170.602 64.1885 169.72 64.1885H166.972V64.3807C167.345 64.4113 167.586 64.4833 167.694 64.5982C167.806 64.7126 167.862 64.9505 167.862 65.3114V67.606C168.199 67.6216 168.553 67.6221 168.901 67.5952V64.9167C168.901 64.7717 168.925 64.6788 168.972 64.6385C169.023 64.5945 169.155 64.573 169.369 64.573C169.821 64.573 170.194 64.6369 170.489 64.7652C171.039 65.001 171.314 65.4359 171.314 66.0701C171.314 66.4638 171.249 66.8021 171.059 67.0308C169.836 68.4926 165.964 67.6425 165.964 67.6425C165.964 67.6425 168.252 68.499 170.624 67.9706C171.152 67.853 171.593 67.6554 171.901 67.4046C171.901 67.4046 171.916 67.3923 171.925 67.3847C171.931 67.3794 171.943 67.3681 171.943 67.3681C172.28 67.0523 172.449 66.6114 172.449 66.0449C172.449 65.488 172.215 65.0396 171.746 64.6992Z" fill="white"/>
</svg>
