<svg width="200" height="128" viewBox="0 0 200 128" fill="none" xmlns="http://www.w3.org/2000/svg">
<path d="M188 0H12C5.37258 0 0 5.37258 0 12V116C0 122.627 5.37258 128 12 128H188C194.627 128 200 122.627 200 116V12C200 5.37258 194.627 0 188 0Z" fill="white"/>
<path d="M99.125 68.282H101.359V73.2876H102.972L105.868 68.282H108.31L104.834 74.157V74.1979L108.517 80.609H105.992L103.013 75.2306H101.401V80.609H99.1663V68.2805H99.125V68.282ZM113.522 71.5507C116.21 71.5507 118.403 73.4946 118.403 76.1836C118.403 78.9148 116.252 80.8174 113.564 80.8174C110.874 80.8174 108.722 78.9143 108.722 76.1836C108.681 73.4533 110.832 71.5507 113.522 71.5507ZM120.14 71.7563H122.251V78.7073H125.023V71.7577H127.132V78.7073H129.904V71.7577H132.014V80.609H120.223V71.7563H120.14ZM138.262 71.5507C140.784 71.5507 142.191 73.412 142.191 75.7297C142.184 76.0204 142.157 76.3103 142.109 76.5972H136.027C136.152 78.1275 137.351 78.9556 138.676 78.9556C139.585 78.9556 140.495 78.5416 141.199 78.0041L142.068 79.5767C141.158 80.3611 139.792 80.8588 138.51 80.8588C135.572 80.8588 133.752 78.7486 133.752 76.2244C133.752 73.4533 135.613 71.5507 138.262 71.5507H138.262ZM143.225 78.7486C144.302 78.5829 145.087 77.6736 145.087 74.5283V71.7577H151.542V80.609H149.348V73.5345H147.197V74.5274C147.197 78.3744 146.163 80.609 143.225 80.6916V78.7476V78.7486ZM157.829 71.5507C160.353 71.5507 161.759 73.412 161.759 75.7297C161.752 76.0204 161.724 76.3103 161.676 76.5972H155.595C155.72 78.1275 156.919 78.9556 158.243 78.9556C159.153 78.9556 160.063 78.5416 160.766 78.0041L161.636 79.5767C160.725 80.3611 159.36 80.8588 158.078 80.8588C155.141 80.8588 153.32 78.7486 153.32 76.2244C153.32 73.4533 155.182 71.5507 157.83 71.5507H157.829ZM163.58 71.7563H165.772V75.1494H166.848L169 71.7572H171.44L168.626 75.9766V76.0188L171.771 80.609H169.207L166.89 77.0112H165.732V80.609H163.537V71.7563H163.579H163.58ZM113.522 78.9148C114.97 78.9148 116.17 77.7971 116.17 76.1423C116.17 74.5288 114.97 73.3697 113.521 73.3697C112.075 73.3697 110.916 74.4885 110.916 76.1423C110.916 77.7971 112.073 78.9143 113.522 78.9143V78.9148ZM139.958 75.0673C139.958 73.9087 139.171 73.2055 138.178 73.2055C137.062 73.2055 136.234 73.95 136.027 75.0668L139.958 75.0673ZM159.525 75.0673C159.525 73.9087 158.74 73.2055 157.747 73.2055C156.628 73.2055 155.802 73.95 155.595 75.0668L159.525 75.0673Z" fill="#2D3540"/>
<path d="M130.028 41.4322V62.3247C130.03 62.4011 130.016 62.4771 129.988 62.548C129.959 62.619 129.917 62.6834 129.863 62.7375C129.808 62.7915 129.744 62.834 129.673 62.8625C129.602 62.8909 129.526 62.9047 129.45 62.903H125.188C125.111 62.9047 125.035 62.8909 124.964 62.8625C124.893 62.834 124.829 62.7915 124.775 62.7375C124.721 62.6834 124.678 62.619 124.65 62.548C124.621 62.4771 124.608 62.4011 124.609 62.3247V41.4322C124.608 41.3558 124.621 41.2798 124.65 41.2089C124.678 41.1379 124.721 41.0735 124.775 41.0194C124.829 40.9654 124.893 40.9229 124.964 40.8944C125.035 40.866 125.111 40.8522 125.188 40.8539H129.45C129.526 40.8522 129.602 40.866 129.673 40.8944C129.744 40.9229 129.808 40.9654 129.863 41.0194C129.917 41.0735 129.959 41.1379 129.988 41.2089C130.016 41.2798 130.03 41.3558 130.028 41.4322ZM163.29 40.8539C163.456 40.8539 163.663 40.936 163.868 41.1018C163.993 41.2252 163.993 41.4322 163.952 41.5984L156.919 62.5317C156.876 62.64 156.802 62.7332 156.706 62.7995C156.611 62.8659 156.497 62.9024 156.381 62.9045H152.575C152.327 62.9045 152.12 62.7796 152.038 62.5317L147.939 50.3277L143.844 62.5307C143.801 62.6389 143.727 62.732 143.632 62.7983C143.536 62.8645 143.423 62.901 143.307 62.903H139.501C139.253 62.903 139.045 62.7796 138.963 62.5302L131.929 41.597C131.888 41.4322 131.888 41.2665 132.012 41.1018C132.095 40.936 132.302 40.8539 132.467 40.8539H137.224C137.472 40.8539 137.679 41.0182 137.763 41.2665L141.527 53.6363L145.665 41.2665C145.707 41.1582 145.781 41.065 145.877 40.9987C145.973 40.9323 146.086 40.8958 146.202 40.8938H149.553C149.801 40.8938 150.008 41.0182 150.09 41.2665L154.228 53.6363L157.993 41.2665C158.027 41.1493 158.097 41.0459 158.194 40.9716C158.291 40.8972 158.409 40.8558 158.531 40.8534H163.288L163.29 40.8539ZM170.488 40.8539C170.777 40.8539 171.026 41.1018 171.067 41.4322V62.3247C171.068 62.4011 171.054 62.4771 171.026 62.548C170.998 62.619 170.955 62.6834 170.901 62.7375C170.847 62.7915 170.782 62.834 170.712 62.8625C170.641 62.8909 170.565 62.9047 170.488 62.903H166.227C166.15 62.9047 166.074 62.8909 166.003 62.8625C165.932 62.834 165.868 62.7915 165.814 62.7375C165.76 62.6834 165.717 62.619 165.689 62.548C165.66 62.4771 165.647 62.4011 165.648 62.3247V41.4322C165.647 41.3558 165.66 41.2798 165.689 41.2089C165.717 41.1379 165.76 41.0735 165.814 41.0194C165.868 40.9654 165.932 40.9229 166.003 40.8944C166.074 40.866 166.15 40.8522 166.227 40.8539H170.488ZM122.126 62.1599C122.374 62.4491 122.168 62.8622 121.795 62.8622H116.582C116.479 62.8649 116.377 62.844 116.284 62.8009C116.191 62.7578 116.109 62.6938 116.044 62.6138L115.176 61.5388C113.356 62.696 111.203 63.4006 108.929 63.4006C102.559 63.4006 97.3869 58.2293 97.3869 51.858C97.3869 45.4868 102.559 40.3149 108.929 40.3149C115.3 40.3149 120.472 45.4868 120.472 51.858C120.472 54.1339 119.809 56.2854 118.651 58.1044L122.126 62.1585V62.1599ZM78.5632 72.2951C79.6392 72.7087 80.0533 74.3217 80.1354 75.0249C80.3016 76.3079 79.9298 76.8041 79.5158 76.8041C79.1017 76.8041 78.5219 76.3084 77.9023 75.3155C77.2807 74.3212 77.0324 73.2054 77.3643 72.6256C77.5704 72.2524 78.0253 72.0881 78.5642 72.2951H78.5632ZM72.2751 76.9703C72.9375 76.9703 73.682 77.2594 74.3439 77.8383C75.626 78.9142 75.9992 80.1554 75.3368 81.0652C74.964 81.5206 74.3439 81.8102 73.6407 81.8102C72.9375 81.8102 72.1925 81.5619 71.6968 81.1065C70.5382 80.1141 70.2077 78.4579 70.9508 77.5491C71.2414 77.1759 71.6968 76.9703 72.2751 76.9703ZM57.7966 88.9255C42.0746 88.926 29.333 76.1835 29.333 60.4634C29.333 44.7423 42.0755 32.0007 57.7952 32.0007C73.5153 32.0007 86.2583 44.7432 86.2583 60.4629C86.2583 65.799 84.7693 70.8061 82.2465 75.0667C82.1629 75.1906 81.9559 75.1493 81.9146 74.9836C80.9217 67.9927 76.6611 64.1442 70.4551 62.9866C69.9166 62.903 69.834 62.5725 70.5377 62.4904C72.4408 62.3247 75.1293 62.3655 76.5362 62.6138C76.6197 61.8861 76.6613 61.1541 76.6606 60.4216C76.6606 50.0371 68.2205 41.597 57.836 41.597C47.4529 41.597 39.0128 50.0371 39.0128 60.4216C39.0128 70.8061 47.4529 79.2462 57.8375 79.2462H58.7054C58.4105 77.5666 58.2854 75.8616 58.3322 74.1569C58.375 72.9983 58.6228 72.8321 59.1195 73.7429C61.7258 78.2523 65.4494 82.3064 72.73 83.9203C78.6872 85.2447 84.6444 86.7745 91.0564 94.9245C91.6357 95.6277 90.7678 96.3722 90.1054 95.7934C83.5694 90.0005 77.6122 88.0979 72.192 88.0979C66.1104 88.1401 61.9737 88.926 57.7952 88.926L57.7966 88.9255ZM111.784 57.5261L109.508 54.7535C109.261 54.4644 109.468 54.009 109.84 54.009H114.638C114.886 53.3471 115.011 52.6026 115.011 51.858C115.011 48.4246 112.446 45.4455 108.929 45.4455C105.414 45.4455 102.847 48.4246 102.847 51.858C102.847 55.291 105.413 58.2293 108.929 58.2293C109.922 58.2701 110.916 57.9814 111.784 57.5256V57.5261Z" fill="#FF8C00"/>
</svg>
