<svg width="200" height="128" viewBox="0 0 200 128" fill="none" xmlns="http://www.w3.org/2000/svg">
<path d="M188 0H12C5.37258 0 0 5.37258 0 12V116C0 122.627 5.37258 128 12 128H188C194.627 128 200 122.627 200 116V12C200 5.37258 194.627 0 188 0Z" fill="white"/>
<rect x="136.701" y="48.3723" width="36.611" height="32.9456" fill="#D6AB05"/>
<path d="M171.159 48.3602V69.3916L138.674 79.934L164.362 62.4751V24C164.362 24 145.982 38.5948 140.247 42.8605C133.321 48.025 133.038 50.1426 133.038 53.479V79.0656C133.038 80.2158 133.504 81.3279 134.321 82.143C135.138 82.958 136.246 83.4227 137.406 83.4227H178.344V48.3602H171.159ZM152.625 47.6365C154.13 45.8541 156.321 45.2142 157.528 46.2273C158.734 47.2328 158.49 49.5028 156.986 51.2852C155.481 53.0677 153.29 53.6999 152.083 52.6944C150.884 51.6813 151.121 49.419 152.625 47.6365Z" fill="#FFCC00"/>
<path fill-rule="evenodd" clip-rule="evenodd" d="M157.527 46.2274C156.32 45.2143 154.128 45.8541 152.624 47.6366C151.12 49.419 150.883 51.6814 152.082 52.6945C153.288 53.7 155.48 53.0677 156.984 51.2853C158.489 49.5028 158.733 47.2329 157.527 46.2274Z" fill="black"/>
<path d="M54.3419 56.3645V79.0915H50.8598V68.9006H45.6163V79.0928H42.0911V56.3658H45.6163V66.0154H50.8598V56.3645H54.3419ZM72.4704 83.5563H69.3061V79.0928H59.5409V83.5563H56.3765V76.2063H57.7769C58.29 75.0041 58.6966 73.6744 58.9983 72.2156C59.2985 70.7583 59.5328 69.2552 59.6985 67.7052C59.8641 66.1578 59.9691 64.5795 60.0163 62.9717C60.0607 61.3625 60.0836 59.8071 60.0836 58.3027V56.3645H70.662V76.2063H72.4704V83.5563ZM67.1812 59.2497H63.2493V59.6553C63.2493 60.8548 63.2251 62.1671 63.1793 63.5909C63.1326 65.0405 63.0347 66.4881 62.8857 67.9308C62.736 69.3857 62.5249 70.8336 62.2529 72.2707C62.004 73.6159 61.6252 74.9339 61.1218 76.2063H67.1812V59.2497ZM87.7954 77.5589C87.0475 78.1437 86.2075 78.6007 85.3097 78.9115C84.3752 79.2419 83.3343 79.4085 82.1898 79.4085C79.8387 79.4085 77.9859 78.4991 76.6286 76.6804C75.2726 74.8617 74.5953 72.1928 74.5953 68.6749C74.5953 66.8428 74.7219 65.1584 74.979 63.6245C75.2362 62.0906 75.6415 60.7608 76.2004 59.6338C76.7565 58.5055 77.4728 57.6271 78.3481 56.9958C79.2207 56.3645 80.2602 56.0488 81.4653 56.0488C82.3998 56.0488 83.2589 56.2369 84.044 56.613C84.8263 56.9891 85.4888 57.5975 86.0328 58.4397C86.5741 59.2806 86.9956 60.3699 87.2986 61.7077C87.5989 63.0456 87.7497 64.6762 87.7497 66.601V68.5393H78.2565C78.2565 71.1263 78.6107 73.0793 79.3203 74.4024C80.0272 75.7254 81.0897 76.3863 82.5062 76.3863C83.5 76.3863 84.382 76.2143 85.1508 75.8678C85.9184 75.5226 86.5297 75.1841 86.9821 74.8537L87.7954 77.5589ZM81.4667 58.9354C80.3814 58.9354 79.6138 59.5438 79.1614 60.7621C78.7076 61.9791 78.4208 63.6097 78.301 65.6541H84.1342C84.1342 64.6923 84.0884 63.7978 83.9982 62.9717C83.9276 62.245 83.7837 61.5272 83.5686 60.8293C83.3721 60.2275 83.1014 59.7614 82.7553 59.431C82.5839 59.2673 82.3816 59.1391 82.1602 59.0538C81.9388 58.9685 81.704 58.9292 81.4667 58.9354ZM94.8917 67.7737V79.0928H91.3678V56.3658H94.8944V66.871L100.364 56.3645H103.935L98.285 67.0524L104.75 79.0928H100.908L94.8917 67.7737ZM113.022 79.4071C110.579 79.4071 108.666 78.4387 107.28 76.4991C105.893 74.5595 105.2 71.6367 105.2 67.728C105.2 65.955 105.375 64.3471 105.721 62.9032C106.065 61.4606 106.578 60.2356 107.256 59.2282C107.898 58.2542 108.767 57.4496 109.789 56.883C110.798 56.3269 111.966 56.0488 113.292 56.0488C114.316 56.0488 115.146 56.1617 115.778 56.3873C116.412 56.613 116.983 56.891 117.498 57.2201L116.999 60.558C116.487 60.1057 115.916 59.7236 115.303 59.4216C114.665 59.0998 113.961 58.9332 113.246 58.9354C111.981 58.9354 110.941 59.6459 110.128 61.0657C109.313 62.4868 108.907 64.6467 108.907 67.5467C108.907 70.4184 109.247 72.632 109.923 74.1875C110.602 75.7456 111.664 76.5219 113.112 76.5219C113.984 76.5219 114.74 76.3742 115.371 76.0787C116.004 75.7859 116.532 75.4514 116.954 75.0793L117.767 77.6946C117.157 78.2097 116.471 78.6279 115.734 78.9343C114.979 79.25 114.075 79.4071 113.022 79.4071Z" fill="black"/>
<path d="M31.1976 66.7356L25.6822 79.0931H21.6587L27.7168 65.88C26.3002 65.1587 25.1543 64.0989 24.2818 62.7006C23.4065 61.3023 22.9702 59.4017 22.9702 56.996C22.9702 55.313 23.218 53.8328 23.7162 52.5541C24.2131 51.278 24.8917 50.2169 25.7495 49.3747C26.6072 48.5325 27.6104 47.9025 28.759 47.4808C29.9165 47.0578 31.1404 46.844 32.3731 46.8495H37.5708V79.0931H34.0913V66.7356H31.1976ZM34.0913 49.7374H32.2371C31.5437 49.7374 30.865 49.865 30.2039 50.1215C29.5427 50.3781 28.9516 50.7851 28.4399 51.3438C27.9282 51.9013 27.5135 52.64 27.197 53.5601C26.8792 54.4802 26.723 55.6179 26.723 56.9759C26.723 58.2721 26.8644 59.3587 27.1512 60.2332C27.4381 61.1076 27.8299 61.8181 28.3268 62.3594C28.825 62.9021 29.4121 63.2863 30.0907 63.5133C30.7831 63.7412 31.508 63.8555 32.2371 63.8517H34.0913V49.7374Z" fill="#FF0000"/>
</svg>
