<svg width="200" height="128" viewBox="0 0 200 128" fill="none" xmlns="http://www.w3.org/2000/svg">
<path d="M188 0H12C5.37258 0 0 5.37258 0 12V116C0 122.627 5.37258 128 12 128H188C194.627 128 200 122.627 200 116V12C200 5.37258 194.627 0 188 0Z" fill="white"/>
<path d="M68.5377 70.4528C64.9761 84.7375 50.5032 93.4308 36.2147 89.8684C21.9299 86.308 13.2341 71.8341 16.7994 57.5514C20.361 43.2628 34.8302 34.5695 49.1132 38.1319C63.4035 41.6923 72.0957 56.1643 68.5359 70.4528H68.5377Z" fill="#F7931A"/>
<path d="M54.4229 60.2005C54.9526 56.6518 52.2494 54.7438 48.5563 53.4698L49.7545 48.6666L46.8285 47.935L45.6613 52.6173C44.8942 52.4241 44.1015 52.2427 43.318 52.0632L44.4924 47.3556L41.5664 46.626L40.3682 51.4311C39.7308 51.2848 39.1061 51.1424 38.4979 50.9921L38.5016 50.9765L34.4651 49.9699L33.6888 53.0933C33.6888 53.0933 35.8587 53.5927 35.813 53.622C36.9984 53.9185 37.2121 54.7028 37.1774 55.3251L35.813 60.8014C35.8934 60.8209 35.9993 60.8521 36.1162 60.8989L35.8057 60.8209L33.8934 68.4919C33.7473 68.8529 33.382 69.3933 32.5528 69.1884C32.582 69.2313 30.4268 68.6558 30.4268 68.6558L28.9729 72.0056L32.7811 72.9537C33.4879 73.1332 34.1838 73.3205 34.8669 73.4941L33.656 78.3558L36.5783 79.0855L37.7783 74.2745C38.5765 74.491 39.3527 74.692 40.1089 74.8793L38.9144 79.6688L41.8422 80.3965L43.0531 75.5445C48.0412 76.4888 51.7946 76.1064 53.3727 71.5939C54.6476 67.9613 53.3106 65.866 50.6841 64.4984C52.5964 64.0555 54.0357 62.8011 54.4211 60.2025L54.4229 60.2005ZM47.7362 69.5747C46.8321 73.2073 40.7134 71.2447 38.7317 70.7511L40.339 64.3092C42.3207 64.8047 48.6805 65.7841 47.7362 69.5767V69.5747ZM48.6421 60.1478C47.8166 63.4527 42.7244 61.773 41.0714 61.3633L42.5289 55.5202C44.1819 55.9319 49.5006 56.7025 48.6421 60.1478Z" fill="white"/>
<path d="M81.7188 74.6667V51.9167H89.8906C92.8177 51.9167 95.0417 52.4532 96.5625 53.5261C98.0938 54.599 98.8594 56.1563 98.8594 58.198C98.8594 59.3751 98.5885 60.3803 98.0469 61.2136C97.5052 62.047 96.7083 62.6615 95.6562 63.0574C96.8438 63.3699 97.7552 63.9532 98.3906 64.8074C99.026 65.6615 99.3438 66.7032 99.3438 67.9324C99.3438 70.1615 98.6354 71.8386 97.2188 72.9636C95.8125 74.0782 93.724 74.6459 90.9531 74.6667H81.7188ZM87.2031 64.9949V70.448H90.7969C91.7865 70.448 92.5469 70.224 93.0781 69.7761C93.6094 69.3178 93.875 68.6772 93.875 67.8542C93.875 65.9584 92.9323 65.0053 91.0469 64.9949H87.2031ZM87.2031 61.4011H90.0625C91.2604 61.3907 92.1146 61.172 92.625 60.7449C93.1354 60.3178 93.3906 59.6876 93.3906 58.8542C93.3906 57.8959 93.1146 57.2084 92.5625 56.7917C92.0104 56.3647 91.1198 56.1511 89.8906 56.1511H87.2031V61.4011Z" fill="#222222"/>
<path d="M107.688 74.6667H102.406V57.7605H107.688V74.6667ZM102.094 53.4011C102.094 52.6511 102.365 52.0365 102.906 51.5574C103.448 51.0782 104.151 50.8386 105.016 50.8386C105.88 50.8386 106.583 51.0782 107.125 51.5574C107.667 52.0365 107.938 52.6511 107.938 53.4011C107.938 54.1511 107.667 54.7657 107.125 55.2449C106.583 55.724 105.88 55.9636 105.016 55.9636C104.151 55.9636 103.448 55.724 102.906 55.2449C102.365 54.7657 102.094 54.1511 102.094 53.4011Z" fill="#222222"/>
<path d="M117.078 53.5574V57.7605H119.859V61.4167H117.078V69.1511C117.078 69.7865 117.193 70.2292 117.422 70.4792C117.651 70.7292 118.104 70.8542 118.781 70.8542C119.302 70.8542 119.74 70.823 120.094 70.7605V74.5261C119.146 74.8282 118.156 74.9792 117.125 74.9792C115.312 74.9792 113.974 74.5522 113.109 73.698C112.245 72.8438 111.812 71.547 111.812 69.8074V61.4167H109.656V57.7605H111.812V53.5574H117.078Z" fill="#222222"/>
<path d="M129.094 70.9167C129.833 70.9167 130.406 70.7188 130.812 70.323C131.219 69.9167 131.417 69.3542 131.406 68.6355H136.344C136.344 70.4897 135.677 72.0105 134.344 73.198C133.021 74.3855 131.312 74.9792 129.219 74.9792C126.76 74.9792 124.823 74.2084 123.406 72.6667C121.99 71.1251 121.281 68.9897 121.281 66.2605V66.0417C121.281 64.3334 121.594 62.8282 122.219 61.5261C122.854 60.2136 123.766 59.2084 124.953 58.5105C126.141 57.8022 127.547 57.448 129.172 57.448C131.37 57.448 133.115 58.0574 134.406 59.2761C135.698 60.4949 136.344 62.1459 136.344 64.2292H131.406C131.406 63.3542 131.193 62.6824 130.766 62.2136C130.339 61.7449 129.766 61.5105 129.047 61.5105C127.682 61.5105 126.885 62.3803 126.656 64.1199C126.583 64.672 126.547 65.4324 126.547 66.4011C126.547 68.099 126.75 69.2761 127.156 69.9324C127.562 70.5886 128.208 70.9167 129.094 70.9167Z" fill="#222222"/>
<path d="M137.906 66.0574C137.906 64.3699 138.234 62.8699 138.891 61.5574C139.547 60.2345 140.49 59.2188 141.719 58.5105C142.948 57.8022 144.391 57.448 146.047 57.448C148.578 57.448 150.573 58.2345 152.031 59.8074C153.49 61.3699 154.219 63.5001 154.219 66.198V66.3855C154.219 69.0209 153.484 71.1147 152.016 72.6667C150.557 74.2084 148.578 74.9792 146.078 74.9792C143.672 74.9792 141.74 74.2605 140.281 72.823C138.823 71.3751 138.036 69.4167 137.922 66.948L137.906 66.0574ZM143.172 66.3855C143.172 67.948 143.417 69.0938 143.906 69.823C144.396 70.5522 145.12 70.9167 146.078 70.9167C147.953 70.9167 148.911 69.474 148.953 66.5886V66.0574C148.953 63.0261 147.984 61.5105 146.047 61.5105C144.286 61.5105 143.333 62.8178 143.188 65.4324L143.172 66.3855Z" fill="#222222"/>
<path d="M162.094 74.6667H156.812V57.7605H162.094V74.6667ZM156.5 53.4011C156.5 52.6511 156.771 52.0365 157.312 51.5574C157.854 51.0782 158.557 50.8386 159.422 50.8386C160.286 50.8386 160.99 51.0782 161.531 51.5574C162.073 52.0365 162.344 52.6511 162.344 53.4011C162.344 54.1511 162.073 54.7657 161.531 55.2449C160.99 55.724 160.286 55.9636 159.422 55.9636C158.557 55.9636 157.854 55.724 157.312 55.2449C156.771 54.7657 156.5 54.1511 156.5 53.4011Z" fill="#222222"/>
<path d="M170.188 57.7605L170.359 59.7449C171.526 58.2136 173.135 57.448 175.188 57.448C176.948 57.448 178.26 57.974 179.125 59.0261C180 60.0782 180.453 61.6615 180.484 63.7761V74.6667H175.203V63.9949C175.203 63.1407 175.031 62.5157 174.688 62.1199C174.344 61.7136 173.719 61.5105 172.812 61.5105C171.781 61.5105 171.016 61.9167 170.516 62.7292V74.6667H165.25V57.7605H170.188Z" fill="#222222"/>
</svg>
