<svg width="200" height="128" viewBox="0 0 200 128" fill="none" xmlns="http://www.w3.org/2000/svg">
<path d="M188 0H12C5.37258 0 0 5.37258 0 12V116C0 122.627 5.37258 128 12 128H188C194.627 128 200 122.627 200 116V12C200 5.37258 194.627 0 188 0Z" fill="white"/>
<path d="M59.4959 83.6001H51.2039C50.6359 83.6001 50.1559 84.0121 50.0679 84.5721L46.7119 105.832C46.6479 106.252 46.9719 106.628 47.3959 106.628H51.3559C51.9239 106.628 52.4039 106.216 52.4919 105.656L53.3999 99.9241C53.4839 99.3601 53.9679 98.9481 54.5359 98.9481H57.1599C62.6199 98.9481 65.7719 96.3081 66.5959 91.0681C66.9679 88.7761 66.6119 86.9761 65.5399 85.7161C64.3599 84.3321 62.2719 83.6001 59.4959 83.6001ZM60.4519 91.3641C59.9999 94.3401 57.7279 94.3401 55.5279 94.3401H54.2759L55.1559 88.7842C55.2079 88.4482 55.496 88.2001 55.836 88.2001H56.4119C57.9079 88.2001 59.3199 88.2002 60.0519 89.0562C60.4839 89.5642 60.6199 90.3201 60.4519 91.3641Z" fill="#253B80"/>
<path d="M84.28 91.2681H80.3079C79.9719 91.2681 79.68 91.5121 79.628 91.8481L79.452 92.9601L79.172 92.5562C78.312 91.3122 76.396 90.8921 74.484 90.8921C70.096 90.8921 66.348 94.2161 65.62 98.8761C65.24 101.204 65.7799 103.424 67.0999 104.976C68.3079 106.4 70.0399 106.996 72.0999 106.996C75.6359 106.996 77.5959 104.724 77.5959 104.724L77.416 105.824C77.352 106.248 77.6759 106.624 78.0999 106.624H81.676C82.244 106.624 82.724 106.212 82.812 105.652L84.9599 92.0641C85.0279 91.6441 84.704 91.2681 84.28 91.2681ZM78.744 98.9921C78.36 101.26 76.56 102.784 74.264 102.784C73.112 102.784 72.1919 102.416 71.5999 101.712C71.0119 101.016 70.7919 100.028 70.9759 98.9241C71.3359 96.6761 73.1639 95.1041 75.4239 95.1041C76.5519 95.1041 77.468 95.4761 78.072 96.1841C78.68 96.9001 78.92 97.8961 78.744 98.9921Z" fill="#253B80"/>
<path d="M105.424 91.2681H101.432C101.052 91.2681 100.696 91.4561 100.48 91.7721L94.976 99.8761L92.6441 92.0881C92.5001 91.6001 92.048 91.2681 91.54 91.2681H87.62C87.144 91.2681 86.812 91.7322 86.964 92.1802L91.356 105.076L87.224 110.908C86.9 111.368 87.228 112 87.788 112H91.776C92.152 112 92.508 111.816 92.72 111.504L105.992 92.3522C106.308 91.8922 105.984 91.2681 105.424 91.2681Z" fill="#253B80"/>
<path d="M118.632 83.5957H110.34C109.772 83.5957 109.292 84.0077 109.204 84.5677L105.848 105.828C105.784 106.248 106.108 106.628 106.532 106.628H110.784C111.18 106.628 111.52 106.34 111.58 105.944L112.532 99.9198C112.62 99.3598 113.104 98.9478 113.668 98.9478H116.292C121.756 98.9478 124.908 96.3037 125.732 91.0677C126.104 88.7757 125.744 86.9757 124.672 85.7157C123.496 84.3277 121.408 83.5957 118.632 83.5957ZM119.588 91.3638C119.136 94.3358 116.864 94.3358 114.664 94.3358H113.416L114.292 88.7798C114.344 88.4438 114.632 88.1997 114.976 88.1997H115.548C117.044 88.1997 118.456 88.1998 119.188 89.0518C119.624 89.5598 119.756 90.3158 119.588 91.3638Z" fill="#179BD7"/>
<path d="M143.412 91.2681H139.444C139.104 91.2681 138.816 91.5121 138.764 91.8481L138.588 92.9601L138.308 92.5562C137.452 91.3122 135.536 90.8921 133.624 90.8921C129.236 90.8921 125.488 94.2161 124.76 98.8761C124.38 101.204 124.916 103.424 126.236 104.976C127.448 106.4 129.176 106.996 131.236 106.996C134.772 106.996 136.732 104.724 136.732 104.724L136.556 105.824C136.488 106.248 136.812 106.624 137.24 106.624H140.816C141.38 106.624 141.864 106.212 141.952 105.652L144.1 92.0641C144.164 91.6441 143.84 91.2681 143.412 91.2681ZM137.88 98.9921C137.5 101.26 135.696 102.784 133.4 102.784C132.248 102.784 131.324 102.416 130.736 101.712C130.148 101.016 129.928 100.028 130.112 98.9241C130.472 96.6761 132.3 95.1041 134.56 95.1041C135.688 95.1041 136.604 95.4761 137.208 96.1841C137.816 96.9001 138.056 97.8961 137.88 98.9921Z" fill="#179BD7"/>
<path d="M148.096 84.1798L144.692 105.828C144.624 106.248 144.948 106.628 145.372 106.628H148.792C149.364 106.628 149.844 106.216 149.932 105.652L153.288 84.3958C153.356 83.9758 153.028 83.5957 152.608 83.5957H148.776C148.436 83.5957 148.148 83.8438 148.096 84.1798Z" fill="#179BD7"/>
<path d="M92.2761 68.0721L93.2081 62.1401L91.1282 62.0921H81.1921L88.0961 18.3081C88.1201 18.1761 88.1881 18.0521 88.2921 17.9641C88.3921 17.8761 88.5242 17.8281 88.6602 17.8281H105.412C110.972 17.8281 114.812 18.9881 116.816 21.2721C117.756 22.3441 118.352 23.4641 118.644 24.6961C118.948 25.9881 118.952 27.5321 118.656 29.4161L118.636 29.5562V30.7641L119.572 31.2961C120.364 31.7161 120.992 32.1961 121.476 32.7441C122.28 33.6601 122.8 34.8241 123.02 36.2081C123.248 37.6281 123.172 39.3161 122.8 41.2281C122.372 43.4282 121.676 45.3441 120.74 46.9121C119.88 48.3601 118.784 49.5561 117.484 50.4841C116.24 51.3681 114.764 52.0401 113.092 52.4681C111.472 52.8881 109.628 53.1001 107.604 53.1001H106.3C105.368 53.1001 104.464 53.4361 103.752 54.0401C103.04 54.6521 102.568 55.4921 102.424 56.4121L102.324 56.9441L100.676 67.4041L100.6 67.7881C100.58 67.9081 100.548 67.9681 100.496 68.0081C100.452 68.0481 100.388 68.0721 100.324 68.0721H92.2761Z" fill="#253B80"/>
<path d="M120.464 29.6919C120.412 30.0119 120.356 30.3399 120.292 30.6759C118.08 42.0199 110.524 45.9399 100.868 45.9399H95.9519C94.7719 45.9399 93.7798 46.7959 93.5958 47.9599L91.0759 63.9199L90.3639 68.4438C90.2439 69.2078 90.8359 69.8999 91.6079 69.8999H100.324C101.356 69.8999 102.232 69.1479 102.396 68.1319L102.48 67.6879L104.124 57.2719L104.228 56.6999C104.388 55.6799 105.268 54.9279 106.3 54.9279H107.604C116.052 54.9279 122.664 51.4999 124.596 41.5759C125.404 37.4279 124.984 33.9679 122.848 31.5319C122.204 30.7999 121.4 30.1919 120.464 29.6919Z" fill="#179BD7"/>
<path d="M118.152 28.772C117.816 28.676 117.464 28.584 117.108 28.504C116.748 28.424 116.38 28.356 116.004 28.296C114.676 28.08 113.224 27.98 111.672 27.98H98.54C98.216 27.98 97.908 28.052 97.632 28.184C97.028 28.476 96.576 29.048 96.468 29.752L93.676 47.444L93.5959 47.96C93.7799 46.796 94.7721 45.94 95.9561 45.94H100.868C110.524 45.94 118.084 42.02 120.292 30.676C120.356 30.34 120.412 30.012 120.464 29.696C119.904 29.396 119.3 29.144 118.648 28.928C118.484 28.876 118.32 28.824 118.152 28.772Z" fill="#222D65"/>
<path d="M96.468 29.752C96.576 29.048 97.0279 28.476 97.6319 28.188C97.9079 28.056 98.216 27.98 98.54 27.98H111.668C113.224 27.98 114.676 28.084 116.004 28.296C116.38 28.36 116.748 28.428 117.108 28.508C117.464 28.588 117.816 28.676 118.152 28.776C118.32 28.824 118.484 28.876 118.648 28.928C119.3 29.144 119.904 29.4 120.464 29.696C121.12 25.504 120.46 22.648 118.192 20.064C115.692 17.22 111.184 16 105.412 16H88.66C87.48 16 86.476 16.856 86.292 18.024L79.316 62.256C79.176 63.132 79.8519 63.92 80.7359 63.92H91.076L93.676 47.444L96.468 29.752Z" fill="#253B80"/>
</svg>
