<svg width="200" height="128" viewBox="0 0 200 128" fill="none" xmlns="http://www.w3.org/2000/svg">
<path d="M188 0H12C5.37258 0 0 5.37258 0 12V116C0 122.627 5.37258 128 12 128H188C194.627 128 200 122.627 200 116V12C200 5.37258 194.627 0 188 0Z" fill="white"/>
<path d="M126.143 75.1004L41.9638 75.8227C39.4449 75.8413 37.3891 73.8225 37.3706 71.3036L37.0001 27.3157C36.9816 24.7968 39.0004 22.741 41.5193 22.7225L125.698 22.0001C128.217 21.9816 130.273 24.0004 130.291 26.5193L130.662 70.5072C130.699 73.026 128.662 75.0819 126.143 75.1004Z" fill="#179BD7"/>
<path d="M130.334 30.0092L37.0242 30.813L37.1296 43.0555L130.439 42.2517L130.334 30.0092Z" fill="#253B80"/>
<path d="M110.307 47.7261H56.6882V57.8016H110.307V47.7261Z" fill="#E6E6E6"/>
<path d="M122.864 62.469H45.2791V63.9507H122.864V62.469Z" fill="#253B80"/>
<path d="M122.864 67.2104H45.2791V68.6921H122.864V67.2104Z" fill="#253B80"/>
<path d="M158.481 105.846L74.3019 106.568C71.7831 106.586 69.7272 104.568 69.7087 102.049L69.3383 58.0608C69.3197 55.5419 71.3385 53.4861 73.8574 53.4676L158.036 52.7452C160.555 52.7267 162.611 54.7455 162.63 57.2644L163 101.252C163.019 103.753 161 105.827 158.481 105.846Z" fill="#F7931A"/>
<path opacity="0.1" d="M73.8389 53.4682C71.32 53.4867 69.3012 55.5425 69.3197 58.0614L69.5975 91.0477C69.5975 91.0477 92.2675 80.9166 112.122 72.0264C131.977 63.1362 155.221 52.7458 155.221 52.7458L73.8389 53.4682Z" fill="white"/>
<path d="M113.835 96.3843L79.0896 96.6836L79.1146 99.5914L113.86 99.2921L113.835 96.3843Z" fill="#FFCC00"/>
<path d="M156.073 95.0975C157.104 92.2613 155.639 89.1269 152.803 88.0968C149.967 87.0666 146.833 88.5306 145.803 91.3668C144.772 94.203 146.236 97.3373 149.073 98.3675C151.909 99.3977 155.043 97.9337 156.073 95.0975Z" fill="#FBB03B"/>
<path d="M145.431 98.2336C148.165 96.9565 149.346 93.705 148.069 90.9711C146.792 88.2372 143.54 87.0562 140.806 88.3332C138.072 89.6103 136.891 92.8618 138.168 95.5957C139.445 98.3296 142.697 99.5106 145.431 98.2336Z" fill="#C1272D"/>
<path d="M156.425 59.0425H125.18V67.9327H156.425V59.0425Z" fill="#FFCC00"/>
<path d="M96.4162 84.5833H82.6365C81.5067 84.5833 80.5991 83.6758 80.5991 82.546V74.3596C80.5991 73.2298 81.5067 72.3223 82.6365 72.3223H96.4162C97.546 72.3223 98.4536 73.2298 98.4536 74.3596V82.546C98.435 83.6758 97.5275 84.5833 96.4162 84.5833Z" fill="#E5CD65"/>
<path d="M91.8045 75.3225C91.8045 73.989 90.7117 72.8962 89.3782 72.8962C88.0447 72.8962 86.9519 73.989 86.9519 75.3225V81.6012C86.9519 82.9347 88.0447 84.0275 89.3782 84.0275C90.7117 84.0275 91.8045 82.9347 91.8045 81.6012V75.3225Z" fill="#F7E277"/>
<path d="M98.4348 77.0264H92.9155V79.9157H98.4348V77.0264Z" fill="#F7E277"/>
<path d="M92.9157 75.3225V75.8966H98.435V74.7113C98.435 73.3963 97.3793 72.3406 96.0643 72.3406H91.2673C92.249 72.9703 92.9157 74.063 92.9157 75.3225Z" fill="#F7E277"/>
<path d="M85.8406 75.3225C85.8406 74.063 86.5074 72.9703 87.489 72.3406H82.9698C81.6548 72.3406 80.5991 73.3963 80.5991 74.7113V75.8966H85.8591V75.3225H85.8406Z" fill="#F7E277"/>
<path d="M92.9157 81.0271V81.6013C92.9157 82.8607 92.249 83.9534 91.2673 84.5832H96.0643C97.3793 84.5832 98.435 83.5275 98.435 82.2124V81.0271H92.9157Z" fill="#F7E277"/>
<path d="M85.8406 81.6013V81.0271H80.5806V82.2124C80.5806 83.5275 81.6363 84.5832 82.9513 84.5832H87.4705C86.5073 83.9534 85.8406 82.8607 85.8406 81.6013Z" fill="#F7E277"/>
<path d="M85.8591 77.0264H80.5991V79.9157H85.8591V77.0264Z" fill="#F7E277"/>
<path d="M79.1882 86.6592L80.9873 89.3245L79.1438 92.0899H80.9985L81.5093 91.1126C81.6426 90.846 81.787 90.5795 81.9202 90.2907H81.9535C82.0868 90.5684 82.2201 90.846 82.3756 91.1126L82.9197 92.0899H84.8299L83.0197 89.2468L84.8077 86.6592H82.9753L82.4977 87.5476C82.3533 87.8142 82.2201 88.0807 82.0757 88.3806H82.0535C81.9091 88.114 81.7647 87.8475 81.6093 87.5698L81.0762 86.6592H79.1882Z" fill="#FFCC00"/>
<path d="M84.9471 86.6592L86.7463 89.3245L84.9027 92.0899H86.7574L87.2682 91.1126C87.4015 90.846 87.5459 90.5795 87.6791 90.2907H87.7125C87.8457 90.5684 87.979 90.846 88.1345 91.1126L88.6787 92.0899H90.5888L88.7786 89.2468L90.5666 86.6592H88.7342L88.2566 87.5476C88.1123 87.8142 87.979 88.0807 87.8346 88.3806H87.8124C87.668 88.114 87.5237 87.8475 87.3682 87.5698L86.8351 86.6592H84.9471Z" fill="#FFCC00"/>
<path d="M90.706 86.6592L92.5052 89.3245L90.6616 92.0899H92.5163L93.0271 91.1126C93.1604 90.846 93.3048 90.5795 93.4381 90.2907H93.4714C93.6046 90.5684 93.7379 90.846 93.8934 91.1126L94.4376 92.0899H96.3477L94.5375 89.2468L96.3255 86.6592H94.4931L94.0155 87.5476C93.8712 87.8142 93.7379 88.0807 93.5935 88.3806H93.5713C93.4269 88.114 93.2826 87.8475 93.1271 87.5698L92.594 86.6592H90.706Z" fill="#FFCC00"/>
<path d="M98.71 86.6592L100.509 89.3245L98.6655 92.0899H100.52L101.031 91.1126C101.164 90.846 101.309 90.5795 101.442 90.2907H101.475C101.609 90.5684 101.742 90.846 101.897 91.1126L102.441 92.0899H104.352L102.541 89.2468L104.329 86.6592H102.497L102.019 87.5476C101.875 87.8142 101.742 88.0807 101.597 88.3806H101.575C101.431 88.114 101.286 87.8475 101.131 87.5698L100.598 86.6592H98.71Z" fill="#FFCC00"/>
<path d="M104.469 86.6592L106.268 89.3245L104.424 92.0899H106.279L106.79 91.1126C106.923 90.846 107.068 90.5795 107.201 90.2907H107.234C107.367 90.5684 107.501 90.846 107.656 91.1126L108.2 92.0899H110.111L108.3 89.2468L110.088 86.6592H108.256L107.778 87.5476C107.634 87.8142 107.501 88.0807 107.356 88.3806H107.334C107.19 88.114 107.045 87.8475 106.89 87.5698L106.357 86.6592H104.469Z" fill="#FFCC00"/>
<path d="M110.228 86.6592L112.027 89.3245L110.183 92.0899H112.038L112.549 91.1126C112.682 90.846 112.827 90.5795 112.96 90.2907H112.993C113.126 90.5684 113.26 90.846 113.415 91.1126L113.959 92.0899H115.869L114.059 89.2468L115.847 86.6592H114.015L113.537 87.5476C113.393 87.8142 113.26 88.0807 113.115 88.3806H113.093C112.949 88.114 112.804 87.8475 112.649 87.5698L112.116 86.6592H110.228Z" fill="#FFCC00"/>
<path d="M118.232 86.6592L120.031 89.3245L118.187 92.0899H120.042L120.553 91.1126C120.686 90.846 120.83 90.5795 120.964 90.2907H120.997C121.13 90.5684 121.264 90.846 121.419 91.1126L121.963 92.0899H123.873L122.063 89.2468L123.851 86.6592H122.019L121.541 87.5476C121.397 87.8142 121.264 88.0807 121.119 88.3806H121.097C120.953 88.114 120.808 87.8475 120.653 87.5698L120.12 86.6592H118.232Z" fill="#FFCC00"/>
<path d="M123.991 86.6592L125.79 89.3245L123.946 92.0899H125.801L126.312 91.1126C126.445 90.846 126.589 90.5795 126.723 90.2907H126.756C126.889 90.5684 127.022 90.846 127.178 91.1126L127.722 92.0899H129.632L127.822 89.2468L129.61 86.6592H127.778L127.3 87.5476C127.156 87.8142 127.022 88.0807 126.878 88.3806H126.856C126.712 88.114 126.567 87.8475 126.412 87.5698L125.879 86.6592H123.991Z" fill="#FFCC00"/>
<path d="M129.75 86.6592L131.549 89.3245L129.705 92.0899H131.56L132.071 91.1126C132.204 90.846 132.348 90.5795 132.482 90.2907H132.515C132.648 90.5684 132.781 90.846 132.937 91.1126L133.481 92.0899H135.391L133.581 89.2468L135.369 86.6592H133.537L133.059 87.5476C132.915 87.8142 132.781 88.0807 132.637 88.3806H132.615C132.47 88.114 132.326 87.8475 132.171 87.5698L131.638 86.6592H129.75Z" fill="#FFCC00"/>
</svg>
