<svg width="75" height="48" viewBox="0 0 75 48" fill="none" xmlns="http://www.w3.org/2000/svg">
<path d="M70.5 0H4.5C2.01472 0 0 2.01472 0 4.5V43.5C0 45.9853 2.01472 48 4.5 48H70.5C72.9853 48 75 45.9853 75 43.5V4.5C75 2.01472 72.9853 0 70.5 0Z" fill="white"/>
<path d="M25.7016 26.4198C24.366 31.7765 18.9387 35.0365 13.5805 33.7006C8.22372 32.3654 4.96278 26.9377 6.29976 21.5817C7.63536 16.2235 13.0613 12.9635 18.4175 14.2994C23.7763 15.6346 27.0359 21.0615 25.701 26.4198H25.7016Z" fill="#F7931A"/>
<path d="M20.4086 22.5752C20.6072 21.2444 19.5935 20.5289 18.2086 20.0512L18.6579 18.25L17.5607 17.9756L17.123 19.7315C16.8353 19.659 16.5381 19.591 16.2442 19.5237L16.6846 17.7584L15.5874 17.4847L15.1381 19.2867C14.899 19.2318 14.6648 19.1784 14.4367 19.1221L14.4381 19.1162L12.9244 18.7387L12.6333 19.91C12.6333 19.91 13.447 20.0973 13.4299 20.1082C13.8744 20.2194 13.9545 20.5136 13.9415 20.7469L13.4299 22.8005C13.46 22.8078 13.4997 22.8195 13.5436 22.8371L13.4271 22.8078L12.71 25.6845C12.6552 25.8198 12.5182 26.0225 12.2073 25.9457C12.2182 25.9618 11.41 25.7459 11.41 25.7459L10.8648 27.0021L12.2929 27.3576C12.558 27.4249 12.8189 27.4952 13.0751 27.5603L12.621 29.3834L13.7169 29.657L14.1669 27.8529C14.4662 27.9341 14.7573 28.0095 15.0408 28.0797L14.5929 29.8758L15.6908 30.1487L16.1449 28.3292C18.0155 28.6833 19.423 28.5399 20.0147 26.8477C20.4928 25.4855 19.9915 24.6997 19.0065 24.1869C19.7237 24.0208 20.2634 23.5504 20.4079 22.5759L20.4086 22.5752ZM17.9011 26.0905C17.562 27.4527 15.2675 26.7168 14.5244 26.5317L15.1271 24.1159C15.8703 24.3018 18.2552 24.669 17.9011 26.0912V26.0905ZM18.2408 22.5554C17.9312 23.7948 16.0216 23.1649 15.4018 23.0112L15.9483 20.8201C16.5682 20.9745 18.5627 21.2634 18.2408 22.5554Z" fill="white"/>
<path d="M30.6445 28V19.4688H33.709C34.8066 19.4688 35.6406 19.6699 36.2109 20.0723C36.7852 20.4746 37.0723 21.0586 37.0723 21.8242C37.0723 22.2656 36.9707 22.6426 36.7676 22.9551C36.5645 23.2676 36.2656 23.498 35.8711 23.6465C36.3164 23.7637 36.6582 23.9824 36.8965 24.3027C37.1348 24.623 37.2539 25.0137 37.2539 25.4746C37.2539 26.3105 36.9883 26.9395 36.457 27.3613C35.9297 27.7793 35.1465 27.9922 34.1074 28H30.6445ZM32.7012 24.373V26.418H34.0488C34.4199 26.418 34.7051 26.334 34.9043 26.166C35.1035 25.9941 35.2031 25.7539 35.2031 25.4453C35.2031 24.7344 34.8496 24.377 34.1426 24.373H32.7012ZM32.7012 23.0254H33.7734C34.2227 23.0215 34.543 22.9395 34.7344 22.7793C34.9258 22.6191 35.0215 22.3828 35.0215 22.0703C35.0215 21.7109 34.918 21.4531 34.7109 21.2969C34.5039 21.1367 34.1699 21.0566 33.709 21.0566H32.7012V23.0254ZM40.3828 28H38.4023V21.6602H40.3828V28ZM38.2852 20.0254C38.2852 19.7441 38.3867 19.5137 38.5898 19.334C38.793 19.1543 39.0566 19.0645 39.3809 19.0645C39.7051 19.0645 39.9688 19.1543 40.1719 19.334C40.375 19.5137 40.4766 19.7441 40.4766 20.0254C40.4766 20.3066 40.375 20.5371 40.1719 20.7168C39.9688 20.8965 39.7051 20.9863 39.3809 20.9863C39.0566 20.9863 38.793 20.8965 38.5898 20.7168C38.3867 20.5371 38.2852 20.3066 38.2852 20.0254ZM43.9043 20.084V21.6602H44.9473V23.0312H43.9043V25.9316C43.9043 26.1699 43.9473 26.3359 44.0332 26.4297C44.1191 26.5234 44.2891 26.5703 44.543 26.5703C44.7383 26.5703 44.9023 26.5586 45.0352 26.5352V27.9473C44.6797 28.0605 44.3086 28.1172 43.9219 28.1172C43.2422 28.1172 42.7402 27.957 42.416 27.6367C42.0918 27.3164 41.9297 26.8301 41.9297 26.1777V23.0312H41.1211V21.6602H41.9297V20.084H43.9043ZM48.4102 26.5938C48.6875 26.5938 48.9023 26.5195 49.0547 26.3711C49.207 26.2188 49.2812 26.0078 49.2773 25.7383H51.1289C51.1289 26.4336 50.8789 27.0039 50.3789 27.4492C49.8828 27.8945 49.2422 28.1172 48.457 28.1172C47.5352 28.1172 46.8086 27.8281 46.2773 27.25C45.7461 26.6719 45.4805 25.8711 45.4805 24.8477V24.7656C45.4805 24.125 45.5977 23.5605 45.832 23.0723C46.0703 22.5801 46.4121 22.2031 46.8574 21.9414C47.3027 21.6758 47.8301 21.543 48.4395 21.543C49.2637 21.543 49.918 21.7715 50.4023 22.2285C50.8867 22.6855 51.1289 23.3047 51.1289 24.0859H49.2773C49.2773 23.7578 49.1973 23.5059 49.0371 23.3301C48.877 23.1543 48.6621 23.0664 48.3926 23.0664C47.8809 23.0664 47.582 23.3926 47.4961 24.0449C47.4688 24.252 47.4551 24.5371 47.4551 24.9004C47.4551 25.5371 47.5312 25.9785 47.6836 26.2246C47.8359 26.4707 48.0781 26.5938 48.4102 26.5938ZM51.7148 24.7715C51.7148 24.1387 51.8379 23.5762 52.084 23.084C52.3301 22.5879 52.6836 22.207 53.1445 21.9414C53.6055 21.6758 54.1465 21.543 54.7676 21.543C55.7168 21.543 56.4648 21.8379 57.0117 22.4277C57.5586 23.0137 57.832 23.8125 57.832 24.8242V24.8945C57.832 25.8828 57.5566 26.668 57.0059 27.25C56.459 27.8281 55.7168 28.1172 54.7793 28.1172C53.877 28.1172 53.1523 27.8477 52.6055 27.3086C52.0586 26.7656 51.7637 26.0312 51.7207 25.1055L51.7148 24.7715ZM53.6895 24.8945C53.6895 25.4805 53.7812 25.9102 53.9648 26.1836C54.1484 26.457 54.4199 26.5938 54.7793 26.5938C55.4824 26.5938 55.8418 26.0527 55.8574 24.9707V24.7715C55.8574 23.6348 55.4941 23.0664 54.7676 23.0664C54.1074 23.0664 53.75 23.5566 53.6953 24.5371L53.6895 24.8945ZM60.7852 28H58.8047V21.6602H60.7852V28ZM58.6875 20.0254C58.6875 19.7441 58.7891 19.5137 58.9922 19.334C59.1953 19.1543 59.459 19.0645 59.7832 19.0645C60.1074 19.0645 60.3711 19.1543 60.5742 19.334C60.7773 19.5137 60.8789 19.7441 60.8789 20.0254C60.8789 20.3066 60.7773 20.5371 60.5742 20.7168C60.3711 20.8965 60.1074 20.9863 59.7832 20.9863C59.459 20.9863 59.1953 20.8965 58.9922 20.7168C58.7891 20.5371 58.6875 20.3066 58.6875 20.0254ZM63.8203 21.6602L63.8848 22.4043C64.3223 21.8301 64.9258 21.543 65.6953 21.543C66.3555 21.543 66.8477 21.7402 67.1719 22.1348C67.5 22.5293 67.6699 23.123 67.6816 23.916V28H65.7012V23.998C65.7012 23.6777 65.6367 23.4434 65.5078 23.2949C65.3789 23.1426 65.1445 23.0664 64.8047 23.0664C64.418 23.0664 64.1309 23.2188 63.9434 23.5234V28H61.9688V21.6602H63.8203Z" fill="#222222"/>
</svg>
