<svg width="75" height="48" viewBox="0 0 75 48" fill="none" xmlns="http://www.w3.org/2000/svg">
<path d="M70.5 0H4.5C2.01472 0 0 2.01472 0 4.5V43.5C0 45.9853 2.01472 48 4.5 48H70.5C72.9853 48 75 45.9853 75 43.5V4.5C75 2.01472 72.9853 0 70.5 0Z" fill="white"/>
<path d="M19.4145 15.2895C18.747 16.083 17.6775 16.7086 16.6095 16.6186C16.476 15.5461 16.9995 14.4075 17.6115 13.704C18.279 12.888 19.449 12.3075 20.3955 12.264C20.5065 13.38 20.0715 14.475 19.4145 15.2895ZM20.3835 16.83C18.8355 16.7415 17.511 17.7135 16.776 17.7135C16.0305 17.7135 14.9055 16.8751 13.6815 16.8976C12.0885 16.9201 10.608 17.8245 9.795 19.2645C8.1255 22.146 9.36148 26.412 10.9755 28.7565C11.766 29.919 12.7125 31.1911 13.959 31.1476C15.1395 31.1026 15.6075 30.3766 17.0325 30.3766C18.468 30.3766 18.8805 31.1475 20.127 31.125C21.4185 31.1025 22.2315 29.9625 23.022 28.8015C23.925 27.4845 24.291 26.2005 24.3135 26.133C24.291 26.1105 21.8205 25.1611 21.798 22.3021C21.7755 19.9126 23.7465 18.7741 23.835 18.7066C22.722 17.0536 20.985 16.875 20.3835 16.83ZM29.325 13.5916V31.002H32.019V25.0501H35.748C39.156 25.0501 41.55 22.704 41.55 19.3095C41.55 15.915 39.1995 13.5916 35.838 13.5916H29.325ZM32.019 15.87H35.1255C37.464 15.87 38.799 17.1211 38.799 19.3216C38.799 21.5206 37.464 22.782 35.1135 22.782H32.019V15.87ZM46.4715 31.1355C48.1635 31.1355 49.7325 30.276 50.445 28.914H50.502V31.002H52.995V22.3365C52.995 19.824 50.991 18.204 47.907 18.204C45.045 18.204 42.93 19.8466 42.852 22.1011H45.279C45.48 21.0301 46.4715 20.3265 47.829 20.3265C49.4775 20.3265 50.4015 21.0961 50.4015 22.5151V23.475L47.0385 23.676C43.9095 23.8665 42.2175 25.1506 42.2175 27.3841C42.2175 29.6401 43.965 31.1355 46.4715 31.1355ZM47.1945 29.0701C45.7575 29.0701 44.8455 28.377 44.8455 27.3165C44.8455 26.2215 45.7245 25.5855 47.406 25.485L50.4015 25.2961V26.2786C50.4015 27.9091 49.02 29.0701 47.1945 29.0701ZM56.325 35.7361C58.9515 35.7361 60.1875 34.7311 61.2675 31.6831L66 18.372H63.261L60.0885 28.6561H60.0315L56.859 18.372H54.042L58.6065 31.047L58.362 31.8165C57.9495 33.123 57.282 33.6255 56.091 33.6255C55.8795 33.6255 55.467 33.603 55.3005 33.582V35.67C55.4565 35.7135 56.124 35.7361 56.325 35.7361Z" fill="#888888"/>
</svg>
