<svg width="260" height="80" viewBox="0 0 260 80" fill="none" xmlns="http://www.w3.org/2000/svg">
<path fill-rule="evenodd" clip-rule="evenodd" d="M209.368 33.6596C209.281 26.7035 203.914 21.0255 197.092 20.4108C196.828 20.3718 196.554 20.3523 196.29 20.3523H166.175C163.008 20.3523 160.408 22.9474 160.408 26.1084V53.6206C160.408 56.7816 163.008 59.3767 166.175 59.3767H194.834C194.971 59.3767 195.108 59.3669 195.244 59.3669C195.45 59.3669 195.655 59.3767 195.86 59.3767C203.318 59.3767 209.378 53.3377 209.378 45.884C209.378 45.6889 209.368 45.4938 209.359 45.2986C209.368 45.1718 209.378 45.045 209.378 44.9181V33.8157C209.378 33.7669 209.368 33.7084 209.368 33.6596ZM128.847 22.8986L109.542 50.4206C107.714 53.0157 108.359 56.6255 110.95 58.4401C113.55 60.2547 117.166 59.6206 118.994 57.0255L121.584 53.3181H145.629L148.229 57.0255C150.047 59.6206 153.664 60.2547 156.264 58.4401C158.864 56.6255 159.499 53.0157 157.681 50.4206L138.377 22.8986C137.233 21.2694 135.386 20.4206 133.529 20.4499C131.73 20.4694 129.951 21.3181 128.847 22.8986ZM128.778 43.0742L133.607 36.1864L138.445 43.0742H128.778ZM229.582 22.8011L210.278 50.323C208.459 52.9181 209.095 56.5279 211.695 58.3425C214.295 60.1572 217.911 59.523 219.729 56.9279L222.329 53.2206H246.375L248.965 56.9279C250.793 59.523 254.409 60.1572 257.009 58.3425C259.609 56.5279 260.244 52.9181 258.426 50.323L239.122 22.8011C237.978 21.1718 236.131 20.323 234.274 20.3523C232.465 20.3718 230.696 21.2206 229.582 22.8011ZM229.514 42.9767L234.352 36.0889L239.19 42.9767H229.514ZM56.5745 22.8011L37.27 50.323C35.452 52.9181 36.0873 56.5279 38.6873 58.3425C41.2873 60.1572 44.9038 59.523 46.7219 56.9279L49.3219 53.2206H73.3572L75.9572 56.9279C77.7753 59.523 81.3918 60.1572 83.9918 58.3425C86.5918 56.5279 87.2369 52.9181 85.4091 50.323L66.1046 22.8011C64.9708 21.1718 63.1234 20.323 61.2662 20.3523C59.458 20.3718 57.6888 21.2206 56.5745 22.8011ZM56.5061 42.9767L61.3444 36.0889L66.173 42.9767H56.5061ZM102.27 57.0255L121.575 29.5035C123.393 26.9084 122.757 23.2986 120.157 21.484C117.557 19.6694 113.941 20.3035 112.123 22.8986L97.5001 43.7377L82.8873 22.8986C81.0693 20.3035 77.4527 19.6694 74.8527 21.484C72.2527 23.2986 71.6174 26.9084 73.4354 29.5035L92.7399 57.0255C93.8835 58.6547 95.7211 59.5035 97.5783 59.4742C99.3865 59.4547 101.165 58.6059 102.27 57.0255ZM30.0076 56.9279L49.3121 29.406C51.1302 26.8108 50.4948 23.2011 47.8948 21.3864C45.2948 19.5718 41.6783 20.206 39.8602 22.8011L25.2377 43.6401L10.6249 22.8011C8.79707 20.206 5.18053 19.5718 2.58053 21.3864C-0.0194677 23.2011 -0.654806 26.8108 1.16324 29.406L20.4677 56.9279C21.6114 58.5572 23.4587 59.4059 25.3159 59.3767C27.1241 59.3572 28.8933 58.5084 30.0076 56.9279ZM196.026 30.1084H170.183V49.6206H194.697L195.117 49.5913L195.675 49.6206H195.86C197.923 49.6206 199.604 47.9523 199.604 45.884C199.604 45.8255 199.594 45.7767 199.594 45.7181L199.575 45.1816L199.604 44.7816V33.8742C199.594 33.845 199.594 33.8157 199.594 33.7962C199.575 31.8938 198.108 30.2938 196.212 30.1279L196.026 30.1084Z" fill="#FE284A"/>
</svg>
