<svg width="260" height="80" viewBox="0 0 260 80" fill="none" xmlns="http://www.w3.org/2000/svg">
<path d="M2.45822 55.7175C2.08004 55.7175 1.7964 55.6234 1.60731 55.3411C1.32367 55.0587 1.22913 54.7764 1.22913 54.494V25.1293C1.22913 24.7528 1.32367 24.4705 1.60731 24.2822C1.89094 24.094 2.17458 23.9058 2.45822 23.9058H17.1128C19.1928 23.9058 20.8946 24.1881 22.3128 24.7528C23.7309 25.3175 24.8655 26.0705 25.6219 26.9175C26.4728 27.7646 27.04 28.7999 27.4182 29.9293C27.7964 31.0587 27.9855 32.1881 27.9855 33.3175C27.9855 34.1646 27.8909 34.9175 27.7019 35.5764C27.5128 36.2352 27.2291 36.7999 27.04 37.2705C26.7564 37.7411 26.4728 38.1175 26.1891 38.3999C25.9055 38.6822 25.6219 38.8705 25.5273 39.0587C26.7564 39.9058 27.5128 40.8469 27.9855 41.8822C28.4582 42.9175 28.6473 44.2352 28.6473 45.7411C28.6473 46.9646 28.4582 48.1881 28.08 49.4116C27.7019 50.6352 27.1346 51.6705 26.2837 52.6116C25.4328 53.5528 24.3928 54.3058 22.9746 54.8705C21.6509 55.4352 19.9491 55.7175 18.0582 55.7175H2.45822V55.7175ZM19.5709 33.5999C19.5709 32.8469 19.3819 32.1881 18.9091 31.7175C18.4364 31.2469 17.7746 31.0587 16.8291 31.0587H9.73822V36.2352H16.8291C17.7746 36.2352 18.4364 36.0469 18.9091 35.5764C19.3819 35.1058 19.5709 34.3528 19.5709 33.5999ZM9.64367 48.7528H17.2073C18.1528 48.7528 18.8146 48.4705 19.3819 47.9999C19.9491 47.5293 20.2328 46.7764 20.2328 46.0234C20.2328 45.2705 19.9491 44.6116 19.3819 44.0469C18.8146 43.4822 18.0582 43.294 17.2073 43.294H9.64367V48.7528ZM59.6582 48.4705C60.0364 48.4705 60.32 48.5646 60.5091 48.8469C60.7928 49.1293 60.8873 49.4116 60.8873 49.694V54.494C60.8873 54.8705 60.7928 55.1528 60.5091 55.3411C60.2255 55.6234 59.9419 55.7175 59.6582 55.7175H38.0073C37.6291 55.7175 37.3455 55.6234 37.1564 55.3411C36.8728 55.0587 36.7782 54.7764 36.7782 54.494V25.1293C36.7782 24.7528 36.8728 24.4705 37.1564 24.2822C37.44 23.9999 37.7237 23.9058 38.0073 23.9058H59.28C59.6582 23.9058 59.9419 23.9999 60.1309 24.2822C60.4146 24.5646 60.5091 24.8469 60.5091 25.1293V29.9293C60.5091 30.3058 60.4146 30.5881 60.1309 30.7764C59.8473 30.9646 59.5637 31.1528 59.28 31.1528H45.1928V36.0469H58.24C58.6182 36.0469 58.9019 36.1411 59.0909 36.4234C59.3746 36.7058 59.4691 36.9881 59.4691 37.2705V42.0705C59.4691 42.4469 59.3746 42.7293 59.0909 42.9175C58.8073 43.1999 58.5237 43.294 58.24 43.294H45.1928V48.3764H59.6582V48.4705ZM92.56 23.9058C92.9382 23.9058 93.2219 23.9999 93.4109 24.2822C93.6946 24.5646 93.7891 24.8469 93.7891 25.1293V29.9293C93.7891 30.3058 93.6946 30.5881 93.4109 30.7764C93.1273 31.0587 92.8437 31.1528 92.56 31.1528H84.5237V54.494C84.5237 54.8705 84.4291 55.1528 84.1455 55.3411C83.8619 55.6234 83.5782 55.7175 83.2946 55.7175H77.3382C76.96 55.7175 76.6764 55.6234 76.4873 55.3411C76.2037 55.0587 76.1091 54.7764 76.1091 54.494V31.2469H68.0728C67.6946 31.2469 67.4109 31.1528 67.2219 30.8705C67.0328 30.5881 66.8437 30.3058 66.8437 30.0234V25.1293C66.8437 24.7528 66.9382 24.4705 67.2219 24.2822C67.5055 23.9999 67.7891 23.9058 68.0728 23.9058H92.56V23.9058Z" fill="#222222"/>
<path d="M171.127 23.9056C171.695 23.9056 172.167 24.0939 172.545 24.3762C172.924 24.6586 173.113 25.0351 173.207 25.4115L183.135 54.0233C183.229 54.3056 183.324 54.588 183.324 54.6821C183.324 54.9645 183.229 55.1527 183.04 55.3409C182.851 55.5292 182.567 55.6233 182.378 55.6233H176.611C176.044 55.6233 175.571 55.5292 175.287 55.2468C175.004 54.9645 174.909 54.7762 174.815 54.4939L173.491 50.7292H161.389L160.065 54.4939C159.971 54.7762 159.876 54.9645 159.593 55.2468C159.309 55.5292 158.931 55.6233 158.269 55.6233H152.502C152.218 55.6233 152.029 55.5292 151.84 55.3409C151.651 55.1527 151.556 54.8703 151.556 54.6821C151.556 54.4939 151.651 54.3056 151.745 54.0233L161.673 25.4115C161.767 25.0351 162.051 24.7527 162.335 24.3762C162.618 23.9998 163.091 23.9056 163.753 23.9056H171.127ZM163.753 43.7645H171.127L167.44 32.8468L163.753 43.7645ZM203.367 47.7174C203.084 47.4351 202.895 47.2468 202.705 46.9645L198.451 39.4351V54.4939C198.451 54.8704 198.356 55.1527 198.073 55.3409C197.789 55.6233 197.505 55.7174 197.222 55.7174H191.265C190.887 55.7174 190.604 55.6233 190.415 55.3409C190.131 55.0586 190.036 54.7762 190.036 54.4939V25.1292C190.036 24.7527 190.131 24.4704 190.415 24.2821C190.698 23.9998 190.982 23.9056 191.265 23.9056H196.56C197.127 23.9056 197.6 24.0939 197.884 24.3762C198.167 24.7527 198.356 24.9409 198.451 25.1292L205.825 37.7409L213.2 25.1292C213.295 24.9409 213.484 24.7527 213.767 24.3762C214.051 23.9998 214.524 23.9056 215.091 23.9056H220.385C220.764 23.9056 221.047 23.9998 221.236 24.2821C221.52 24.5645 221.615 24.8468 221.615 25.1292V54.4939C221.615 54.8704 221.52 55.1527 221.236 55.3409C220.953 55.6233 220.669 55.7174 220.385 55.7174H214.618C214.24 55.7174 213.956 55.6233 213.767 55.3409C213.484 55.0586 213.389 54.7762 213.389 54.4939V39.5292L209.135 47.0586C208.945 47.3409 208.756 47.5292 208.473 47.8115C208.189 48.0939 207.811 48.188 207.433 48.188H204.502C204.029 48.0939 203.651 47.9998 203.367 47.7174V47.7174ZM230.124 35.7645C230.218 34.0704 230.596 32.4704 231.258 30.9645C231.92 29.4586 232.865 28.1409 234 27.0115C235.229 25.8821 236.647 25.0351 238.349 24.3762C240.051 23.7174 242.036 23.4351 244.305 23.4351C246.48 23.4351 248.465 23.7174 250.262 24.3762C251.964 25.0351 253.476 25.8821 254.705 27.0115C255.935 28.1409 256.88 29.4586 257.447 30.9645C258.109 32.4704 258.487 34.0704 258.582 35.7645C258.676 37.0821 258.676 38.3998 258.676 39.8115C258.676 41.2233 258.676 42.5409 258.582 43.7645C258.487 45.4586 258.109 47.0586 257.447 48.5645C256.785 50.0704 255.84 51.388 254.705 52.5174C253.571 53.6468 252.058 54.4939 250.262 55.1527C248.56 55.8115 246.575 56.0939 244.305 56.0939C242.036 56.0939 240.051 55.8115 238.349 55.1527C236.647 54.4939 235.135 53.6468 234 52.5174C232.771 51.388 231.825 50.0704 231.258 48.5645C230.596 47.0586 230.218 45.4586 230.124 43.7645C230.029 42.5409 230.029 41.2233 230.029 39.8115C230.029 38.4939 230.124 37.0821 230.124 35.7645V35.7645ZM250.167 43.6704C250.167 43.1056 250.262 42.5409 250.262 41.8821V39.8115V37.8351C250.262 37.1762 250.167 36.6115 250.167 36.0468C250.073 35.2939 249.978 34.6351 249.695 33.9762C249.411 33.3174 249.033 32.7527 248.56 32.2821C248.087 31.8115 247.52 31.4351 246.764 31.1527C246.102 30.8704 245.251 30.7762 244.305 30.7762C243.36 30.7762 242.509 30.8704 241.847 31.1527C241.185 31.4351 240.524 31.8115 240.051 32.2821C239.578 32.7527 239.2 33.3174 238.916 33.9762C238.633 34.6351 238.538 35.2939 238.444 36.0468C238.349 36.5174 238.349 37.1762 238.349 37.8351V41.8821C238.349 42.5409 238.444 43.1998 238.444 43.6704C238.538 45.1762 239.105 46.3998 240.051 47.4351C240.996 48.4704 242.415 48.9409 244.305 48.9409C246.196 48.9409 247.615 48.4704 248.465 47.4351C249.505 46.3998 250.073 45.1762 250.167 43.6704Z" fill="#222222"/>
<path d="M144.749 35.7649L128.866 19.0119C127.636 17.6943 125.935 16.9413 124.044 16.8472C122.247 16.7531 120.451 17.4119 119.127 18.7296L102.204 34.5413C100.88 35.7649 100.124 37.459 100.029 39.3413C99.9346 41.2237 100.596 42.9178 101.92 44.2355L117.804 61.0825C119.033 62.4002 120.735 63.1531 122.626 63.2472C123.476 63.2472 124.327 63.1531 125.084 62.8708C125.935 62.5884 126.786 62.0237 127.542 61.3649L144.466 45.5531C147.207 42.9178 147.396 38.5884 144.749 35.7649V35.7649ZM126.786 39.5296C126.975 41.1296 126.029 42.7296 124.516 43.2943C123.193 43.7649 121.586 43.2943 120.64 42.259C119.695 41.1296 119.6 39.5296 120.356 38.3061C121.113 36.9884 122.626 36.3296 124.138 36.7061C125.462 36.9884 126.596 38.1178 126.786 39.5296V39.5296ZM126.786 25.7884C126.975 27.3884 126.029 28.9884 124.516 29.5531C123.193 30.0237 121.586 29.5531 120.64 28.5178C119.695 27.3884 119.6 25.7884 120.356 24.5649C121.113 23.2472 122.626 22.5884 124.138 22.9649C125.462 23.2472 126.596 24.3766 126.786 25.7884V25.7884ZM126.786 52.8943C126.975 54.4943 126.029 56.0943 124.516 56.659C123.193 57.1296 121.586 56.659 120.64 55.6237C119.695 54.4943 119.6 52.8943 120.356 51.6708C121.113 50.3531 122.626 49.6943 124.138 50.0708C125.462 50.3531 126.596 51.4825 126.786 52.8943V52.8943Z" fill="#E3161B"/>
</svg>
