<svg width="260" height="80" viewBox="0 0 260 80" fill="none" xmlns="http://www.w3.org/2000/svg">
<g clip-path="url(#clip0)">
<rect width="260" height="80" fill="white"/>
<path d="M31.6762 79.1266L40.5227 47.2809H17.6274L30.896 0.816406H181.014L172.168 32.1405H241.373L228.365 79.1266H31.6762Z" fill="#222222"/>
<path d="M31.2845 79.0172L31.1405 79.5347H31.6759H228.365H228.674L228.756 79.236L241.765 32.2498L241.908 31.7323H241.373H172.706L181.405 0.927632L181.551 0.408203H181.014H30.8956H30.5889L30.5044 0.703956L17.2361 47.1682L17.0874 47.689H17.6272H39.9862L31.2845 79.0172Z" stroke="white" stroke-opacity="0.5"/>
<path d="M82.4092 17.7837L80.5884 23.7877H71.4823L73.3032 17.7837H82.4092ZM67.5795 38.1445L69.6614 30.5747H79.5477C84.7508 30.5747 87.8727 28.2253 89.434 23.2653L90.2143 20.3943C92.036 14.129 89.1737 9.95264 82.4092 9.95264H39.7414L31.6768 37.8832H67.5795V38.1445Z" fill="#F8FF13"/>
<path d="M105.305 17.7835H108.687V26.6586H100.361L105.305 17.7835ZM93.857 38.1443L96.459 33.4455H108.687V38.1443H116.751V10.2129H101.141L84.751 38.1443H93.857Z" fill="#F8FF13"/>
<path d="M133.142 17.7835H141.988L140.427 23.7868H131.321L133.142 17.7835ZM149.272 23.2651L150.053 20.6545C151.874 14.1288 149.012 10.2129 142.248 10.2129H127.158L119.093 38.1443H127.419L129.5 30.5737H134.703L137.044 38.1443H145.63L143.029 30.0521C146.151 29.008 148.232 26.9198 149.272 23.2651Z" fill="#F8FF13"/>
<path d="M157.078 38.1443L165.143 10.2129H156.818L148.752 38.1443H157.078Z" fill="#F8FF13"/>
<path d="M105.044 42.0596L95.4173 53.2841L91.7747 42.0596H55.6117L47.8066 69.9911H83.7101L88.1329 54.5894L90.9944 63.2041H96.1983L104.003 54.0678L99.5797 69.9911H107.906L115.711 42.0596H105.044Z" fill="#F8FF13"/>
<path d="M126.118 58.5054L131.061 49.6303H134.444V58.5054H126.118ZM126.899 42.0596L110.508 69.9911H119.874L122.476 65.2923H134.704V69.9911H142.769V42.0596H126.899Z" fill="#F8FF13"/>
<path d="M170.867 50.1519L172.948 42.0596H147.712L145.371 50.1519H154.477L149.013 69.9911H157.338L162.802 50.1519H170.867Z" fill="#F8FF13"/>
<path d="M181.794 50.1519H194.542L196.884 42.0596H183.355C178.152 42.0596 175.029 44.409 173.469 49.369L170.606 59.5494C168.785 66.0752 171.647 69.9911 178.411 69.9911H188.818L191.16 61.8988H178.411L181.794 50.1519Z" fill="#F8FF13"/>
<path d="M218.218 42.0596L215.356 52.2401H205.99L208.852 42.0596H200.527L192.461 69.9911H200.786L203.649 60.0711H213.275L210.413 69.9911H218.738L226.543 42.0596H218.218Z" fill="#F8FF13"/>
</g>
<defs>
<clipPath id="clip0">
<rect width="260" height="80" fill="white"/>
</clipPath>
</defs>
</svg>
