<svg width="260" height="80" viewBox="0 0 260 80" fill="none" xmlns="http://www.w3.org/2000/svg">
<rect width="260" height="80" fill="white"/>
<path d="M194.572 51.1806C197.104 51.1806 199.157 49.1372 199.157 46.6164C199.157 44.0956 197.104 42.0522 194.572 42.0522C192.041 42.0522 189.988 44.0956 189.988 46.6164C189.988 49.1372 192.041 51.1806 194.572 51.1806Z" fill="#FF2400"/>
<path d="M49.9418 23.1363C49.9418 24.7638 49.2783 26.3246 48.0974 27.4754C46.9165 28.6262 45.3148 29.2726 43.6448 29.2726C41.9746 29.2726 40.373 28.6262 39.1921 27.4754C38.0111 26.3246 37.3477 24.7638 37.3477 23.1363C37.3477 21.5088 38.0111 19.9481 39.1921 18.7973C40.373 17.6465 41.9746 17 43.6448 17C45.3148 17 46.9165 17.6465 48.0974 18.7973C49.2783 19.9481 49.9418 21.5088 49.9418 23.1363ZM49.9418 32.924H37.3477V62.4391H49.9418V32.924ZM111.099 45.3995V32.924H91.0486V45.3995H111.099Z" fill="#FF2400"/>
<path fill-rule="evenodd" clip-rule="evenodd" d="M16.9768 51.1703C26.3529 51.1703 33.9537 43.5209 33.9537 34.0851C33.9537 24.6494 26.3529 17 16.9768 17C7.60079 17 0 24.6494 0 34.0851V62.4391H12.2811V50.5083H12.2813V34.1151L12.2811 34.0851C12.2811 31.4752 14.3835 29.3595 16.9768 29.3595C19.5702 29.3595 21.6726 31.4752 21.6726 34.0851C21.6726 36.695 19.5702 38.8108 16.9768 38.8108C16.604 38.8108 16.2412 38.767 15.8933 38.6844V51.1361C16.2516 51.1588 16.6129 51.1703 16.9768 51.1703ZM169.315 51.1703C178.691 51.1703 186.292 43.5209 186.292 34.0851C186.292 24.6494 178.691 17 169.315 17C159.939 17 152.339 24.6494 152.339 34.0851V62.4391H164.619V34.0851C164.619 31.4752 166.721 29.3595 169.315 29.3595C171.909 29.3595 174.011 31.4752 174.011 34.0851C174.011 36.695 171.909 38.8108 169.315 38.8108C168.942 38.8108 168.579 38.767 168.231 38.6843V51.136C168.59 51.1587 168.952 51.1703 169.315 51.1703ZM87.3524 34.0851V62.4391H75.0716V34.4483H75.0716C75.0715 33.8277 74.9499 33.2133 74.714 32.64C74.478 32.0667 74.1321 31.5458 73.6962 31.1071C72.8154 30.2209 71.6211 29.723 70.3758 29.723C69.1305 29.723 67.9362 30.2209 67.0554 31.1071C66.6194 31.5459 66.2735 32.0669 66.0376 32.6402C65.8016 33.2136 65.68 33.8281 65.68 34.4488L65.6803 34.485V50.5083H65.6801V62.4391H53.399V34.0851C53.399 24.6493 60.9998 17 70.3758 17C79.7519 17 87.3524 24.6493 87.3524 34.0851ZM114.858 45.354V17H127.139V44.9906C127.139 45.6112 127.26 46.2257 127.496 46.7991C127.733 47.3725 128.078 47.8935 128.514 48.3323C129.395 49.2184 130.589 49.7163 131.835 49.7163C133.08 49.7163 134.274 49.2183 135.155 48.3323C135.591 47.8935 135.937 47.3726 136.173 46.7992C136.409 46.2259 136.53 45.6114 136.53 44.9908H136.531V17H148.812V45.354C148.812 54.7898 141.211 62.4391 131.835 62.4391C122.459 62.4391 114.858 54.7898 114.858 45.354ZM233.646 38.3288V17H242.866V38.0555C242.866 38.9982 243.237 39.9023 243.898 40.5688C244.226 40.8989 244.614 41.1606 245.042 41.3393C245.47 41.518 245.928 41.6099 246.391 41.61C247.326 41.61 248.222 41.2355 248.883 40.5688C249.545 39.9016 249.916 38.9976 249.916 38.0551V17H259.136V38.3288C259.136 45.4268 253.429 51.1808 246.391 51.1808C239.352 51.1808 233.646 45.4268 233.646 38.3288ZM211.719 51.1808V23.9089H214.6C215.652 23.9089 216.66 24.3302 217.402 25.0804C218.146 25.8312 218.563 26.8484 218.563 27.9088C218.563 28.9696 218.146 29.9869 217.402 30.7371C213.521 33.9085 213.521 32.5554 213.521 37.2579V39.6305L221.225 51.1808H231.53L222.032 36.7439C225.516 35.087 227.928 31.5095 227.928 27.3634C227.928 21.6399 223.332 17 217.662 17H202.715V51.1808H211.719Z" fill="#FF2400"/>
</svg>
