<svg width="260" height="80" viewBox="0 0 260 80" fill="none" xmlns="http://www.w3.org/2000/svg">
<g clip-path="url(#clip0)">
<path d="M118.996 24.7183L118.528 27.1966H127.318L126.314 32.2468H117.487L116.955 34.9684H127.378L126.314 40.2694H108.981L113.141 19.4697H130.496L129.433 24.7183H118.996Z" fill="#222222"/>
<path d="M159.105 19.4844L154.998 40.2803H148.608L150.453 30.7977L144.598 38.3972H141.514L138.309 30.9699L136.426 40.329H130.039L134.198 19.533H139.908L144.4 30.5244L153.066 19.4844H159.105Z" fill="#222222"/>
<path d="M183.817 19.4844L179.658 40.2803H172.762L175.768 24.9164H169.43L166.435 40.2803H159.539L163.698 19.4844H183.817Z" fill="#222222"/>
<path d="M188.384 19.4844H195.28L193.053 30.2885L202.348 19.4844H209.034L204.875 40.2803H197.979L200.244 29.4874L190.945 40.2803H184.225L188.384 19.4844Z" fill="#222222"/>
<path d="M221.523 35.1446C222.552 35.1633 223.559 34.86 224.405 34.2798C225.24 33.6995 225.895 32.8984 226.3 31.9662C226.745 30.9666 226.97 29.881 226.955 28.7841C227 28.2375 226.921 27.691 226.734 27.1781C226.543 26.6652 226.247 26.201 225.858 25.8117C225.472 25.4261 225.004 25.1266 224.492 24.9394C223.979 24.7522 223.428 24.6773 222.886 24.7223C221.852 24.6998 220.834 24.9993 219.977 25.5758C219.157 26.1673 218.513 26.9647 218.109 27.8894C217.667 28.8777 217.442 29.9521 217.439 31.034C217.386 31.5806 217.457 32.1309 217.641 32.6475C217.828 33.1642 218.127 33.6321 218.517 34.0215C218.906 34.4071 219.378 34.7028 219.894 34.8862C220.411 35.0697 220.965 35.1371 221.512 35.0809L221.523 35.1446ZM220.931 40.8124C219.007 40.8573 217.094 40.4568 215.35 39.6481C213.826 38.9219 212.538 37.7801 211.636 36.3537C210.782 34.8862 210.352 33.2091 210.397 31.5132C210.359 29.2521 210.932 27.0246 212.055 25.0629C213.167 23.1799 214.784 21.645 216.724 20.6305C218.82 19.5635 221.145 19.0244 223.496 19.0581C225.42 19.0282 227.325 19.4512 229.055 20.2973C230.586 20.9973 231.878 22.1354 232.769 23.5655C233.648 25.0255 234.101 26.7026 234.068 28.406C234.06 30.6522 233.45 32.8534 232.297 34.7814C231.185 36.657 229.568 38.1806 227.629 39.1764C225.562 40.2658 223.264 40.8274 220.931 40.8124Z" fill="#222222"/>
<path d="M260 19.4844L255.815 40.2803H248.795L250.345 32.6058H243.869L242.323 40.2803H235.314L239.474 19.4844H246.482L244.996 26.8481H251.472L252.954 19.4844H260Z" fill="#222222"/>
<path d="M92.3223 55.5435L95.7515 61.7842H91.6297L89.3836 57.0597H87.3545L86.4036 61.7842H82.791L85.2843 49.3403H88.8931L87.931 54.1696H89.7542L94.1342 49.3403H98.1025L92.3223 55.5435Z" fill="#E91E63"/>
<path d="M120.662 58.9835C121.324 58.9985 121.979 58.8188 122.545 58.4706C123.11 58.1225 123.563 57.6171 123.848 57.0181C124.166 56.3555 124.327 55.6217 124.312 54.8842C124.33 54.5173 124.274 54.1467 124.143 53.8023C124.012 53.4579 123.814 53.1434 123.556 52.8814C123.279 52.6231 122.949 52.4246 122.59 52.2974C122.23 52.1701 121.852 52.1139 121.474 52.1364C120.808 52.1252 120.156 52.3048 119.587 52.653C119.022 53.0012 118.565 53.5028 118.273 54.1018C117.955 54.7644 117.794 55.4982 117.809 56.2357C117.79 56.6025 117.846 56.9694 117.974 57.3138C118.101 57.6583 118.299 57.9727 118.554 58.2385C118.839 58.4968 119.172 58.6952 119.531 58.8225C119.894 58.9536 120.28 59.006 120.662 58.9835ZM129.062 49.3399L126.595 61.7875H123.23L123.462 60.5034C122.586 61.2521 121.508 61.7238 120.366 61.8586C119.22 61.9896 118.064 61.78 117.042 61.2484C116.222 60.7992 115.54 60.1328 115.076 59.3204C114.545 58.4332 114.256 57.4261 114.241 56.3929C114.219 55.1013 114.53 53.8285 115.14 52.6942C115.724 51.631 116.585 50.7437 117.633 50.126C118.678 49.4896 119.879 49.1602 121.1 49.1752C121.878 49.0965 122.668 49.2313 123.38 49.5608C124.091 49.8902 124.701 50.4068 125.147 51.0507L125.48 49.3549L129.062 49.3399Z" fill="#E91E63"/>
<path d="M156.519 55.4011C157.084 55.5958 157.585 55.9477 157.956 56.4156C158.304 56.8461 158.491 57.389 158.484 57.943C158.499 58.7142 158.214 59.4592 157.687 60.0245C157.028 60.6983 156.212 61.2 155.309 61.477C154.209 61.8514 153.056 62.0311 151.891 62.0161C150.098 62.0311 148.331 61.5893 146.755 60.732L147.949 58.3062C148.53 58.6169 149.147 58.849 149.787 58.9987C150.514 59.1522 151.255 59.2308 151.996 59.2308C152.76 59.2683 153.524 59.1223 154.22 58.8078C154.463 58.718 154.669 58.557 154.819 58.3473C154.969 58.1377 155.051 57.8869 155.055 57.6286C155.055 56.9098 154.478 56.5504 153.321 56.5504H150.753L151.101 54.3042H153.235C153.786 54.3342 154.332 54.2219 154.826 53.9823C155.006 53.8962 155.156 53.7614 155.264 53.5929C155.369 53.4245 155.429 53.2298 155.429 53.0314C155.429 52.2602 154.737 51.8746 153.363 51.8746C152.779 51.8783 152.195 51.9532 151.629 52.1067C150.944 52.2939 150.274 52.5335 149.627 52.8255L148.855 50.1151C150.39 49.4599 152.041 49.1155 153.711 49.1006C154.624 49.0781 155.538 49.2129 156.41 49.4974C157.125 49.7183 157.773 50.1226 158.286 50.6654C158.716 51.1483 158.956 51.7773 158.956 52.4249C158.956 53.0726 158.716 53.7015 158.286 54.1844C157.814 54.7422 157.207 55.1653 156.519 55.4011Z" fill="#E91E63"/>
<path d="M178.774 49.3403H182.387L180.829 56.9062L188.347 49.3403H191.761L189.282 61.7842H185.662L187.227 54.1958L179.714 61.7842H176.348L178.774 49.3403Z" fill="#E91E63"/>
<path d="M210.221 49.3403H213.807L212.83 54.1958H218.236L219.213 49.3403H222.796L220.317 61.7842H216.709L217.633 57.1346H212.254L211.329 61.7842H207.716L210.221 49.3403Z" fill="#E91E63"/>
<path d="M246.074 58.9833C246.736 58.9946 247.384 58.8149 247.949 58.4704C248.503 58.1148 248.949 57.6131 249.233 57.0179C249.551 56.3553 249.712 55.6215 249.697 54.884C249.716 54.5172 249.664 54.1503 249.536 53.8059C249.409 53.4614 249.214 53.147 248.964 52.8774C248.687 52.6191 248.357 52.4207 247.998 52.2934C247.638 52.1662 247.26 52.11 246.882 52.1325C246.216 52.1212 245.564 52.3009 244.995 52.6491C244.43 52.9972 243.973 53.4989 243.681 54.0979C243.363 54.7605 243.202 55.4943 243.217 56.2317C243.198 56.5986 243.255 56.9655 243.386 57.3099C243.513 57.6543 243.711 57.9688 243.962 58.2346C244.247 58.4929 244.58 58.6913 244.939 58.8186C245.306 58.9534 245.692 59.0058 246.074 58.9833ZM245.841 61.9633C244.7 61.9857 243.565 61.7499 242.528 61.2707C241.63 60.8439 240.866 60.1701 240.331 59.3315C239.814 58.4368 239.552 57.4222 239.575 56.389C239.552 55.1087 239.878 53.847 240.522 52.7389C241.166 51.6308 242.098 50.7211 243.221 50.1072C244.4 49.4595 245.729 49.1301 247.073 49.1563C248.211 49.1301 249.342 49.3659 250.375 49.8488C251.277 50.2756 252.037 50.9607 252.558 51.8143C253.089 52.694 253.362 53.7048 253.34 54.7305C253.359 56.0296 253.022 57.3099 252.363 58.4293C251.726 59.5187 250.794 60.4096 249.679 60.9974C248.507 61.6451 247.185 61.9782 245.841 61.9633Z" fill="#E91E63"/>
<path d="M108.615 19.4808L104.455 40.2767H97.5596L98.5928 34.987C97.4809 35.2902 96.3316 35.4512 95.1749 35.4587C92.9811 35.6121 90.7985 35.0169 88.9866 33.774C88.2791 33.1825 87.7175 32.4338 87.3506 31.584C86.9838 30.7342 86.819 29.817 86.8677 28.8961C86.9089 28.1548 87.01 27.4173 87.1784 26.691L88.6946 19.4771H95.5904L94.1603 26.4589C94.0705 26.9119 94.0218 27.3724 94.0106 27.8329C93.9844 28.1249 94.0218 28.4169 94.1154 28.6901C94.209 28.9634 94.3662 29.218 94.5646 29.4276C95.1 29.7908 95.7401 29.9592 96.3841 29.9106C97.5783 29.9405 98.7613 29.7009 99.8507 29.218L101.827 19.4771H108.615V19.4808V19.4808Z" fill="#222222"/>
<path d="M33.1016 29.4128C35.6285 29.4765 38.1592 29.4839 40.6824 29.615C49.2179 30.053 57.6561 31.1985 65.9894 33.1115C66.2365 33.1677 66.5023 33.2126 66.5959 33.5046C66.7007 33.8266 66.4686 34.0063 66.2702 34.186C63.5935 36.6044 60.9393 39.0452 58.1952 41.385C54.5638 44.4885 50.8314 47.4609 46.9905 50.3023C40.63 55.0118 34.0113 59.3208 27.1417 63.2516C23.3194 65.4379 19.4335 67.4969 15.4727 69.4248C13.1592 70.5517 10.8194 71.6261 8.4684 72.6781C7.67475 73.0337 6.95223 72.9738 6.29335 72.4085C5.62323 71.8358 5.50344 71.087 5.74677 70.2821C6.2896 68.4927 6.85489 66.707 7.40895 64.9212C9.00748 59.7887 10.606 54.6599 12.212 49.5311C12.3056 49.2354 12.2495 49.022 12.0473 48.7974C9.98083 46.4913 7.91434 44.1852 5.85534 41.8717C4.0846 39.8838 2.30262 37.9034 0.565575 35.8856C-0.542542 34.5978 0.0489535 32.9955 1.71862 32.6586C3.85998 32.2243 6.00883 31.835 8.16517 31.4793C11.8714 30.8691 15.5963 30.4086 19.3362 30.068C21.2567 29.892 23.1809 29.7647 25.1089 29.6674C27.2615 29.5588 29.4141 29.4952 31.5667 29.4802C32.0833 29.4727 32.5924 29.4016 33.1016 29.4128Z" fill="url(#paint0_linear)"/>
<path d="M35.4526 65.9019C36.6955 66.6619 38.0732 67.478 39.0615 67.9871C42.2698 69.6493 45.5343 71.1729 48.7575 72.8089C50.371 73.6288 51.8049 72.734 51.8086 70.9184C51.8123 69.2113 51.8947 66.0217 51.876 65.2056C51.876 61.0539 51.9172 56.9097 51.9209 52.7617L35.4526 65.9019Z" fill="url(#paint1_linear)"/>
<path d="M51.921 51.5378C51.921 51.4255 51.9359 51.2982 51.9247 51.2046C51.0786 51.8597 50.1802 52.4512 49.3715 53.0764C44.2203 57.0447 38.7733 60.5674 33.0755 63.6934C32.8771 63.8019 32.6712 63.903 32.469 64.0078C32.469 64.0228 33.8467 64.9138 35.4564 65.8984L51.921 52.7582C51.921 52.3501 51.921 51.9458 51.921 51.5378Z" fill="url(#paint2_linear)"/>
<path opacity="0.5" d="M51.921 51.5378C51.921 51.4255 51.9359 51.2982 51.9247 51.2046C51.0786 51.8597 50.1802 52.4512 49.3715 53.0764C44.2203 57.0447 38.7733 60.5674 33.0755 63.6934C32.8771 63.8019 32.6712 63.903 32.469 64.0078C32.469 64.0228 33.8467 64.9138 35.4564 65.8984L51.921 52.7582C51.921 52.3501 51.921 51.9458 51.921 51.5378Z" fill="#AC1E54"/>
<path d="M47.2113 26.7136C36.4446 25.905 30.159 25.9836 19.4709 26.6949L33.7679 7.77455C34.6289 6.63649 36.381 6.77874 37.0661 8.02912C41.1504 15.464 44.5945 20.6864 47.2113 26.7136Z" fill="#E3F2FD"/>
<path d="M33.7679 7.77441L19.4709 26.6948C21.515 26.56 23.3943 26.4439 25.18 26.3578L36.2387 7.22409C35.4263 6.80855 34.3744 6.97327 33.7679 7.77441Z" fill="#CFDFEC"/>
<path opacity="0.5" d="M12.2195 49.5314C10.6135 54.6602 9.01493 59.7927 7.4164 64.9215C6.85859 66.7072 6.2933 68.4929 5.75422 70.2824C5.51088 71.0873 5.63068 71.836 6.30079 72.4088C6.95967 72.9703 7.68219 73.034 8.47584 72.6783C10.8269 71.6264 13.1666 70.5519 15.4802 69.4251C19.4372 67.4971 23.3269 65.4381 27.1491 63.2518C34.0187 59.3248 40.6375 55.0121 46.9979 50.3026C50.8351 47.4612 54.5713 44.485 58.2026 41.3852C60.9467 39.0417 63.6009 36.6009 66.2776 34.1862C66.4386 34.0402 66.6221 33.8905 66.6258 33.6621C50.6517 48.0751 41.2851 51.7589 22.2749 61.5709L11.2349 66.4789L12.2607 49.2918C12.2607 49.3704 12.2494 49.4341 12.2195 49.5314Z" fill="#0072BB"/>
</g>
<defs>
<linearGradient id="paint0_linear" x1="-1.37961e-05" y1="51.1557" x2="66.622" y2="51.1557" gradientUnits="userSpaceOnUse">
<stop stop-color="#44B5FD"/>
<stop offset="1" stop-color="#078FEA"/>
</linearGradient>
<linearGradient id="paint1_linear" x1="42.0635" y1="57.0445" x2="52.4093" y2="71.6227" gradientUnits="userSpaceOnUse">
<stop stop-color="#FC5C9A"/>
<stop offset="1" stop-color="#E32D73"/>
</linearGradient>
<linearGradient id="paint2_linear" x1="41.8871" y1="57.1699" x2="52.233" y2="71.7481" gradientUnits="userSpaceOnUse">
<stop stop-color="#FC5C9A"/>
<stop offset="1" stop-color="#E32D73"/>
</linearGradient>
<clipPath id="clip0">
<rect width="260" height="80" fill="white"/>
</clipPath>
</defs>
</svg>
