<svg width="160" height="50" viewBox="0 0 160 50" fill="none" xmlns="http://www.w3.org/2000/svg">
<path d="M27.3832 30.0003C27.3832 31.9943 26.5681 33.7902 25.2316 35.1103C23.9086 36.4174 22.0774 37.2362 20.0729 37.2362C18.0548 37.2362 16.224 36.4174 14.9011 35.1103C13.5782 33.7897 12.7495 31.9938 12.7495 30.0003V20.2288V12.5832H31.7132V8.31795H10.5843H8.41907V10.4439V20.2283V29.9998C8.41907 33.169 9.72887 36.0476 11.8402 38.1337C13.9516 40.2198 16.8654 41.514 20.0725 41.514C23.28 41.514 26.1798 40.2198 28.2916 38.1337C30.4029 36.0476 31.7127 33.1686 31.7127 29.9998V25.7216V21.4563H27.3828H20.0729V25.7216H27.3832V30.0003Z" fill="#FBED10"/>
<path d="M12.7496 0H37.9681H40.1333V2.12593V30.0009C40.1333 35.4677 37.888 40.4194 34.2532 44.0108C30.618 47.6026 25.5933 49.8207 20.0739 49.8207C14.5409 49.8207 9.52936 47.6022 5.89458 44.0108C2.25844 40.4194 0 35.4677 0 30.0009H4.32997C4.32997 34.2791 6.09418 38.1746 8.95412 40.9869C11.8005 43.7993 15.743 45.5558 20.073 45.5558C24.403 45.5558 28.3324 43.7997 31.1923 40.9869C34.0391 38.1746 35.8029 34.2791 35.8029 30.0009V4.26527H12.7496V0Z" fill="#FBED10"/>
<path d="M63.0291 42.4256C62.4521 43.0667 61.6081 43.5831 60.4969 43.9748C59.3857 44.3666 58.1677 44.5625 56.8429 44.5625C54.8057 44.5625 53.1781 43.9392 51.9601 42.6927C50.7421 41.4462 50.0904 39.7118 50.0049 37.4895L49.9942 36.1432C49.9942 34.6118 50.2649 33.2763 50.8062 32.1366C51.3476 30.9898 52.1204 30.1101 53.1247 29.4976C54.1362 28.8779 55.3043 28.568 56.6292 28.568C58.5666 28.568 60.0695 29.0132 61.138 29.9036C62.2135 30.7868 62.8403 32.1081 63.0184 33.8675H59.4071C59.2789 32.9985 59.0011 32.3788 58.5737 32.0084C58.1463 31.638 57.5409 31.4528 56.7574 31.4528C55.8172 31.4528 55.0906 31.8517 54.5778 32.6495C54.0649 33.4472 53.8049 34.5869 53.7978 36.0684V37.0087C53.7978 38.5614 54.0614 39.7296 54.5885 40.5131C55.1227 41.2895 55.9596 41.6777 57.0993 41.6777C58.0751 41.6777 58.8017 41.4605 59.2789 41.026V38.6113H56.6719V36.0364H63.0291V42.4256Z" fill="#FBED10"/>
<path d="M74.0446 41.4427H68.9055L68.008 44.3488H64.0014L69.7068 28.7924H73.2326L78.9808 44.3488H74.9528L74.0446 41.4427ZM69.8029 38.5472H73.1471L71.4697 33.1516L69.8029 38.5472Z" fill="#FBED10"/>
<path d="M85.0495 28.7924L88.5219 39.6156L91.9836 28.7924H96.9198V44.3488H93.1589V40.7161L93.5222 33.2798L89.7613 44.3488H87.2825L83.5109 33.2691L83.8742 40.7161V44.3488H80.124V28.7924H85.0495Z" fill="#FBED10"/>
<path d="M99.3131 44.3488V28.7924H104.901C106.903 28.7924 108.423 29.1592 109.463 29.8929C110.51 30.6266 111.034 31.6914 111.034 33.0875C111.034 33.8924 110.849 34.5798 110.478 35.1496C110.108 35.7194 109.563 36.1397 108.843 36.4103C109.656 36.624 110.279 37.0229 110.713 37.607C111.148 38.1911 111.365 38.9033 111.365 39.7438C111.365 41.2681 110.881 42.4149 109.912 43.1842C108.95 43.9463 107.522 44.3345 105.628 44.3488H99.3131ZM103.063 37.7352V41.464H105.521C106.197 41.464 106.717 41.3109 107.081 41.0046C107.444 40.6912 107.625 40.2531 107.625 39.6904C107.625 38.3941 106.981 37.7423 105.692 37.7352H103.063ZM103.063 35.2778H105.019C105.838 35.2707 106.422 35.1211 106.771 34.8291C107.12 34.537 107.294 34.1061 107.294 33.5363C107.294 32.8809 107.106 32.4108 106.728 32.1259C106.35 31.8339 105.741 31.6879 104.901 31.6879H103.063V35.2778Z" fill="#FBED10"/>
<path d="M117.188 41.464H123.716V44.3488H113.438V28.7924H117.188V41.464Z" fill="#FBED10"/>
<path d="M129.293 44.3488H125.554V28.7924H129.293V44.3488Z" fill="#FBED10"/>
<path d="M144.892 44.3488H141.164L135.65 34.6688V44.3488H131.9V28.7924H135.65L141.153 38.4724V28.7924H144.892V44.3488Z" fill="#FBED10"/>
<path d="M160 42.4256C159.423 43.0667 158.579 43.5831 157.468 43.9748C156.357 44.3666 155.139 44.5625 153.814 44.5625C151.777 44.5625 150.149 43.9392 148.931 42.6927C147.713 41.4462 147.061 39.7118 146.976 37.4895L146.965 36.1432C146.965 34.6118 147.236 33.2763 147.777 32.1366C148.319 30.9898 149.091 30.1101 150.096 29.4976C151.107 28.8779 152.275 28.568 153.6 28.568C155.538 28.568 157.041 29.0132 158.109 29.9036C159.185 30.7868 159.811 32.1081 159.989 33.8675H156.378C156.25 32.9985 155.972 32.3788 155.545 32.0084C155.117 31.638 154.512 31.4528 153.728 31.4528C152.788 31.4528 152.062 31.8517 151.549 32.6495C151.036 33.4472 150.776 34.5869 150.769 36.0684V37.0087C150.769 38.5614 151.032 39.7296 151.559 40.5131C152.094 41.2895 152.931 41.6777 154.07 41.6777C155.046 41.6777 155.773 41.4605 156.25 41.026V38.6113H153.643V36.0364H160V42.4256Z" fill="#FBED10"/>
<path d="M58.2131 5.38547H61.9526V16.0591C61.9526 17.0492 61.7211 17.9324 61.2581 18.7088C60.8022 19.4852 60.1612 20.0871 59.3349 20.5145C58.5158 20.9419 57.6005 21.1555 56.5891 21.1555C54.8938 21.1555 53.5761 20.7282 52.6359 19.8734C51.6956 19.0187 51.2255 17.8078 51.2255 16.2407H54.9864C54.9864 16.953 55.1075 17.4694 55.3497 17.79C55.599 18.1105 56.0121 18.2708 56.5891 18.2708C57.109 18.2708 57.5079 18.0785 57.7857 17.6938C58.0706 17.3021 58.2131 16.7572 58.2131 16.0591V5.38547Z" fill="white"/>
<path d="M77.4983 13.4842C77.4983 15.0014 77.2169 16.344 76.6542 17.5122C76.0915 18.6803 75.2902 19.5814 74.2503 20.2153C73.2174 20.8421 72.0386 21.1555 70.7137 21.1555C69.3889 21.1555 68.2136 20.8528 67.1879 20.2474C66.1622 19.6348 65.3609 18.7623 64.7839 17.6297C64.2141 16.4972 63.9149 15.1972 63.8865 13.7299V12.8538C63.8865 11.3295 64.1642 9.98686 64.7198 8.82582C65.2825 7.65767 66.0839 6.75663 67.1238 6.12269C68.1709 5.48875 69.3604 5.17178 70.6924 5.17178C72.0101 5.17178 73.1854 5.48519 74.2182 6.112C75.251 6.73882 76.0523 7.63274 76.6222 8.79377C77.1991 9.94768 77.4912 11.2725 77.4983 12.7683V13.4842ZM73.684 12.8324C73.684 11.2868 73.424 10.1151 72.904 9.3173C72.3912 8.51242 71.654 8.10997 70.6924 8.10997C68.8119 8.10997 67.8183 9.52031 67.7114 12.341L67.7008 13.4842C67.7008 15.0085 67.9536 16.1802 68.4593 16.9993C68.9651 17.8185 69.7165 18.228 70.7137 18.228C71.6611 18.228 72.3912 17.8256 72.904 17.0207C73.4169 16.2158 73.6769 15.0584 73.684 13.5483V12.8324Z" fill="white"/>
<path d="M83.4281 20.9419H79.6886V5.38547H83.4281V20.9419Z" fill="white"/>
<path d="M99.0272 20.9419H95.2984L89.7853 11.2619V20.9419H86.0351V5.38547H89.7853L95.2877 15.0655V5.38547H99.0272V20.9419Z" fill="white"/>
</svg>
