<svg width="260" height="80" viewBox="0 0 260 80" fill="none" xmlns="http://www.w3.org/2000/svg">
<path fill-rule="evenodd" clip-rule="evenodd" d="M76.1073 13.6129C78.5448 22.7311 76.4011 31.2313 69.676 39.1135C73.3865 40.4743 75.6562 43.3519 76.4847 47.746C77.7247 54.0407 75.3944 61.1114 69.4935 68.9584C68.9113 68.5502 68.699 67.8629 68.8568 66.8962C69.1825 65.3108 76.0485 55.5905 69.1154 46.4102C67.0459 43.462 63.6358 41.6031 58.8849 40.8337C58.7613 49.4837 59.2696 56.9093 60.4099 63.1106C62.2664 73.2096 63.2449 78.6696 63.2449 79.4277C63.2449 79.9331 62.6096 80.1038 61.3386 79.9397C57.2096 77.5585 53.7394 73.3755 50.9277 67.3905C48.1161 61.4055 46.4548 52.6343 45.9436 41.0769C48.1904 40.1628 50.4503 39.606 52.7233 39.4067C54.9964 39.2075 57.0654 38.9331 58.9304 38.5841C58.9303 38.5909 58.93 38.5978 58.9298 38.6048C61.3554 38.2293 63.5345 38.1133 65.4673 38.2565C68.2854 35.2389 71.2592 29.5974 70.201 20.115C69.2238 12.2047 59.1018 4.38616 48.8919 8.55617C41.3737 11.6295 36.9035 16.736 35.4811 23.8762C34.6435 23.493 33.8869 22.6338 33.2112 21.2987C32.1512 19.3939 37.2972 10.7817 44.9486 4.82341C57.2603 -3.60937 72.1551 -1.17178 76.1073 13.6129ZM132.038 52.6042C160.007 49.8192 210.452 54.3957 216.756 55.7429C220.957 56.6409 222.571 57.4798 221.599 58.2597C204.328 56.3278 189.482 55.098 161.927 55.8462C126.458 57.2436 102.734 63.1372 82.369 70.9319C82.973 67.396 84.3407 63.3435 86.1884 62.0357C88.9632 60.0742 94.1525 55.7857 132.038 52.6042ZM88.0705 20.5006C94.2837 16.1177 101.123 17.8491 102.159 20.2727C103.539 22.2056 107.562 47.2015 106.554 48.7932C105.545 50.3848 102.785 51.5219 100.765 51.2501C99.7553 50.5022 99.4711 44.4895 99.2338 42.2268C98.0862 44.7578 92.8294 52.0863 88.8477 52.5056C84.866 52.9252 80.8821 50.4183 80.0742 40.2525C79.2662 30.0868 84.26 23.1886 88.0705 20.5006ZM218.494 21.2432C224.226 20.059 229.244 24.0183 229.586 26.3022C230.295 28.3142 226.146 46.0997 228.292 50.9101C227.257 52.9803 224.454 50.5737 223.481 49.4808C222.507 48.3879 222.675 44.8939 222.94 42.9621C221.517 44.7014 215.827 49.3131 212.556 48.5228C209.289 47.7191 206.642 44.3113 208.142 35.1264C209.628 26.0273 214.965 22.0286 218.494 21.2432ZM119.419 19.2253C121.973 14.2248 124.497 14.1406 126.173 14.2877C127.404 14.3957 130.311 14.4807 130.539 17.0964C127.53 22.6116 127.835 34.4339 129.522 40.5045C130.647 44.5515 131.271 46.6713 131.395 46.8637C130.207 46.7738 129.389 46.5599 128.943 46.2218C128.273 45.7147 126.356 44.857 125.008 39.5888C122.676 31.2034 122.758 26.8183 123.526 21.8877C116.863 30.1603 118.694 45.4618 118.833 47.0624C118.973 48.6631 110.882 49.3067 110.903 48.0695C110.843 47.3784 110.674 38.0334 109.427 31.3175C108.18 24.6015 106.248 17.2954 106.158 16.0084C105.903 14.7758 111.49 14.3769 112.182 16.2084C112.643 17.4294 114.072 23.7929 116.468 35.2988C116.162 29.0345 117.146 23.6767 119.419 19.2253ZM208.922 17.7412C208.925 17.7436 208.93 17.7461 208.933 17.7485C209.484 18.112 209.533 18.7227 208.554 19.5489C206.347 21.4128 201.965 22.58 197.398 30.2717C194.8 34.6897 194.843 38.5698 195.138 41.5993L195.144 41.6087C195.748 42.7726 203.88 42.8289 202.161 38.2278C201.374 36.7654 203.512 36.6934 204.575 37.0461C205.639 37.399 205.913 39.0146 205.91 40.7381C205.908 42.4615 205.307 44.4716 204.001 46.0155C202.694 47.5592 195.477 48.0468 189.538 47.2627C187.587 47.0051 186.395 46.6291 185.962 46.135L185.942 46.1118C184.778 44.8998 182.383 37.0608 191.262 27.5232C197.71 20.6881 201.095 18.9142 203.316 18.2017C200.507 17.0727 196.284 16.1371 194.831 16.4204C191.695 17.0319 191.551 20.5715 191.927 21.8634C192.178 22.7246 191.247 22.7504 189.135 21.941C188.103 21.2909 187.573 20.3969 187.542 19.2594C187.498 17.5531 188.583 15.5042 191.436 14.3246C194.29 13.1451 205.126 15.1742 208.922 17.7412ZM181.301 12.2522C182.319 11.5957 184.658 14.1526 184.521 16.7747C181.093 22.1637 180.291 37.2104 181.895 46.8573C180.673 47.5204 179.423 47.1608 178.961 46.5999C178.155 46.0438 176.249 41.3877 176.286 34.8976C176.324 28.4075 176.943 26.3132 178.388 21.5377C170.641 28.8002 169.168 43.7501 169.084 45.3548C169 46.9594 161.795 46.7217 161.81 45.439C161.846 44.7462 163.006 35.1672 162.704 28.3427C162.401 21.518 160.28 14.8787 159.854 13.6302C159.428 12.3819 166.952 12.1436 167.373 13.4352C167.654 14.2961 168.228 21.0072 169.093 33.5686C169.674 27.9589 171.399 23.1086 174.268 19.0178C177.492 14.4222 179.351 13.5105 181.301 12.2522ZM97.6353 23.3391C97.3512 22.5389 95.0451 19.293 92.0591 22.873C87.6229 29.204 89.0586 43.0336 91.3547 46.485C92.171 48.0249 97.9456 41.9048 98.5856 39.3482C98.58 37.1756 97.8958 25.7707 97.6433 23.3626L97.6353 23.3391ZM140.996 14.9112C147.118 10.8535 153.732 12.8264 154.693 15.2594C155.996 17.2242 159.418 42.1317 158.408 43.6548C157.399 45.1767 154.697 46.1536 152.741 45.7768C151.776 44.9842 151.615 39.0357 151.429 36.7912C150.266 39.2299 145.022 46.1723 141.15 46.3681C137.277 46.562 133.457 43.889 132.861 33.8992C132.264 23.9199 137.243 17.3878 140.996 14.9112ZM225.431 27.1021C225.365 26.3572 224.196 22.8999 221.142 24.6897C216.38 28.3118 214.685 40.4689 215.801 44.1156C216.136 45.6686 221.98 42.3024 223.001 40.4005C223.43 38.6216 225.156 29.1481 225.432 27.1238L225.431 27.1021ZM150.238 18.0973C149.977 17.2972 147.797 14.0072 144.828 17.4054C140.398 23.4307 141.533 37.0747 143.697 40.584C144.46 42.1414 150.184 36.4096 150.854 33.9201C150.891 31.7774 150.444 20.5041 150.245 18.1208L150.238 18.0973Z" fill="#EEBD2F"/>
<path fill-rule="evenodd" clip-rule="evenodd" d="M58.917 38.5863C55.92 40.2274 53.2123 42.0834 50.7939 44.1542C48.5086 46.1111 47.0854 47.743 46.5244 49.0499C46.2621 46.5586 46.0685 43.9008 45.9436 41.0768C48.1904 40.1627 50.4503 39.6061 52.7234 39.4068C54.9964 39.2074 57.0653 38.9332 58.9303 38.584L58.917 38.5863Z" fill="#D8A000"/>
<path fill-rule="evenodd" clip-rule="evenodd" d="M50.9569 18.7393C53.1921 19.541 52.1767 20.2755 53.195 20.5491C53.3486 20.5904 54.1558 20.3735 54.6933 20.1467C55.3912 19.852 55.9247 21.09 56.468 21.5006C57.1385 22.0073 57.8085 21.8098 58.6321 22.5975C58.856 31.0636 58.9327 34.4885 58.9304 38.5844C58.7907 38.6046 58.6532 38.6248 58.5173 38.6445C51.5667 39.731 42.7148 44.845 40.1671 51.0107C35.6745 60.9515 39.6364 72.2337 39.5994 72.2436C37.0515 72.928 28.8183 63.972 31.5473 52.5752C33.1822 44.8184 39.6642 41.1334 46.0085 39.5039C45.9737 34.5274 47.585 25.5626 50.9569 18.7393Z" fill="#FCDE8A"/>
</svg>
