<svg width="260" height="80" viewBox="0 0 260 80" fill="none" xmlns="http://www.w3.org/2000/svg">
<path d="M179.688 39.6846C179.688 23.8442 166.976 11 151.294 11C135.613 11 122.899 23.8418 122.899 39.6846C122.899 55.5274 135.611 68.3692 151.294 68.3692C166.977 68.3692 179.688 55.5274 179.688 39.6846Z" fill="#FEFEFE"/>
<path d="M17.0437 61.4776L29.8392 12.9454C29.9938 12.4022 30.4657 12.0262 31.0256 12.0262H44.6568C44.8463 12.0252 45.0334 12.0689 45.2031 12.1537C45.3728 12.2385 45.5204 12.362 45.6339 12.5144C45.7526 12.6637 45.8336 12.8396 45.8698 13.0271C45.9061 13.2146 45.8965 13.4082 45.8419 13.5911L35.935 50.9599C35.8364 51.3479 35.9018 51.7239 36.1443 52.0366C36.257 52.19 36.4044 52.3143 36.5742 52.3994C36.7441 52.4844 36.9316 52.5279 37.1214 52.5261H63.4494C63.8453 52.5261 64.1864 52.6932 64.4266 53.0035C64.5437 53.1536 64.6238 53.3294 64.6602 53.5166C64.6965 53.7038 64.6882 53.897 64.6358 54.0803L62.4937 62.1139C62.3391 62.657 61.8672 63.033 61.3073 63.033H18.2289C18.0393 63.034 17.8522 62.9903 17.6825 62.9055C17.5128 62.8208 17.3653 62.6972 17.2517 62.5448C17.0211 62.2225 16.9427 61.8572 17.0425 61.4681L17.0437 61.4776ZM82.6712 12.0262H122.596C122.823 12.0244 123.046 12.0769 123.249 12.1792C123.451 12.2816 123.626 12.4308 123.76 12.6147C123.898 12.7932 123.994 13.0012 124.039 13.2226C124.085 13.444 124.08 13.673 124.024 13.892L123.76 14.9126C121.848 17.0648 120.19 19.4486 118.817 22.0246C118.737 22.1831 118.614 22.3159 118.462 22.408C118.311 22.5002 118.137 22.5481 117.96 22.5463H95.2373C94.9107 22.5423 94.5924 22.65 94.3349 22.8518C94.0774 23.0535 93.8959 23.3373 93.8203 23.6564L92.0848 30.303C91.9635 30.7804 92.0515 31.2125 92.338 31.5898C92.6245 31.967 93.0298 32.1663 93.5029 32.1663H113.835C114.307 32.1663 114.715 32.3657 115 32.7548C115.139 32.9345 115.235 33.1445 115.279 33.368C115.323 33.5915 115.314 33.8222 115.253 34.0416L113.32 41.4426C113.238 41.7592 113.053 42.0392 112.794 42.2381C112.536 42.4371 112.218 42.5436 111.893 42.5408H90.0092C89.3281 42.5408 88.7575 42.9848 88.5828 43.6509L86.6713 50.8071C86.55 51.2846 86.638 51.7287 86.9233 52.1047C87.0599 52.2873 87.2377 52.4347 87.4421 52.535C87.6464 52.6352 87.8716 52.6853 88.099 52.6812H115.349C115.576 52.6793 115.8 52.7316 116.003 52.834C116.205 52.9363 116.381 53.0857 116.514 53.2697C116.8 53.6469 116.888 54.1017 116.766 54.5673L114.767 61.9682C114.591 62.6224 114.02 63.0664 113.35 63.0664H69.1292C68.9396 63.0674 68.7525 63.0238 68.5828 62.939C68.4131 62.8542 68.2656 62.7306 68.152 62.5782C68.0333 62.429 67.9523 62.2531 67.9161 62.0656C67.8799 61.878 67.8894 61.6845 67.944 61.5015L80.5422 13.7141C80.8061 12.7269 81.6632 12.0501 82.6843 12.0501L82.6712 12.0262ZM201.188 36.8576L194.652 62.164C194.592 62.4128 194.449 62.6338 194.248 62.7909C194.046 62.9481 193.798 63.0321 193.543 63.0294L179.748 62.9411C179.61 62.9382 179.475 62.905 179.351 62.8437C179.228 62.7824 179.119 62.6947 179.033 62.5866C178.947 62.4769 178.889 62.3482 178.862 62.2113C178.835 62.0744 178.841 61.933 178.879 61.7987L178.9 61.7104C183.823 55.4304 186.494 47.667 186.48 39.6747C186.48 38.2422 186.402 36.8456 186.238 35.4585C186.182 34.9811 186.214 34.5394 186.337 34.05L191.884 13.4228C192.114 12.5801 192.839 12.0143 193.707 12.0143H204.35C204.694 12.0105 205.032 12.1043 205.326 12.2848C205.619 12.4653 205.856 12.7253 206.009 13.0349L219.727 39.4097C219.773 39.496 219.844 39.5664 219.93 39.6119C220.016 39.6575 220.114 39.676 220.211 39.6651C220.419 39.6413 220.584 39.51 220.627 39.2987L227.997 12.0381H241.846C242.219 12.0381 242.538 12.2053 242.758 12.4917C242.988 12.7902 243.055 13.1363 242.955 13.5016L230.259 61.6316C230.039 62.4744 229.304 63.064 228.448 63.064H218.046C217.354 63.064 216.739 62.7095 216.411 62.1091L202.086 36.7358C201.988 36.5567 201.801 36.4696 201.603 36.4911C201.395 36.5245 201.24 36.6582 201.187 36.8576H201.188Z" fill="#222222"/>
<path fill-rule="evenodd" clip-rule="evenodd" d="M147.488 11.2388C137.888 12.5375 129.804 18.6839 125.729 27.1603L140.47 24.2537L147.488 11.2388ZM123.257 35.0829C123.014 36.6054 122.892 38.1451 122.894 39.687C122.894 47.8197 126.244 55.1645 131.637 60.3906L133.329 45.8119L123.257 35.0829ZM138.592 65.3397C142.536 67.3378 146.893 68.3753 151.311 68.3681C156.002 68.3681 160.429 67.2257 164.316 65.1833L151.53 59.0715L138.592 65.3408V65.3397ZM171.707 59.6373C176.661 54.4782 179.704 47.4437 179.704 39.6882C179.704 38.3219 179.608 36.9574 179.417 35.6046L170.005 45.8561L171.707 59.6361V59.6373ZM176.715 26.8619C172.74 18.8402 165.139 12.9481 156.079 11.4059L162.997 24.4101L176.715 26.8619ZM151.199 53.3764L157.559 48.7162L163.919 44.0452L159.064 28.933H143.335L138.48 44.0452L151.199 53.3764V53.3764Z" fill="#D62628"/>
</svg>
