<svg width="260" height="80" viewBox="0 0 260 80" fill="none" xmlns="http://www.w3.org/2000/svg">
<path d="M220.151 64.0815H222.949V79.6442H220.405L210.177 67.2856V79.6442H207.379V64.0815H210.991L220.151 75.1178V64.0815Z" fill="#231F20"/>
<path d="M148.607 80.0002C146.063 80.0002 143.926 79.1865 142.196 77.6099C140.517 76.0333 139.652 74.1007 139.652 71.8629C139.652 69.6251 140.517 67.6925 142.196 66.1159C143.875 64.5393 146.012 63.7256 148.607 63.7256C150.337 63.7256 151.915 64.0816 153.238 64.8445C154.612 65.6073 155.68 66.5736 156.494 67.8451L153.899 69.2691C152.729 67.4891 150.948 66.5736 148.607 66.5736C146.877 66.5736 145.452 67.0822 144.333 68.0994C143.214 69.1166 142.654 70.3372 142.654 71.8629C142.654 73.3887 143.214 74.6601 144.333 75.6264C145.452 76.6436 146.877 77.1522 148.607 77.1522C150.948 77.1522 152.729 76.2367 153.899 74.4567L156.494 75.8807C155.68 77.1522 154.612 78.1185 153.238 78.8813C151.915 79.6442 150.337 80.0002 148.607 80.0002Z" fill="#231F20"/>
<path d="M171.505 76.3892H162.702L161.328 79.6442H158.021L164.992 64.0815H169.215L176.187 79.6442H172.93L171.505 76.3892ZM163.822 73.7955H170.386L167.129 66.1159L163.822 73.7955Z" fill="#231F20"/>
<path d="M185.905 77.3552C187.33 77.3552 188.45 77.1009 189.162 76.6432C189.416 76.4906 189.62 76.2872 189.773 75.982C189.925 75.7277 190.027 75.4734 190.027 75.2191C190.027 74.7106 189.824 74.2528 189.416 73.9477C189.009 73.6425 188.501 73.3882 187.839 73.2865C187.178 73.1848 186.465 73.0831 185.702 72.9814C184.939 72.8797 184.124 72.7779 183.361 72.6254C182.598 72.4728 181.886 72.2694 181.224 72.0151C180.563 71.7608 180.054 71.3031 179.647 70.7436C179.24 70.1333 179.036 69.4213 179.036 68.5058C179.036 66.8784 179.799 65.6578 181.275 64.7423C182.445 64.0303 183.921 63.6743 185.651 63.6743C187.279 63.6743 188.653 63.9286 189.722 64.4372C190.841 64.9458 191.808 65.6578 192.673 66.5732L190.129 67.9464C189.467 67.3361 188.806 66.9292 188.144 66.675C187.483 66.4207 186.618 66.3189 185.6 66.3189C184.43 66.3189 183.514 66.5224 182.852 66.8784C182.242 67.2344 181.936 67.6921 181.936 68.2516C181.936 68.7093 182.14 69.1161 182.547 69.3704C182.954 69.6247 183.463 69.8282 184.124 69.9299C184.786 70.0316 185.498 70.0825 186.262 70.1842C187.025 70.235 187.839 70.3876 188.602 70.5402C189.366 70.6928 190.078 70.8962 190.739 71.2013C191.401 71.5065 191.91 71.9642 192.317 72.5745C192.724 73.2357 192.927 73.9985 192.927 74.9648C192.927 75.7277 192.724 76.4397 192.266 77.1517C191.808 77.8638 191.197 78.4741 190.434 78.8809C189.162 79.5929 187.635 79.949 185.905 79.949C182.598 79.949 180.003 78.8809 178.12 76.694L180.664 75.27C181.377 75.982 182.089 76.4906 182.852 76.8466C183.667 77.2026 184.684 77.3552 185.905 77.3552Z" fill="#231F20"/>
<path d="M201.374 64.0815V79.6442H198.525V64.0815H201.374Z" fill="#231F20"/>
<path d="M243.405 77.6607C241.726 79.2373 239.588 80.0002 237.044 80.0002C234.5 80.0002 232.363 79.1865 230.633 77.6099C228.954 76.0333 228.089 74.1007 228.089 71.8629C228.089 69.6251 228.954 67.6925 230.633 66.1159C232.312 64.5393 234.449 63.7256 237.044 63.7256C239.588 63.7256 241.726 64.5393 243.456 66.1159C245.186 67.6925 246 69.6251 246 71.8629C246 74.1515 245.135 76.0333 243.405 77.6607ZM232.77 75.6773C233.889 76.6944 235.314 77.1522 237.044 77.1522C238.774 77.1522 240.199 76.6436 241.319 75.6264C242.438 74.6092 242.998 73.3887 242.998 71.8629C242.998 70.3372 242.438 69.1166 241.319 68.0994C240.199 67.0822 238.774 66.5736 237.044 66.5736C235.314 66.5736 233.889 67.0822 232.77 68.0994C231.651 69.1166 231.091 70.3372 231.091 71.8629C231.091 73.3887 231.651 74.6601 232.77 75.6773Z" fill="#231F20"/>
<path d="M81.1852 34.075C81.1852 52.8926 65.9199 68.15 47.0926 68.15C28.2653 68.15 13 52.8926 13 34.075C13 15.2575 28.2653 0 47.0926 0C65.9199 0 81.1852 15.2575 81.1852 34.075Z" fill="#6CA30F"/>
<path d="M65.7164 22.6825V15.3081H37.0176V52.8923H44.4976V38.3469H62.5616V30.9724H44.4976V22.6825H65.7164Z" fill="white"/>
<path d="M112.225 38.9571C115.125 38.3468 117.415 37.0754 119.145 35.2445C121.028 33.2101 121.995 30.6164 121.995 27.6157C121.995 25.5305 121.537 23.5471 120.621 21.767C119.705 19.9361 118.382 18.5121 116.601 17.4441C114.26 16.02 111.004 15.3589 106.831 15.3589H88.0547V52.8923H95.5347V39.9234H103.778L113.955 52.8923H123.267L112.225 38.9571ZM95.5347 22.6825H106.831C109.426 22.6825 111.258 22.9876 112.276 23.5979C113.7 24.4625 114.362 25.7848 114.362 27.6157C114.362 29.4466 113.65 30.7689 112.276 31.6335C111.258 32.2438 109.426 32.549 106.831 32.549H95.5347V22.6825Z" fill="#231F20"/>
<path d="M139.295 45.6196V37.1771H157.919V29.9044H139.295V22.5808H161.023V15.3081H131.815V52.8923H161.583V45.6196H139.295Z" fill="#231F20"/>
<path d="M200.815 35.5499C199.899 33.9733 198.627 32.8036 197.1 32.0916C195.624 31.3796 193.996 30.871 192.215 30.4641C190.485 30.1081 188.704 29.803 186.974 29.6504C185.244 29.4978 183.667 29.2944 182.242 29.0909C180.868 28.8875 179.748 28.4806 178.934 27.9212C178.171 27.4126 177.815 26.6497 177.815 25.7343C177.815 24.6154 178.425 23.7 179.596 22.9371C181.071 22.1234 183.005 21.7165 185.448 21.7165C187.636 21.7165 189.467 21.9708 190.892 22.5302C192.317 23.0388 193.742 24.0051 195.116 25.3783L195.37 25.6326L201.883 21.8691L201.476 21.4113C199.492 19.2244 197.202 17.5461 194.759 16.3255C192.266 15.1049 189.111 14.4946 185.448 14.4946C181.58 14.4946 178.222 15.3592 175.525 17.0375C172.065 19.2244 170.335 22.3268 170.335 26.2429C170.335 28.4298 170.793 30.2607 171.76 31.7356C172.676 33.2105 173.948 34.2785 175.474 34.9396C176.95 35.6008 178.578 36.0585 180.359 36.4145C182.089 36.7705 183.819 37.0248 185.549 37.2283C187.279 37.4317 188.857 37.6351 190.282 37.9403C191.655 38.1946 192.724 38.7031 193.538 39.3643C194.301 40.0255 194.708 40.89 194.708 42.0089C194.708 42.5175 194.556 43.0261 194.2 43.5855C193.843 44.145 193.436 44.6027 192.978 44.9587C191.401 46.0267 189.06 46.5862 186.007 46.5862C183.361 46.5862 181.173 46.2302 179.545 45.4673C177.917 44.7553 176.288 43.5347 174.813 41.9072L174.558 41.6021L167.994 45.5181L168.35 45.9759C172.523 51.1126 178.476 53.7572 186.007 53.7572C189.976 53.7572 193.487 52.8926 196.337 51.1634C198.118 50.0954 199.593 48.6205 200.611 46.8913C201.629 45.1113 202.189 43.3312 202.189 41.5003C202.239 39.11 201.731 37.1265 200.815 35.5499Z" fill="#231F20"/>
<path d="M238.316 15.3081V29.4975H218.675V15.3081H210.991V52.8923H218.675V37.1771H238.316V52.8923H246V15.3081H238.316Z" fill="#231F20"/>
</svg>
