<svg width="260" height="80" viewBox="0 0 260 80" fill="none" xmlns="http://www.w3.org/2000/svg">
<path d="M147.281 30.2126C149.248 22.4446 144.453 16.017 132.708 16.017H107.252L97.7144 54.0072L103.251 63.3521H121.359C133.225 63.3521 142.418 57.9077 144.781 48.4437C145.971 43.5939 144.591 40.2019 141.486 38.5059V38.3868C144.419 36.5278 146.501 33.5914 147.281 30.2126V30.2126ZM131.759 48.1388C131.276 50.1228 129.914 52.1583 124.275 52.1583H112.719L114.737 44.0179H126.24C131.811 44.0001 132.225 46.0863 131.691 48.1388H131.759ZM134.07 30.4668C133.656 31.993 132.466 33.8588 127.603 33.8588H117.255L118.98 27.2446H129.328C134.243 27.2108 134.485 28.7708 134.07 30.4668V30.4668ZM163.304 45.0179H186.483L189.122 33.825H166.098L167.891 27.2108H190.692L193.33 16.017H155.905L144.039 63.3352H186.431L189.209 52.1414H161.596L163.304 45.0179V45.0179ZM196.573 16.017L193.917 27.2108H207.766L198.677 63.3352H213.216L222.323 27.2108H237.154L240 16.0161H196.573V16.017Z" fill="#14A0FF"/>
<path d="M35.2121 63.3349H20.5513L26.8984 38.0638L28.3645 34.2487L24.4837 38.0647L20.1728 42.3554L20 29.7367L35.2121 16.0176H47.0591L35.213 63.3349H35.2121Z" fill="#002F5E"/>
<path d="M88.1413 43.729L83.4678 35.945L106.147 16.0161H85.0203L76.3967 24.1583L47.1465 50.5299L33.1074 63.3352H53.0962L68.1186 50.1574L73.1715 58.6374C74.8958 60.7743 77.3283 63.369 87.6416 63.369H99.714L88.1591 43.7121L88.1413 43.7299V43.729ZM74.7756 21.5459V21.4437C73.4756 19.6632 71.7495 18.2361 69.7548 17.2926C67.7497 16.3437 65.5403 15.9055 63.324 16.017H47.7156L59.3569 35.4872L74.7756 21.5459V21.5459Z" fill="#002F5E"/>
</svg>
