<svg width="260" height="80" viewBox="0 0 260 80" fill="none" xmlns="http://www.w3.org/2000/svg">
<path d="M13.3441 70.0316C13.4615 70.0423 13.6161 70.053 13.8081 70.0636C14.0001 70.0636 14.2615 70.0636 14.5921 70.0636C15.9468 70.0636 16.9548 69.7223 17.6161 69.0396C18.2881 68.3463 18.6241 67.381 18.6241 66.1436C18.6241 64.885 18.2988 63.9196 17.6481 63.2476C16.9975 62.5756 15.9895 62.2396 14.6241 62.2396C14.0268 62.2396 13.6001 62.2556 13.3441 62.2876V70.0316ZM20.7361 66.1436C20.7361 67.1036 20.5868 67.941 20.2881 68.6556C19.9895 69.3596 19.5628 69.9516 19.0081 70.4316C18.4641 70.901 17.8028 71.253 17.0241 71.4876C16.2561 71.7116 15.4028 71.8236 14.4641 71.8236C14.0161 71.8236 13.5095 71.8023 12.9441 71.7596C12.3788 71.7276 11.8401 71.653 11.3281 71.5356V60.7676C11.8401 60.6503 12.3841 60.5756 12.9601 60.5436C13.5361 60.5116 14.0481 60.4956 14.4961 60.4956C15.4241 60.4956 16.2721 60.6076 17.0401 60.8316C17.8081 61.045 18.4641 61.3863 19.0081 61.8556C19.5628 62.3143 19.9895 62.901 20.2881 63.6156C20.5868 64.3196 20.7361 65.1623 20.7361 66.1436Z" fill="#969699"/>
<path d="M29.0335 60.4956C30.6335 60.4956 31.8549 60.789 32.6975 61.3756C33.5509 61.9623 33.9775 62.8583 33.9775 64.0636C33.9775 65.5676 33.2362 66.5863 31.7535 67.1196C31.9562 67.365 32.1855 67.6636 32.4415 68.0156C32.6975 68.3676 32.9589 68.7516 33.2255 69.1676C33.4922 69.5731 33.7482 69.9943 33.9935 70.4316C34.2389 70.8583 34.4575 71.2796 34.6495 71.6956H32.3935C32.1909 71.3116 31.9722 70.9276 31.7375 70.5436C31.5029 70.1491 31.2629 69.7703 31.0175 69.4076C30.7829 69.0343 30.5482 68.6876 30.3135 68.3676C30.0789 68.0371 29.8602 67.7436 29.6575 67.4876C29.5082 67.4983 29.3802 67.5036 29.2735 67.5036C29.1669 67.5036 29.0655 67.5036 28.9695 67.5036H27.9935V71.6956H25.9775V60.7676C26.4682 60.661 26.9909 60.5916 27.5455 60.5596C28.1002 60.517 28.5962 60.4956 29.0335 60.4956ZM29.1775 62.2396C28.7509 62.2396 28.3562 62.2556 27.9935 62.2876V65.8716H28.8735C29.3642 65.8716 29.7962 65.845 30.1695 65.7916C30.5429 65.7383 30.8522 65.6423 31.0975 65.5036C31.3535 65.365 31.5455 65.1783 31.6735 64.9436C31.8015 64.7091 31.8655 64.4103 31.8655 64.0476C31.8655 63.7063 31.8015 63.4183 31.6735 63.1836C31.5455 62.949 31.3589 62.7623 31.1135 62.6236C30.8789 62.485 30.5962 62.389 30.2655 62.3356C29.9349 62.2716 29.5722 62.2396 29.1775 62.2396Z" fill="#969699"/>
<path d="M39.2518 71.6959V60.6079H46.3718V62.3199H41.2678V65.0559H45.8118V66.7359H41.2678V69.9839H46.7558V71.6959H39.2518Z" fill="#969699"/>
<path d="M59.2613 71.6959C59.1119 71.2586 58.9573 70.8266 58.7973 70.3999C58.6373 69.9734 58.4826 69.5359 58.3333 69.0879H53.6613C53.5119 69.5359 53.3573 69.9786 53.1973 70.4159C53.0479 70.8426 52.8986 71.2694 52.7493 71.6959H50.6533C51.0693 70.5119 51.4639 69.4186 51.8373 68.4159C52.2106 67.4134 52.5733 66.4639 52.9253 65.5679C53.2879 64.6719 53.6453 63.8186 53.9973 63.0079C54.3493 62.1974 54.7119 61.3974 55.0853 60.6079H56.9893C57.3626 61.3974 57.7253 62.1974 58.0773 63.0079C58.4293 63.8186 58.7813 64.6719 59.1333 65.5679C59.4959 66.4639 59.8639 67.4134 60.2373 68.4159C60.6213 69.4186 61.0213 70.5119 61.4373 71.6959H59.2613ZM55.9973 62.7519C55.7519 63.3174 55.4693 64.0054 55.1493 64.8159C54.8399 65.6266 54.5146 66.5066 54.1733 67.4559H57.8213C57.4799 66.5066 57.1493 65.6214 56.8293 64.7999C56.5093 63.9786 56.2319 63.2959 55.9973 62.7519Z" fill="#969699"/>
<path d="M68.2947 60.6079C68.5294 61.0134 68.7907 61.5094 69.0787 62.0959C69.3667 62.6826 69.66 63.3014 69.9587 63.9519C70.2574 64.5919 70.5507 65.2479 70.8387 65.9199C71.1374 66.5814 71.4094 67.1946 71.6547 67.7599C71.9001 67.1946 72.1667 66.5814 72.4547 65.9199C72.7427 65.2479 73.0361 64.5919 73.3347 63.9519C73.6334 63.3014 73.9267 62.6826 74.2147 62.0959C74.5027 61.5094 74.7641 61.0134 74.9987 60.6079H76.8227C76.9187 61.4186 77.0094 62.2826 77.0947 63.1999C77.1801 64.1066 77.2547 65.0399 77.3187 65.9999C77.3934 66.9494 77.4574 67.9094 77.5107 68.8799C77.5747 69.8399 77.628 70.7786 77.6707 71.6959H75.6867C75.6441 70.4054 75.5907 69.0774 75.5267 67.7119C75.4734 66.3466 75.388 65.0239 75.2707 63.7439C75.1534 63.9894 75.0147 64.2826 74.8547 64.6239C74.6947 64.9654 74.5241 65.3386 74.3427 65.7439C74.1614 66.1386 73.9747 66.5493 73.7827 66.9759C73.6014 67.4026 73.42 67.8186 73.2387 68.2239C73.068 68.6186 72.908 68.9919 72.7587 69.3439C72.6094 69.6854 72.4814 69.9786 72.3747 70.2239H70.8707C70.764 69.9786 70.6361 69.6799 70.4867 69.3279C70.3374 68.9759 70.1721 68.6026 69.9907 68.2079C69.8201 67.8026 69.6387 67.3866 69.4467 66.9599C69.2654 66.5334 69.084 66.1226 68.9027 65.7279C68.7214 65.3334 68.5507 64.9654 68.3907 64.6239C68.2307 64.2719 68.0921 63.9786 67.9747 63.7439C67.8574 65.0239 67.7667 66.3466 67.7027 67.7119C67.6494 69.0774 67.6014 70.4054 67.5587 71.6959H65.5747C65.6174 70.7786 65.6654 69.8294 65.7187 68.8479C65.7827 67.8666 65.8467 66.8959 65.9107 65.9359C65.9854 64.9654 66.0654 64.0266 66.1507 63.1199C66.236 62.2133 66.3267 61.3759 66.4227 60.6079H68.2947Z" fill="#969699"/>
<path d="M93.1777 71.8236C92.591 71.8236 91.999 71.8023 91.4017 71.7596C90.8045 71.7276 90.2817 71.653 89.8337 71.5356V60.7676C90.0685 60.725 90.319 60.6876 90.5857 60.6556C90.8525 60.613 91.1245 60.581 91.4017 60.5596C91.679 60.5383 91.951 60.5223 92.2177 60.5116C92.495 60.501 92.7565 60.4956 93.0017 60.4956C93.6737 60.4956 94.2977 60.549 94.8737 60.6556C95.4497 60.7516 95.9457 60.917 96.3617 61.1516C96.7885 61.3863 97.119 61.6956 97.3537 62.0796C97.5885 62.4636 97.7057 62.9383 97.7057 63.5036C97.7057 64.0263 97.5777 64.4743 97.3217 64.8476C97.0765 65.221 96.7297 65.5196 96.2817 65.7436C96.9537 65.9676 97.4497 66.2983 97.7697 66.7356C98.0897 67.173 98.2497 67.7276 98.2497 68.3996C98.2497 69.541 97.8337 70.3996 97.0017 70.9756C96.1697 71.541 94.895 71.8236 93.1777 71.8236ZM91.8177 66.7036V70.0796C92.0417 70.101 92.2817 70.117 92.5377 70.1276C92.7937 70.1383 93.0285 70.1436 93.2417 70.1436C93.6577 70.1436 94.0417 70.117 94.3937 70.0636C94.7565 70.0103 95.0657 69.9196 95.3217 69.7916C95.5885 69.653 95.7965 69.4716 95.9457 69.2476C96.1057 69.0236 96.1857 68.7356 96.1857 68.3836C96.1857 67.7543 95.9565 67.317 95.4977 67.0716C95.039 66.8263 94.4045 66.7036 93.5937 66.7036H91.8177ZM91.8177 65.1196H93.2417C94.0097 65.1196 94.6125 65.013 95.0497 64.7996C95.487 64.5756 95.7057 64.181 95.7057 63.6156C95.7057 63.0823 95.4765 62.7036 95.0177 62.4796C94.5697 62.2556 93.983 62.1436 93.2577 62.1436C92.9485 62.1436 92.671 62.149 92.4257 62.1596C92.191 62.1703 91.9885 62.1863 91.8177 62.2076V65.1196Z" fill="#969699"/>
<path d="M103.389 60.6079H105.405V71.6959H103.389V60.6079Z" fill="#969699"/>
<path d="M116.285 62.1276C115.144 62.1276 114.269 62.485 113.661 63.1996C113.064 63.9036 112.765 64.885 112.765 66.1436C112.765 66.741 112.835 67.2903 112.973 67.7916C113.123 68.2823 113.336 68.7036 113.613 69.0556C113.901 69.4076 114.253 69.685 114.669 69.8876C115.096 70.0796 115.592 70.1756 116.157 70.1756C116.509 70.1756 116.813 70.165 117.069 70.1436C117.325 70.1116 117.528 70.0743 117.677 70.0316V66.0476H119.693V71.3756C119.416 71.4823 118.947 71.5996 118.285 71.7276C117.624 71.8556 116.861 71.9196 115.997 71.9196C115.197 71.9196 114.467 71.7916 113.805 71.5356C113.144 71.2796 112.579 70.9063 112.109 70.4156C111.651 69.925 111.293 69.3223 111.037 68.6076C110.781 67.893 110.653 67.0716 110.653 66.1436C110.653 65.2156 110.792 64.3943 111.069 63.6796C111.357 62.965 111.747 62.3623 112.237 61.8716C112.728 61.3703 113.304 60.9916 113.965 60.7356C114.627 60.4796 115.331 60.3516 116.077 60.3516C116.589 60.3516 117.043 60.389 117.437 60.4636C117.843 60.5276 118.189 60.6023 118.477 60.6876C118.765 60.773 119 60.8636 119.181 60.9596C119.373 61.0556 119.507 61.125 119.581 61.1676L118.973 62.8156C118.653 62.6236 118.253 62.4636 117.773 62.3356C117.304 62.197 116.808 62.1276 116.285 62.1276Z" fill="#969699"/>
<path d="M138.941 61.8559C139.112 62.4319 139.293 63.0346 139.485 63.6639C139.677 64.2826 139.875 64.9066 140.077 65.5359C140.291 66.1546 140.499 66.7679 140.701 67.3759C140.915 67.9734 141.117 68.5386 141.309 69.0719C141.469 68.4959 141.624 67.8719 141.773 67.1999C141.923 66.5174 142.072 65.8133 142.221 65.0879C142.371 64.3519 142.515 63.6054 142.653 62.8479C142.803 62.0906 142.941 61.3439 143.069 60.6079H145.149C144.776 62.6134 144.36 64.5439 143.901 66.3999C143.443 68.2454 142.931 70.0106 142.365 71.6959H140.445C139.613 69.5414 138.808 67.1894 138.029 64.6399C137.635 65.9306 137.235 67.1574 136.829 68.3199C136.424 69.4826 136.019 70.6079 135.613 71.6959H133.693C133.117 70.0106 132.6 68.2454 132.141 66.3999C131.693 64.5439 131.283 62.6134 130.909 60.6079H133.069C133.197 61.3334 133.331 62.0746 133.469 62.8319C133.619 63.5893 133.768 64.3359 133.917 65.0719C134.077 65.7974 134.237 66.5014 134.397 67.1839C134.557 67.8666 134.717 68.4959 134.877 69.0719C135.08 68.5279 135.283 67.9574 135.485 67.3599C135.699 66.7519 135.907 66.1386 136.109 65.5199C136.312 64.8906 136.504 64.2666 136.685 63.6479C136.877 63.0294 137.053 62.4319 137.213 61.8559H138.941Z" fill="#969699"/>
<path d="M149.893 60.6079H151.909V71.6959H149.893V60.6079Z" fill="#969699"/>
<path d="M165.077 71.6959C164.714 71.0879 164.309 70.4374 163.861 69.7439C163.413 69.0399 162.949 68.3359 162.469 67.6319C161.989 66.9173 161.498 66.2294 160.997 65.5679C160.506 64.8959 160.037 64.2934 159.589 63.7599V71.6959H157.605V60.6079H159.253C159.68 61.0559 160.138 61.5894 160.629 62.2079C161.12 62.8159 161.61 63.4506 162.101 64.1119C162.602 64.7734 163.082 65.4399 163.541 66.1119C164.01 66.7734 164.426 67.3919 164.789 67.9679V60.6079H166.789V71.6959H165.077Z" fill="#969699"/>
<path d="M182.606 71.8236C182.021 71.8236 181.429 71.8023 180.83 71.7596C180.234 71.7276 179.71 71.653 179.262 71.5356V60.7676C179.498 60.725 179.749 60.6876 180.014 60.6556C180.282 60.613 180.554 60.581 180.83 60.5596C181.109 60.5383 181.381 60.5223 181.646 60.5116C181.925 60.501 182.186 60.4956 182.43 60.4956C183.102 60.4956 183.726 60.549 184.302 60.6556C184.878 60.7516 185.374 60.917 185.79 61.1516C186.218 61.3863 186.549 61.6956 186.782 62.0796C187.018 62.4636 187.134 62.9383 187.134 63.5036C187.134 64.0263 187.006 64.4743 186.75 64.8476C186.506 65.221 186.158 65.5196 185.71 65.7436C186.382 65.9676 186.878 66.2983 187.198 66.7356C187.518 67.173 187.678 67.7276 187.678 68.3996C187.678 69.541 187.262 70.3996 186.43 70.9756C185.598 71.541 184.325 71.8236 182.606 71.8236ZM181.246 66.7036V70.0796C181.47 70.101 181.71 70.117 181.966 70.1276C182.222 70.1383 182.458 70.1436 182.67 70.1436C183.086 70.1436 183.47 70.117 183.822 70.0636C184.186 70.0103 184.494 69.9196 184.75 69.7916C185.018 69.653 185.226 69.4716 185.374 69.2476C185.534 69.0236 185.614 68.7356 185.614 68.3836C185.614 67.7543 185.386 67.317 184.926 67.0716C184.469 66.8263 183.834 66.7036 183.022 66.7036H181.246ZM181.246 65.1196H182.67C183.438 65.1196 184.042 65.013 184.478 64.7996C184.917 64.5756 185.134 64.181 185.134 63.6156C185.134 63.0823 184.906 62.7036 184.446 62.4796C183.998 62.2556 183.413 62.1436 182.686 62.1436C182.378 62.1436 182.101 62.149 181.854 62.1596C181.621 62.1703 181.418 62.1863 181.246 62.2076V65.1196Z" fill="#969699"/>
<path d="M192.819 60.6079H194.835V71.6959H192.819V60.6079Z" fill="#969699"/>
<path d="M205.715 62.1276C204.573 62.1276 203.699 62.485 203.091 63.1996C202.493 63.9036 202.195 64.885 202.195 66.1436C202.195 66.741 202.264 67.2903 202.403 67.7916C202.552 68.2823 202.765 68.7036 203.043 69.0556C203.331 69.4076 203.683 69.685 204.099 69.8876C204.525 70.0796 205.021 70.1756 205.587 70.1756C205.939 70.1756 206.243 70.165 206.499 70.1436C206.755 70.1116 206.957 70.0743 207.107 70.0316V66.0476H209.123V71.3756C208.845 71.4823 208.376 71.5996 207.715 71.7276C207.053 71.8556 206.291 71.9196 205.427 71.9196C204.627 71.9196 203.896 71.7916 203.235 71.5356C202.573 71.2796 202.008 70.9063 201.539 70.4156C201.08 69.925 200.723 69.3223 200.467 68.6076C200.211 67.893 200.083 67.0716 200.083 66.1436C200.083 65.2156 200.221 64.3943 200.499 63.6796C200.787 62.965 201.176 62.3623 201.667 61.8716C202.157 61.3703 202.733 60.9916 203.395 60.7356C204.056 60.4796 204.76 60.3516 205.507 60.3516C206.019 60.3516 206.472 60.389 206.867 60.4636C207.272 60.5276 207.619 60.6023 207.907 60.6876C208.195 60.773 208.429 60.8636 208.611 60.9596C208.803 61.0556 208.936 61.125 209.011 61.1676L208.403 62.8156C208.083 62.6236 207.683 62.4636 207.203 62.3356C206.733 62.197 206.237 62.1276 205.715 62.1276Z" fill="#969699"/>
<path d="M219.677 62.1276C218.534 62.1276 217.661 62.485 217.053 63.1996C216.454 63.9036 216.157 64.885 216.157 66.1436C216.157 66.741 216.226 67.2903 216.365 67.7916C216.514 68.2823 216.726 68.7036 217.005 69.0556C217.293 69.4076 217.645 69.685 218.061 69.8876C218.486 70.0796 218.982 70.1756 219.549 70.1756C219.901 70.1756 220.205 70.165 220.461 70.1436C220.717 70.1116 220.918 70.0743 221.069 70.0316V66.0476H223.085V71.3756C222.806 71.4823 222.338 71.5996 221.677 71.7276C221.014 71.8556 220.253 71.9196 219.389 71.9196C218.589 71.9196 217.858 71.7916 217.197 71.5356C216.534 71.2796 215.97 70.9063 215.501 70.4156C215.042 69.925 214.685 69.3223 214.429 68.6076C214.173 67.893 214.045 67.0716 214.045 66.1436C214.045 65.2156 214.182 64.3943 214.461 63.6796C214.749 62.965 215.138 62.3623 215.629 61.8716C216.118 61.3703 216.694 60.9916 217.357 60.7356C218.018 60.4796 218.722 60.3516 219.469 60.3516C219.981 60.3516 220.434 60.389 220.829 60.4636C221.234 60.5276 221.581 60.6023 221.869 60.6876C222.157 60.773 222.39 60.8636 222.573 60.9596C222.765 61.0556 222.898 61.125 222.973 61.1676L222.365 62.8156C222.045 62.6236 221.645 62.4636 221.165 62.3356C220.694 62.197 220.198 62.1276 219.677 62.1276Z" fill="#969699"/>
<path d="M228.454 71.6959V60.6079H235.574V62.3199H230.47V65.0559H235.014V66.7359H230.47V69.9839H235.958V71.6959H228.454Z" fill="#969699"/>
<path d="M243.925 60.4956C245.525 60.4956 246.747 60.789 247.589 61.3756C248.443 61.9623 248.869 62.8583 248.869 64.0636C248.869 65.5676 248.128 66.5863 246.645 67.1196C246.848 67.365 247.077 67.6636 247.333 68.0156C247.589 68.3676 247.851 68.7516 248.117 69.1676C248.384 69.5731 248.64 69.9943 248.885 70.4316C249.131 70.8583 249.349 71.2796 249.541 71.6956H247.285C247.083 71.3116 246.864 70.9276 246.629 70.5436C246.395 70.1491 246.155 69.7703 245.909 69.4076C245.675 69.0343 245.44 68.6876 245.205 68.3676C244.971 68.0371 244.752 67.7436 244.549 67.4876C244.4 67.4983 244.272 67.5036 244.165 67.5036C244.059 67.5036 243.957 67.5036 243.861 67.5036H242.885V71.6956H240.869V60.7676C241.36 60.661 241.883 60.5916 242.437 60.5596C242.992 60.517 243.488 60.4956 243.925 60.4956ZM244.069 62.2396C243.643 62.2396 243.248 62.2556 242.885 62.2876V65.8716H243.765C244.256 65.8716 244.688 65.845 245.061 65.7916C245.435 65.7383 245.744 65.6423 245.989 65.5036C246.245 65.365 246.437 65.1783 246.565 64.9436C246.693 64.7091 246.757 64.4103 246.757 64.0476C246.757 63.7063 246.693 63.4183 246.565 63.1836C246.437 62.949 246.251 62.7623 246.005 62.6236C245.771 62.485 245.488 62.389 245.157 62.3356C244.827 62.2716 244.464 62.2396 244.069 62.2396Z" fill="#969699"/>
<path fill-rule="evenodd" clip-rule="evenodd" d="M92.1469 21.2519C92.1469 21.2519 94.1994 21.1002 94.9173 19.8862C95.6346 18.6707 99.604 9.43069 99.604 9.43069C99.604 9.43069 101.172 7.79388 102.761 9.26006C104.033 10.4348 107.529 19.583 107.529 19.583C107.529 19.583 108.146 21.0491 109.787 21.202C111.428 21.3523 121.171 22.4163 121.171 22.4163C121.171 22.4163 123.9 23.545 122.811 25.3997C122.281 26.3023 113.787 33.9015 113.787 33.9015C113.787 33.9015 112.76 35.317 113.069 36.3802C113.376 37.4421 115.478 46.4498 115.478 46.4498C115.478 46.4498 115.633 48.2709 114.864 49.081C114.094 49.8907 113.632 49.94 112.452 49.5363C111.274 49.1309 102.351 43.5653 102.351 43.5653C102.351 43.5653 101.325 43.1099 100.403 43.6146C99.4803 44.1213 90.7631 49.2312 90.7631 49.2312C90.7631 49.2312 87.6359 51.0538 86.9687 47.9666C86.8667 45.5899 89.1232 38.6063 89.1232 38.6063C89.1232 38.6063 90.0463 35.4687 88.6611 34.0517C87.2759 32.6355 80.2007 26.1597 80.2007 26.1597C80.2007 26.1597 78.2522 24.0341 80.5087 22.718C82.8157 21.9095 92.1469 21.2519 92.1469 21.2519Z" fill="#E64749"/>
<path d="M30.3353 35.6235C30.3353 32.8592 29.7853 30.6691 28.6877 29.0526C27.588 27.4374 25.8527 26.631 23.4772 26.631C22.3979 26.631 21.3799 26.7931 20.4277 27.1152C19.4722 27.4374 18.7089 27.7986 18.1325 28.1923V44.3989C18.601 44.5066 19.2031 44.6077 19.9421 44.6962C20.6778 44.7867 21.5701 44.8301 22.6151 44.8301C25.0255 44.8301 26.9155 44.0138 28.2829 42.3808C29.6504 40.7486 30.3353 38.4963 30.3353 35.6235ZM37.0283 35.7299C37.0283 37.9928 36.6949 40.0293 36.0294 41.8414C35.3643 43.6547 34.4099 45.2069 33.1689 46.499C31.9267 47.792 30.423 48.7792 28.66 49.4622C26.8958 50.1422 24.8992 50.4834 22.6678 50.4834C20.508 50.4834 18.449 50.3221 16.4854 49.9992C14.5243 49.6757 12.8957 49.3179 11.6 48.9227V9.07829L18.1325 8V22.5927C18.8879 22.1977 19.8151 21.8387 20.9121 21.5165C22.0123 21.1922 23.2258 21.032 24.557 21.032C26.5365 21.032 28.3093 21.382 29.8761 22.0809C31.4409 22.7812 32.7459 23.7761 33.7901 25.0704C34.8333 26.3613 35.6334 27.9147 36.1913 29.7254C36.7494 31.5402 37.0283 33.5418 37.0283 35.7299Z" fill="#222222"/>
<path d="M49.1759 49.7832H42.6436V21.6228H49.1759V49.7832ZM49.878 13.3862C49.878 14.6056 49.482 15.5743 48.6896 16.2936C47.8973 17.0116 46.9623 17.3699 45.8831 17.3699C44.7669 17.3699 43.8128 17.0116 43.0207 16.2936C42.229 15.5743 41.832 14.6056 41.832 13.3862C41.832 12.1301 42.229 11.1423 43.0207 10.423C43.8128 9.7057 44.7669 9.34668 45.8831 9.34668C46.9623 9.34668 47.8973 9.7057 48.6896 10.423C49.482 11.1423 49.878 12.1301 49.878 13.3862Z" fill="#222222"/>
<path d="M55.9785 14.1927L62.5116 13.1157V21.6226H72.5528V27.0615H62.5116V38.5308C62.5116 40.7905 62.8716 42.4057 63.5907 43.3756C64.3108 44.3457 65.534 44.83 67.262 44.83C68.4505 44.83 69.5035 44.7047 70.4208 44.4521C71.338 44.2012 72.0659 43.9684 72.6081 43.7537L73.6867 48.9226C72.9313 49.2449 71.9403 49.5777 70.7169 49.9189C69.4929 50.2589 68.0524 50.4289 66.398 50.4289C64.3824 50.4289 62.7004 50.1591 61.35 49.621C60.0011 49.0828 58.9305 48.3037 58.1376 47.2799C57.3465 46.2567 56.7886 45.0183 56.4643 43.5641C56.1396 42.1109 55.9785 40.4505 55.9785 38.5847V14.1927Z" fill="#222222"/>
<path d="M140.154 44.7224C142.602 44.7224 144.384 44.3096 145.5 43.4838C146.614 42.6582 147.173 41.4925 147.173 39.9838C147.173 39.0866 146.986 38.3149 146.605 37.6683C146.228 37.0226 145.69 36.439 144.988 35.9179C144.285 35.3989 143.429 34.9144 142.421 34.465C141.414 34.0174 140.263 33.577 138.967 33.1445C137.671 32.6792 136.42 32.1672 135.215 31.6114C134.008 31.0555 132.947 30.363 132.03 29.5368C131.112 28.7125 130.375 27.7254 129.816 26.5755C129.257 25.429 128.979 24.0462 128.979 22.4312C128.979 19.0577 130.149 16.4089 132.49 14.4892C134.827 12.5689 138.013 11.6074 142.044 11.6074C144.384 11.6074 146.462 11.8686 148.281 12.3897C150.097 12.9102 151.528 13.4752 152.572 14.0863L150.467 19.5775C149.243 18.8963 147.901 18.3752 146.445 18.0149C144.988 17.6578 143.484 17.4767 141.936 17.4767C140.1 17.4767 138.671 17.8541 137.645 18.6088C136.619 19.3616 136.106 20.4209 136.106 21.7847C136.106 22.6103 136.276 23.3197 136.619 23.9117C136.96 24.5037 137.446 25.0333 138.076 25.4986C138.707 25.9672 139.444 26.3976 140.289 26.7928C141.135 27.1867 142.062 27.5646 143.072 27.9218C144.832 28.5701 146.408 29.2251 147.794 29.8886C149.18 30.5528 150.35 31.3416 151.304 32.2579C152.258 33.1741 152.986 34.2502 153.489 35.4882C153.992 36.7267 154.247 38.2262 154.247 39.9838C154.247 43.3586 153.049 45.9712 150.655 47.8179C148.261 49.6682 144.762 50.5914 140.154 50.5914C138.607 50.5914 137.194 50.4925 135.917 50.2955C134.64 50.0981 133.505 49.8558 132.516 49.569C131.525 49.2816 130.67 48.9848 129.951 48.6805C129.231 48.3752 128.656 48.0968 128.225 47.8456L130.221 42.2992C131.194 42.8374 132.506 43.3762 134.163 43.9144C135.818 44.4526 137.814 44.7224 140.154 44.7224Z" fill="#222222"/>
<path d="M158.402 14.1927L164.933 13.1157V21.6226H174.976V27.0615H164.933V38.5308C164.933 40.7905 165.293 42.4057 166.014 43.3756C166.733 44.3457 167.958 44.83 169.684 44.83C170.872 44.83 171.925 44.7047 172.843 44.4521C173.76 44.2012 174.49 43.9684 175.029 43.7537L176.109 48.9226C175.354 49.2449 174.363 49.5777 173.141 49.9189C171.917 50.2589 170.477 50.4289 168.821 50.4289C166.805 50.4289 165.123 50.1591 163.775 49.621C162.422 49.0828 161.352 48.3037 160.561 47.2799C159.769 46.2567 159.21 45.0183 158.887 43.5641C158.564 42.1109 158.402 40.4505 158.402 38.5847V14.1927Z" fill="#222222"/>
<path d="M190.04 45.2069C192.054 45.2069 193.584 45.0986 194.629 44.8846V37.6686C194.269 37.5611 193.746 37.4541 193.064 37.3464C192.379 37.2389 191.624 37.1843 190.795 37.1843C190.077 37.1843 189.349 37.2389 188.61 37.3464C187.87 37.4541 187.205 37.6496 186.613 37.939C186.019 38.2258 185.541 38.6301 185.182 39.1493C184.821 39.6704 184.642 40.3254 184.642 41.1162C184.642 42.6584 185.126 43.7262 186.099 44.3182C187.07 44.9109 188.384 45.2069 190.04 45.2069ZM189.501 20.9238C191.659 20.9238 193.475 21.1922 194.954 21.7304C196.427 22.2692 197.606 23.0233 198.49 23.9933C199.371 24.9608 200.002 26.1382 200.379 27.5197C200.757 28.9011 200.946 30.4186 200.946 32.0685V49.1368C199.936 49.3526 198.416 49.6138 196.384 49.9192C194.35 50.2224 192.054 50.3771 189.501 50.3771C187.808 50.3771 186.262 50.2138 184.858 49.8915C183.453 49.5686 182.256 49.0482 181.267 48.3302C180.275 47.6128 179.504 46.6802 178.944 45.529C178.387 44.3811 178.107 42.9643 178.107 41.277C178.107 39.6618 178.424 38.2974 179.053 37.1843C179.682 36.0712 180.538 35.1654 181.618 34.4653C182.698 33.765 183.947 33.2629 185.368 32.9565C186.79 32.6531 188.275 32.5003 189.824 32.5003C190.544 32.5003 191.299 32.545 192.093 32.6355C192.883 32.7246 193.728 32.8763 194.629 33.0923V32.0158C194.629 31.2611 194.538 30.5438 194.358 29.8626C194.178 29.18 193.864 28.5787 193.414 28.0578C192.963 27.5373 192.37 27.1344 191.632 26.8456C190.894 26.5595 189.966 26.415 188.853 26.415C187.341 26.415 185.954 26.5232 184.694 26.7387C183.435 26.9533 182.408 27.2045 181.618 27.4914L180.808 22.2148C181.635 21.9293 182.842 21.6418 184.424 21.3544C186.008 21.067 187.701 20.9238 189.501 20.9238Z" fill="#222222"/>
<path d="M223.835 27.4917C223.294 27.3138 222.547 27.124 221.595 26.9272C220.64 26.7303 219.534 26.6312 218.275 26.6312C217.555 26.6312 216.79 26.7027 215.981 26.8458C215.171 26.9901 214.603 27.1155 214.277 27.2232V49.7834H207.746V22.9691C209.006 22.5025 210.581 22.0633 212.47 21.6505C214.36 21.2377 216.456 21.0317 218.76 21.0317C219.19 21.0317 219.696 21.058 220.27 21.1125C220.846 21.1649 221.422 21.2377 221.998 21.3264C222.574 21.417 223.133 21.5253 223.672 21.6505C224.213 21.7759 224.645 21.8927 224.968 22.0004L223.835 27.4917Z" fill="#222222"/>
<path d="M248.075 26.2009C247.355 26.9537 246.41 28.0129 245.242 29.3766C244.07 30.7417 242.819 32.2577 241.486 33.9268C240.157 35.5958 238.816 37.3376 237.466 39.1497C236.117 40.963 234.901 42.6942 233.822 44.3462H248.4V49.7836H225.939V45.7454C226.733 44.3094 227.723 42.7488 228.909 41.0606C230.098 39.374 231.323 37.6788 232.581 35.9726C233.842 34.2681 235.091 32.6443 236.333 31.0995C237.574 29.556 238.683 28.211 239.653 27.0619H226.643V21.6226H248.075V26.2009Z" fill="#222222"/>
</svg>
