<svg width="260" height="80" viewBox="0 0 260 80" fill="none" xmlns="http://www.w3.org/2000/svg">
<path d="M166.596 48.8102C165.841 52.7169 163.817 56.0392 160.526 58.7772C157.235 61.5151 153.644 62.8906 149.753 62.9036H121.225L130.151 17H158.675C162.582 17 165.637 18.3771 167.841 21.1313C170.045 23.8855 170.778 27.2079 170.039 31.0983C169.492 33.8981 167.649 36.8492 164.511 39.9518C166.445 43.0609 167.14 46.0137 166.596 48.8102ZM156.102 48.8102C156.21 48.3698 156.216 47.9105 156.121 47.4672C156.025 47.0238 155.83 46.608 155.55 46.2513C155.267 45.9044 154.907 45.6287 154.498 45.4464C154.089 45.264 153.643 45.1801 153.196 45.2014H140.909L143.083 34.712H155.218C156.234 34.7061 157.214 34.3332 157.977 33.662C158.779 33.0188 159.327 32.1122 159.525 31.1032C159.633 30.6627 159.64 30.2034 159.544 29.7601C159.448 29.3167 159.253 28.901 158.973 28.5443C158.69 28.198 158.329 27.923 157.921 27.7415C157.512 27.56 157.066 27.477 156.619 27.4992H138.604L133.76 52.4044H151.794C152.811 52.3994 153.791 52.0264 154.554 51.3545C155.353 50.7149 155.901 49.814 156.102 48.8102V48.8102Z" fill="#FFBC00"/>
<path d="M205.824 62.9036H166.474L175.401 17H214.746L212.71 27.4992H183.854L182.452 34.712H204.75L202.708 45.2014H180.411L179.009 52.419H207.865L205.824 62.9036Z" fill="#FFBC00"/>
<path d="M257.959 27.4992H241.892L235.007 62.9036H224.513L231.398 27.4943H215.356L217.368 17H260L257.959 27.4992Z" fill="#FFBC00"/>
<path d="M49.1852 62.9036H38.6909L42.7343 42.1102L27.8694 62.9036H21.3159L14.5329 42.12L10.4943 62.9036H0L8.9219 17H19.426L28.0354 45.2014L47.603 17H58.112L49.1852 62.9036Z" fill="#222222"/>
<path d="M91.1578 62.9036H51.8076L60.7295 17H100.08L98.0384 27.4943H69.1826L67.7811 34.7071H90.0785L88.0422 45.2014H65.7447L64.3383 52.4141H93.1941L91.1578 62.9036Z" fill="#222222"/>
<path d="M127.295 62.9036H93.7605L102.702 17H113.196L106.311 52.4141H129.336L127.295 62.9036Z" fill="#222222"/>
</svg>
