<svg width="260" height="80" viewBox="0 0 260 80" fill="none" xmlns="http://www.w3.org/2000/svg">
<g clip-path="url(#clip0)">
<path fill-rule="evenodd" clip-rule="evenodd" d="M125.186 64.9999H108.787L111.628 49.1114H128.028L125.186 64.9999ZM26.9322 34.1306L25.5013 42.6232H34.9972L33.8578 48.9768C33.6792 49.9783 32.9873 53.4365 32.0512 54.2211C31.2105 54.8017 30.1899 55.0799 29.1629 55.0086H24.2382C21.4812 55.0086 19.0668 54.3674 17.7553 51.5822C16.4687 48.6535 17.4559 42.7205 17.9404 40.0074C18.4406 37.2222 19.399 32.2559 21.6361 29.4709C22.7747 28.0989 24.2286 27.0086 25.8798 26.2887C27.5309 25.5689 29.3327 25.2397 31.1387 25.3279H49.7709L56.3157 15.012H25.5945C24.22 15.012 17.4717 15.0825 12.2373 18.4382C4.80638 23.1519 2.50755 32.3637 1.08964 40.2919C-0.085384 46.861 -1.19608 55.9317 3.50927 60.78C6.25712 63.6368 11.3721 64.9947 15.4998 64.9947H39.4689C41.5158 65.0108 43.5184 64.4129 45.2061 63.2816C47.0933 61.8668 48.3462 59.7935 48.7023 57.4961L51.3623 42.6219L51.5277 41.6857L52.5005 36.2593L52.8799 34.1306H26.9322ZM82.2161 34.1306L80.7863 42.6232H90.2811L89.1455 48.9754C88.9669 49.9768 88.275 53.4351 87.3389 54.2199C86.4982 54.8003 85.4776 55.0786 84.4506 55.0072H79.5221C76.7651 55.0072 74.3493 54.3661 73.0378 51.581C71.75 48.6522 72.7397 42.7192 73.2243 40.0059C73.7217 37.2209 74.6816 32.2547 76.9188 29.4696C78.0572 28.0976 79.5112 27.0074 81.1623 26.2875C82.8136 25.5676 84.6154 25.2384 86.4213 25.3266H105.055L111.601 15.0107H80.8797C79.5037 15.0107 72.7569 15.0813 67.5211 18.437C60.0889 23.1506 57.7914 32.3624 56.3735 40.2907C55.1985 46.861 54.0838 55.9342 58.7918 60.7837C61.5396 63.6408 66.6546 64.9987 70.7836 64.9987H94.7528C96.7996 65.0147 98.8023 64.4166 100.49 63.2856C102.377 61.8704 103.629 59.7971 103.986 57.5L106.647 42.6257L106.813 41.6896L107.784 36.2618L108.164 34.1332H82.2161V34.1306Z" fill="#FF7D02"/>
<path fill-rule="evenodd" clip-rule="evenodd" d="M172.016 64.9968C169.915 64.9968 167.841 64.8533 166.167 63.2837C164.197 61.3604 164.552 59.3563 164.975 57.0007L171.102 22.7218C171.366 20.4844 172.511 18.4354 174.296 17.0093C176.166 15.6288 178.467 14.9221 180.809 15.009H213.707L207.164 25.3133H190.334C189.393 25.279 188.464 25.5279 187.673 26.0262C186.956 26.6485 186.515 27.5192 186.444 28.4535L185.425 34.1276H205.67L204.155 42.62H183.91L182.142 52.5051C182.043 52.8218 182.027 53.1576 182.096 53.482C182.165 53.8061 182.316 54.1082 182.536 54.3605C183.414 54.9428 184.488 55.1724 185.534 55.0015H209.035L207.248 64.9943H172.016V64.9968ZM220.188 64.9968L227.293 25.2581H215.065L216.896 15H260.066L253.532 25.2581H243.655L236.551 64.9918H220.188V64.9968ZM160.489 36.787C162.718 34.7421 164.112 31.9773 164.414 29.0049C165.001 25.7185 165.457 21.1485 163.142 18.2903C160.858 15.3847 156.626 15.0282 153.072 15.0064H117.741L116.306 23.0514C116.306 23.0603 116.306 23.068 116.306 23.0783L112.812 42.62H142.328C142.994 42.5205 143.676 42.6007 144.299 42.8519C144.923 43.1032 145.464 43.5161 145.864 44.0458C146.182 44.6727 146.281 45.3837 146.147 46.0706C146.147 46.0706 145.26 51.0714 145.258 51.0855C145.039 52.1699 144.535 53.1799 143.794 54.0155C143.441 54.372 142.384 55.0157 139.27 55.0157H134.496L128.194 64.9956H144.737C149.08 64.9956 152.846 64.9956 156.729 61.4977C160.429 58.2111 161.074 54.2105 161.648 50.9985C162.198 47.9272 162.698 44.7152 160.478 42.1507C159.036 40.6288 157.049 39.7076 154.93 39.5784L154.981 39.2938C157.071 39.1497 159.034 38.2597 160.495 36.7934L160.489 36.787ZM148.31 28.3907C148.31 28.4253 148.291 28.4702 148.283 28.5074L147.939 30.3987L147.893 30.6552C147.885 30.6898 147.878 30.7244 147.868 30.7603C147.715 31.4772 147.426 32.1596 147.016 32.7722C146.483 33.3029 145.829 33.7027 145.107 33.9387C144.386 34.1748 143.617 34.2404 142.865 34.1302H130.697L131.071 32.0375L131.427 30.0564C131.461 29.8602 131.491 29.6717 131.529 29.4819L131.801 27.9676C131.807 27.5594 131.903 27.1572 132.081 26.788C132.259 26.4187 132.516 26.0908 132.834 25.8262C133.467 25.3693 134.254 25.1644 135.036 25.253H144.377C145.464 25.253 147.057 25.253 147.893 26.2545C148.315 26.8874 148.463 27.6578 148.305 28.3971L148.31 28.3907Z" fill="#222222"/>
</g>
<defs>
<clipPath id="clip0">
<rect width="260" height="80" fill="white"/>
</clipPath>
</defs>
</svg>
