<svg width="75" height="48" viewBox="0 0 75 48" fill="none" xmlns="http://www.w3.org/2000/svg">
<path d="M70.5 0H4.5C2.01472 0 0 2.01472 0 4.5V43.5C0 45.9853 2.01472 48 4.5 48H70.5C72.9853 48 75 45.9853 75 43.5V4.5C75 2.01472 72.9853 0 70.5 0Z" fill="white"/>
<path d="M44.0445 35.796H30.921V12.2114H44.0445V35.796Z" fill="#FF5F00"/>
<path d="M31.7625 24.0015C31.7625 19.218 34.002 14.955 37.491 12.2085C34.9395 10.2015 31.7205 9.00146 28.221 9.00146C19.938 9.00146 13.2225 15.717 13.2225 24.0015C13.2225 32.286 19.938 39.0015 28.221 39.0015C31.7205 39.0015 34.9395 37.803 37.491 35.7945C34.002 33.048 31.7625 28.7865 31.7625 24.0015Z" fill="#EB001B"/>
<path d="M61.7445 24.0015C61.7445 32.286 55.0305 39.0015 46.746 39.0015C43.248 39.0015 40.0275 37.803 37.476 35.7945C40.965 33.048 43.206 28.7865 43.206 24.0015C43.206 19.218 40.965 14.955 37.476 12.2085C40.0275 10.2015 43.248 9.00146 46.746 9.00146C55.0305 9.00146 61.7445 15.717 61.7445 24.0015Z" fill="#F79E1B"/>
<path d="M24.5085 24.0975C24.5085 23.442 24.9375 22.9035 25.6395 22.9035C26.31 22.9035 26.763 23.418 26.763 24.0975C26.763 24.7755 26.31 25.2899 25.6395 25.2899C24.9375 25.2899 24.5085 24.7515 24.5085 24.0975ZM27.5265 24.0975V22.2329H26.7165V22.6859C26.4585 22.3499 26.0685 22.14 25.539 22.14C24.4935 22.14 23.6745 22.959 23.6745 24.0975C23.6745 25.236 24.4935 26.0549 25.539 26.0549C26.0685 26.0549 26.4585 25.8435 26.7165 25.5075V25.9605H27.5265V24.0975ZM54.9165 24.0975C54.9165 23.442 55.3455 22.9035 56.0475 22.9035C56.718 22.9035 57.1695 23.418 57.1695 24.0975C57.1695 24.7755 56.718 25.2899 56.0475 25.2899C55.3455 25.2899 54.9165 24.7515 54.9165 24.0975ZM57.9345 24.0975V20.736H57.1245V22.6859C56.8665 22.3499 56.4765 22.14 55.947 22.14C54.9015 22.14 54.081 22.959 54.081 24.0975C54.081 25.236 54.9015 26.0549 55.947 26.0549C56.4765 26.0549 56.8665 25.8435 57.1245 25.5075V25.9605H57.9345V24.0975ZM37.587 22.8645C38.109 22.8645 38.445 23.193 38.5305 23.769H36.597C36.684 23.2305 37.0095 22.8645 37.587 22.8645ZM37.6035 22.14C36.5115 22.14 35.7465 22.935 35.7465 24.0975C35.7465 25.2825 36.543 26.0549 37.6575 26.0549C38.22 26.0549 38.733 25.914 39.186 25.533L38.7885 24.9315C38.4765 25.1805 38.079 25.3215 37.704 25.3215C37.182 25.3215 36.7065 25.08 36.5895 24.408H39.357C39.366 24.3075 39.3735 24.2055 39.3735 24.0975C39.366 22.935 38.6475 22.14 37.6035 22.14ZM47.391 24.0975C47.391 23.442 47.82 22.9035 48.522 22.9035C49.1925 22.9035 49.644 23.418 49.644 24.0975C49.644 24.7755 49.1925 25.2899 48.522 25.2899C47.82 25.2899 47.391 24.7515 47.391 24.0975ZM50.409 24.0975V22.2329H49.5975V22.6859C49.3395 22.3499 48.951 22.14 48.42 22.14C47.376 22.14 46.5555 22.959 46.5555 24.0975C46.5555 25.236 47.376 26.0549 48.42 26.0549C48.951 26.0549 49.3395 25.8435 49.5975 25.5075V25.9605H50.409V24.0975ZM42.813 24.0975C42.813 25.2285 43.6005 26.0549 44.802 26.0549C45.363 26.0549 45.738 25.929 46.143 25.6095L45.753 24.9539C45.4485 25.1729 45.129 25.2899 44.778 25.2899C44.13 25.2824 43.6545 24.8145 43.6545 24.0975C43.6545 23.379 44.13 22.911 44.778 22.9035C45.129 22.9035 45.4485 23.0205 45.753 23.2395L46.143 22.584C45.738 22.2645 45.363 22.14 44.802 22.14C43.6005 22.14 42.813 22.9665 42.813 24.0975ZM53.2635 22.14C52.7955 22.14 52.491 22.3574 52.281 22.6859V22.2329H51.477V25.9605H52.2885V23.871C52.2885 23.2545 52.554 22.9109 53.0835 22.9109C53.2485 22.9109 53.4195 22.935 53.5905 23.0055L53.841 22.2404C53.661 22.1699 53.427 22.14 53.2635 22.14ZM31.536 22.5299C31.146 22.2719 30.6075 22.14 30.015 22.14C29.0715 22.14 28.4625 22.5914 28.4625 23.3324C28.4625 23.9399 28.9155 24.3149 29.7495 24.4319L30.132 24.4875C30.5775 24.549 30.786 24.6659 30.786 24.8774C30.786 25.1654 30.4905 25.3289 29.937 25.3289C29.376 25.3289 28.9695 25.1505 28.6965 24.939L28.3155 25.5704C28.7595 25.8974 29.3205 26.0549 29.928 26.0549C31.005 26.0549 31.629 25.5479 31.629 24.8384C31.629 24.1829 31.1385 23.8395 30.327 23.7225L29.9445 23.667C29.5935 23.6205 29.313 23.5514 29.313 23.3009C29.313 23.0279 29.5785 22.8645 30.0225 22.8645C30.498 22.8645 30.9585 23.0444 31.185 23.1839L31.536 22.5299ZM41.994 22.14C41.526 22.14 41.2215 22.3574 41.0115 22.6859V22.2329H40.209V25.9605H41.019V23.871C41.019 23.2545 41.2845 22.9109 41.814 22.9109C41.979 22.9109 42.15 22.935 42.321 23.0055L42.5715 22.2404C42.3915 22.1699 42.1575 22.14 41.994 22.14ZM35.076 22.2329H33.7515V21.1019H32.931V22.2329H32.175V22.974H32.931V24.675C32.931 25.539 33.267 26.0549 34.2255 26.0549C34.578 26.0549 34.983 25.9455 35.2395 25.7655L35.0055 25.0709C34.764 25.2119 34.4985 25.2825 34.2885 25.2825C33.8835 25.2825 33.7515 25.0319 33.7515 24.6584V22.974H35.076V22.2329ZM22.9575 25.9605V23.6205C22.9575 22.74 22.3965 22.1475 21.4905 22.14C21.015 22.131 20.5245 22.2794 20.1795 22.8029C19.923 22.3889 19.518 22.14 18.948 22.14C18.5505 22.14 18.1605 22.257 17.856 22.6935V22.2329H17.046V25.9605H17.8635V23.8949C17.8635 23.2469 18.222 22.9035 18.777 22.9035C19.3155 22.9035 19.587 23.2545 19.587 23.886V25.9605H20.4075V23.8949C20.4075 23.2469 20.781 22.9035 21.3195 22.9035C21.873 22.9035 22.1385 23.2545 22.1385 23.886V25.9605H22.9575Z" fill="white"/>
</svg>
