<svg width="75" height="48" viewBox="0 0 75 48" fill="none" xmlns="http://www.w3.org/2000/svg">
<path d="M70.5 0H4.5C2.01472 0 0 2.01472 0 4.5V43.5C0 45.9853 2.01472 48 4.5 48H70.5C72.9853 48 75 45.9853 75 43.5V4.5C75 2.01472 72.9853 0 70.5 0Z" fill="white"/>
<path d="M60.6205 26.241C61.3349 26.241 61.9158 26.8216 61.9158 27.5358C61.9158 28.2499 61.3349 28.8306 60.6205 28.8306C59.9061 28.8306 59.3252 28.2499 59.3252 27.5358C59.3252 26.8216 59.9061 26.241 60.6205 26.241ZM60.6205 26.0757C59.8128 26.0757 59.1577 26.7305 59.1577 27.5379C59.1577 28.3453 59.8128 29.0001 60.6205 29.0001C61.4282 29.0001 62.0833 28.3453 62.0833 27.5379C62.0833 26.7305 61.4282 26.0757 60.6205 26.0757Z" fill="#404040"/>
<path d="M60.3767 27.7222V28.4173H60.1816V26.7453H60.6396C60.8452 26.7453 60.9957 26.7856 61.0932 26.864C61.1907 26.9424 61.2395 27.0611 61.2395 27.2179C61.2395 27.4383 61.1272 27.5887 60.9024 27.6671L61.2819 28.4194H61.0529L60.7222 27.7244H60.3767V27.7222ZM60.3767 27.5548H60.6438C60.7816 27.5548 60.8812 27.5273 60.9448 27.4722C61.0084 27.4171 61.0402 27.3366 61.0402 27.2264C61.0402 27.1162 61.0084 27.0356 60.9427 26.9869C60.877 26.9382 60.7731 26.9127 60.629 26.9127H60.3767V27.5548V27.5548Z" fill="#404040"/>
<path d="M20.5294 22.1384C20.5294 23.2064 20.1944 24.0244 19.5266 24.5902C18.8588 25.156 17.9091 25.44 16.6774 25.44H15.7721V28.9704H13.667V19.0403H16.8406C18.0447 19.0403 18.9606 19.2988 19.5881 19.818C20.2156 20.3372 20.5294 21.1107 20.5294 22.1384ZM15.7721 23.7129H16.4654C17.112 23.7129 17.5974 23.5858 17.9197 23.3294C18.2419 23.0729 18.4009 22.7021 18.4009 22.2126C18.4009 21.7188 18.2652 21.3543 17.996 21.1191C17.7267 20.8839 17.3049 20.7652 16.7282 20.7652H15.7721V23.7129Z" fill="#404040"/>
<path d="M26.7943 28.9683L26.0735 26.6055H22.4525L21.7318 28.9683H19.4634L22.9698 19H25.5456L29.0647 28.9683H26.7943ZM25.571 24.8403C24.9054 22.7 24.5301 21.4878 24.4474 21.2081C24.3626 20.9284 24.3033 20.7059 24.2672 20.5427C24.1188 21.1212 23.6906 22.5559 22.9825 24.8403H25.571Z" fill="#404040"/>
<path d="M31.7465 23.128L33.8198 19.0403H36.0882L32.7938 25.1052V28.9683H30.7013V25.173L27.4048 19.0403H29.688L31.7465 23.128Z" fill="#404040"/>
<path d="M42.6049 28.9683H36.8853V19.0403H42.6049V20.7652H38.9904V22.9458H42.3527V24.6708H38.9904V27.2306H42.6049V28.9683Z" fill="#4598D8"/>
<path d="M49.9443 28.9683H44.2246V19.0403H49.9443V20.7652H46.3297V22.9458H49.692V24.6708H46.3297V27.2306H49.9443V28.9683Z" fill="#4598D8"/>
<path d="M53.5076 25.1603V28.9704H51.4004V19.0403H54.2942C55.6446 19.0403 56.6431 19.2861 57.2897 19.7777C57.9384 20.2694 58.2606 21.0153 58.2606 22.0155C58.2606 22.6004 58.0995 23.1196 57.7773 23.5752C57.455 24.0308 57.0014 24.3868 56.412 24.6453C58.5511 28.9704 56.412 24.6453 58.5511 28.9704H56.2149L54.6249 25.1603H53.5076ZM53.5076 23.448H54.186C54.8517 23.448 55.3435 23.3378 55.6615 23.1153C55.9774 22.8928 56.1364 22.5453 56.1364 22.0685C56.1364 21.598 55.9732 21.2632 55.6509 21.064C55.3287 20.8648 54.8263 20.7652 54.1458 20.7652H53.5076V23.448Z" fill="#4598D8"/>
</svg>
