<svg width="75" height="48" viewBox="0 0 75 48" fill="none" xmlns="http://www.w3.org/2000/svg">
<path d="M70.5 0H4.5C2.01472 0 0 2.01472 0 4.5V43.5C0 45.9853 2.01472 48 4.5 48H70.5C72.9853 48 75 45.9853 75 43.5V4.5C75 2.01472 72.9853 0 70.5 0Z" fill="white"/>
<path fill-rule="evenodd" clip-rule="evenodd" d="M10 28.9204C10.0366 28.7236 10.0702 28.533 10.103 28.3462C10.1538 28.0574 10.2031 27.7776 10.2597 27.4978C10.4994 26.2322 10.7408 24.9682 10.9821 23.7043C11.2235 22.4403 11.4649 21.1764 11.7046 19.9107C11.7379 19.7504 11.7845 19.6436 11.9443 19.6169C13.1895 19.4298 14.4413 19.2963 15.6864 19.6102C16.7718 19.8773 17.5309 20.6454 17.6574 21.547C17.9171 23.3436 16.8717 24.7796 15.3202 25.2938C14.5012 25.561 13.6689 25.6278 12.8232 25.5476C12.6235 25.5276 12.5636 25.581 12.5303 25.7747C12.3505 26.7565 12.164 27.7316 11.9709 28.7067C11.9576 28.7868 11.8844 28.9137 11.8378 28.9137C11.3853 28.9237 10.9403 28.9225 10.4778 28.9213H10.4778H10.4777H10.4776H10.4776H10.4775H10.4772H10.4769H10.4766H10.4762H10.4759C10.3196 28.9208 10.1613 28.9204 10 28.9204ZM13.2422 23.9648L13.2423 23.9648H13.2423C13.5027 23.9719 13.7487 23.9786 13.9885 23.9514C14.681 23.8779 15.2336 23.564 15.5466 22.9028C15.8995 22.1548 15.6465 21.36 14.9806 21.1263C14.5079 20.9593 14.0218 20.9927 13.5357 21.0595C13.4758 21.0662 13.3959 21.1597 13.3826 21.2198C13.2894 21.7094 13.1963 22.201 13.0996 22.7112C13.0235 23.1127 12.9453 23.5257 12.8632 23.9581C12.9934 23.9581 13.1194 23.9615 13.2422 23.9648ZM21.8057 27.6381C21.7003 27.748 21.6016 27.8585 21.5052 27.9666L21.5052 27.9666L21.5052 27.9667C21.2968 28.2001 21.0989 28.4218 20.8668 28.5998C20.1677 29.1408 19.3686 29.261 18.563 28.887C17.7639 28.5197 17.4377 27.805 17.4044 26.9635C17.3311 25.1936 17.9504 23.731 19.4352 22.7158C20.3674 22.0746 21.4395 21.8809 22.5515 21.9411C22.9193 21.9628 23.2843 22.0268 23.6502 22.0909C23.8473 22.1255 24.0446 22.1601 24.2427 22.1882C24.4691 22.2216 24.5024 22.3485 24.4625 22.5421C24.409 22.8214 24.355 23.1003 24.301 23.3791L24.301 23.3792L24.301 23.3792L24.301 23.3793L24.301 23.3793L24.301 23.3794L24.301 23.3794L24.301 23.3794L24.301 23.3794L24.301 23.3794L24.301 23.3795C24.0993 24.4207 23.8981 25.4596 23.73 26.5027C23.6336 27.0998 23.5952 27.7114 23.5571 28.317V28.317C23.5505 28.4226 23.5439 28.5281 23.5369 28.6332C23.5236 28.8469 23.4703 28.9337 23.2506 28.9271C22.8378 28.9137 22.4249 28.9137 22.0121 28.9271C21.799 28.9337 21.7258 28.8536 21.7458 28.6466C21.7648 28.4177 21.777 28.1821 21.7897 27.9373C21.7948 27.8391 21.8 27.7394 21.8057 27.6381ZM22.2718 23.5106C21.6259 23.3302 21.0866 23.4571 20.6338 23.8378C19.7815 24.5591 19.3953 25.4942 19.4685 26.6095C19.4885 26.9501 19.6217 27.2774 19.9813 27.4243C20.3408 27.5713 20.6671 27.4644 20.9467 27.224C21.1132 27.077 21.273 26.9101 21.3929 26.7231C21.8625 26.004 21.9908 25.193 22.1211 24.3692C22.1663 24.0834 22.2118 23.7961 22.2718 23.5106ZM31.707 27.2507C32.0733 28.4262 33.0787 29.0807 34.8432 29.0807C36.0551 29.0473 37.2603 28.3594 38.0127 26.9435C38.4122 26.1821 38.5587 25.3673 38.5055 24.5124C38.4589 23.6909 38.1326 22.9963 37.4667 22.5021C36.7676 21.9811 35.9685 21.8743 35.1162 21.9678C32.2664 22.2884 31.1011 25.3138 31.707 27.2507ZM33.6033 26.2699C33.604 26.2358 33.6047 26.2019 33.6047 26.1687C33.6247 25.4007 33.8112 24.686 34.2706 24.0516C34.477 23.771 34.7367 23.5573 35.0829 23.4772C35.7888 23.3169 36.3681 23.7243 36.4346 24.4924C36.5145 25.4341 36.2882 26.3023 35.6955 27.057C35.4691 27.3375 35.1828 27.5312 34.8166 27.5646C34.1574 27.6247 33.658 27.1772 33.6047 26.476C33.6003 26.4089 33.6018 26.3389 33.6033 26.2699ZM40.0902 22.108H41.7815C41.7549 22.4687 41.7283 22.816 41.695 23.17C41.7564 23.1126 41.8158 23.0559 41.874 23.0003L41.8746 22.9998L41.8747 22.9996C41.9993 22.8807 42.1186 22.7669 42.241 22.6624C42.9002 22.088 43.6526 21.8342 44.5249 21.9745C45.244 22.0947 45.7434 22.6223 45.8233 23.3636C45.9101 24.1351 45.7659 24.8833 45.6219 25.6299L45.5902 25.7947C45.5319 26.0977 45.4742 26.4007 45.4166 26.7035L45.4163 26.7048L45.4162 26.7057C45.2897 27.3699 45.1635 28.0332 45.0309 28.6933C45.0109 28.7801 44.9111 28.907 44.8445 28.9137C44.2719 28.9271 43.6993 28.9204 43.1266 28.9137H43.1266C43.1074 28.9137 43.0882 28.9033 43.059 28.8875C43.0477 28.8814 43.0349 28.8744 43.02 28.867C43.1266 28.3126 43.2331 27.7516 43.333 27.1906C43.4861 26.329 43.6326 25.4741 43.7658 24.6126C43.7924 24.4656 43.7791 24.312 43.7591 24.1651C43.7059 23.6508 43.3263 23.4171 42.8336 23.5707C42.3542 23.7243 42.0678 24.0983 41.8348 24.5124C41.4885 25.1202 41.3687 25.7947 41.2488 26.4693C41.2188 26.6365 41.1891 26.8033 41.1594 26.97C41.0576 27.5424 40.9561 28.1125 40.8427 28.6866C40.8227 28.7735 40.7228 28.907 40.6562 28.9137C40.1893 28.9297 39.7181 28.9287 39.2158 28.9276C39.0877 28.9273 38.9577 28.9271 38.8251 28.9271C39.2646 26.6296 39.6774 24.3788 40.0902 22.108ZM49.6919 27.5245C48.9861 27.4377 48.5133 26.9435 48.5599 26.2489C48.7071 26.2489 48.8536 26.2511 48.9993 26.2534H48.9993L48.9994 26.2534C49.2887 26.2578 49.575 26.2622 49.8584 26.2489C50.5442 26.2088 51.2167 26.0953 51.8426 25.7814C52.6417 25.3806 53.0145 24.7194 52.9546 23.8579C52.8947 22.983 52.4219 22.3485 51.5763 22.0947C50.3111 21.714 49.1459 21.9811 48.1538 22.8293C46.9485 23.8579 46.4958 25.2204 46.6689 26.7765C46.7887 27.8785 47.388 28.6666 48.48 28.9471C49.6519 29.2477 50.8039 29.0874 51.9159 28.6332C51.9958 28.5998 52.089 28.4729 52.0823 28.3928C52.0663 28.0669 52.0333 27.741 52.0003 27.4151L52.0003 27.4149C51.992 27.3334 51.9838 27.252 51.9758 27.1706C51.9539 27.1706 51.9377 27.1694 51.9252 27.1686C51.9072 27.1673 51.8971 27.1666 51.8892 27.1706C51.816 27.1973 51.7427 27.224 51.6762 27.2507C51.0369 27.4978 50.3777 27.6047 49.6919 27.5245ZM50.7239 24.5658C50.3178 24.7796 49.2657 24.9064 48.753 24.7996C48.8595 23.9113 49.7984 23.2167 50.5908 23.4104C50.8571 23.4772 51.0502 23.6174 51.0968 23.9046C51.1434 24.1851 51.0036 24.4189 50.7239 24.5658ZM55.2119 26.2756C55.152 26.9301 55.6181 27.431 56.3305 27.5245C56.9964 27.6047 57.6356 27.5045 58.2615 27.2774C58.3191 27.2557 58.3748 27.2341 58.4359 27.2103L58.4362 27.2102C58.488 27.19 58.5437 27.1683 58.6078 27.1438C58.6208 27.2853 58.6352 27.4239 58.6495 27.5607L58.6495 27.5607C58.6789 27.8435 58.7075 28.1182 58.721 28.3928C58.7276 28.4729 58.6344 28.5998 58.5612 28.6332C57.4292 29.1007 56.264 29.261 55.0721 28.9338C54 28.6399 53.4407 27.8585 53.3075 26.7899C53.1411 25.4207 53.494 24.1851 54.4462 23.17C55.4716 22.0813 56.7301 21.6939 58.1816 22.0947C59.0672 22.3418 59.54 22.9829 59.5933 23.8846C59.6465 24.7662 59.247 25.4274 58.4147 25.8148C57.5757 26.2021 56.6835 26.2622 55.7779 26.2823C55.5981 26.2756 55.4117 26.2756 55.2119 26.2756ZM55.7624 24.8335L55.7624 24.8335C56.0578 24.8187 56.3424 24.8044 56.6235 24.7662C56.8899 24.7328 57.1562 24.6526 57.3959 24.5391C57.6556 24.4256 57.7821 24.1851 57.7422 23.8913C57.7022 23.6107 57.5158 23.4772 57.2561 23.4104C56.4704 23.1967 55.4916 23.918 55.405 24.853C55.5261 24.8454 55.6451 24.8394 55.7624 24.8335ZM59.9594 27.5245C59.8729 27.9787 59.793 28.4262 59.7064 28.9204C59.8398 28.9204 59.9712 28.9207 60.1011 28.9209C60.6135 28.922 61.1021 28.923 61.5908 28.907C61.6374 28.907 61.7106 28.7801 61.7239 28.7C61.7919 28.3664 61.8548 28.0312 61.9178 27.6961C62.0338 27.0784 62.1498 26.461 62.2966 25.8548C62.6229 24.5057 63.1755 24.0382 64.4873 23.8646C64.5405 23.8579 64.6271 23.7978 64.6404 23.751C64.724 23.3672 64.7988 22.9804 64.8765 22.5792C64.9164 22.3731 64.957 22.1631 65 21.9477C63.7348 21.8142 63.029 22.5488 62.4164 23.4505L62.4263 23.32C62.4564 22.9213 62.487 22.5155 62.523 22.088C62.3845 22.088 62.2487 22.0876 62.1147 22.0871C61.7204 22.0859 61.3426 22.0847 60.9649 22.0947C60.9116 22.1014 60.8117 22.2216 60.8051 22.295C60.663 24.0116 60.3267 25.6905 59.9907 27.3683L59.9594 27.5245Z" fill="black"/>
<path fill-rule="evenodd" clip-rule="evenodd" d="M42.33 14.0507C42.2626 14.0329 42.1952 14.015 42.1277 14C41.9213 14 41.7149 14 41.4952 14.0067C41.4201 14.0217 41.3451 14.0381 41.2694 14.0547C41.1773 14.0748 41.0842 14.0952 40.9891 14.1135C39.9704 14.3072 39.0115 14.6612 38.086 15.1287C36.0817 16.1439 34.2839 17.4596 32.6725 19.0158C31.6005 20.0443 30.5618 21.1196 29.5563 22.2216C27.7918 24.1584 26.2803 26.289 25.0751 28.6265C24.4558 29.8354 23.8965 31.071 23.6435 32.4134C23.5969 32.6605 23.6768 32.9477 23.7567 33.1948C23.79 33.295 23.9764 33.3685 24.1029 33.4086C24.1362 33.4219 24.2361 33.2549 24.2827 33.1614C24.2992 33.1252 24.3162 33.0881 24.3335 33.0502C24.6227 32.4167 25.0137 31.56 25.353 30.9929C26.0721 29.7907 26.6398 28.8603 27.4455 27.7182C28.7373 25.8816 30.2467 24.0795 31.8314 22.49C33.3296 20.9872 34.8299 19.6436 36.7143 18.6284C37.5799 18.1676 38.4655 17.7134 39.3711 17.3394C40.9359 16.6916 42.5672 16.2508 44.2452 16.0036C44.425 15.9769 44.6647 15.8367 44.7246 15.6897C44.7779 15.5562 44.6514 15.3024 44.5248 15.1755C44.0121 14.6478 43.4129 14.2471 42.6671 14.1269C42.5547 14.1102 42.4424 14.0805 42.33 14.0507ZM27.086 23.1633C27.4056 22.2951 27.5654 21.3934 27.5854 20.4584C27.5765 20.3582 27.5691 20.258 27.5617 20.1579C27.5469 19.9575 27.5321 19.7571 27.5055 19.5568C27.3257 18.0073 26.6598 16.6916 25.6011 15.5629C25.4746 15.436 25.3015 15.3358 25.1284 15.2757C24.9552 15.2089 24.842 15.3091 24.8554 15.5094C24.8557 15.5137 24.856 15.5179 24.8563 15.5221C24.8693 15.6919 24.8828 15.8676 24.9153 16.037C24.9621 16.3039 25.0085 16.5711 25.055 16.8385C25.2203 17.789 25.3859 18.7417 25.5678 19.6903C25.7476 20.6454 25.9474 21.5938 26.1604 22.5355C26.2337 22.8361 26.3535 23.1366 26.5 23.4171C26.6132 23.6308 26.773 23.6108 26.9195 23.4171C26.9861 23.337 27.0527 23.2568 27.086 23.1633Z" fill="#FC461E"/>
</svg>
