<svg width="75" height="48" viewBox="0 0 75 48" fill="none" xmlns="http://www.w3.org/2000/svg">
<path d="M70.5 0H4.5C2.01472 0 0 2.01472 0 4.5V43.5C0 45.9853 2.01472 48 4.5 48H70.5C72.9853 48 75 45.9853 75 43.5V4.5C75 2.01472 72.9853 0 70.5 0Z" fill="white"/>
<path d="M22.311 31.3501H19.2015C18.9885 31.3501 18.8085 31.5046 18.7755 31.7146L17.517 39.6871C17.493 39.8446 17.6145 39.9856 17.7735 39.9856H19.2585C19.4715 39.9856 19.6515 39.8311 19.6845 39.6211L20.025 37.4716C20.0565 37.2601 20.238 37.1056 20.451 37.1056H21.435C23.4825 37.1056 24.6645 36.1156 24.9735 34.1506C25.113 33.2911 24.9795 32.6161 24.5775 32.1436C24.135 31.6246 23.352 31.3501 22.311 31.3501ZM22.6695 34.2616C22.5 35.3776 21.648 35.3776 20.823 35.3776H20.3535L20.6835 33.2941C20.703 33.1681 20.811 33.0751 20.9385 33.0751H21.1545C21.7155 33.0751 22.245 33.0751 22.5195 33.3961C22.6815 33.5866 22.7325 33.8701 22.6695 34.2616Z" fill="#253B80"/>
<path d="M31.605 34.2255H30.1155C29.9895 34.2255 29.88 34.317 29.8605 34.443L29.7945 34.86L29.6895 34.7085C29.367 34.242 28.6485 34.0845 27.9315 34.0845C26.286 34.0845 24.8805 35.331 24.6075 37.0785C24.465 37.9515 24.6675 38.784 25.1625 39.366C25.6155 39.9 26.265 40.1235 27.0375 40.1235C28.3635 40.1235 29.0985 39.2715 29.0985 39.2715L29.031 39.684C29.007 39.843 29.1285 39.984 29.2875 39.984H30.6285C30.8415 39.984 31.0215 39.8295 31.0545 39.6195L31.86 34.524C31.8855 34.3665 31.764 34.2255 31.605 34.2255ZM29.529 37.122C29.385 37.9725 28.71 38.544 27.849 38.544C27.417 38.544 27.072 38.406 26.85 38.142C26.6295 37.881 26.547 37.5105 26.616 37.0965C26.751 36.2535 27.4365 35.664 28.284 35.664C28.707 35.664 29.0505 35.8035 29.277 36.069C29.505 36.3375 29.595 36.711 29.529 37.122Z" fill="#253B80"/>
<path d="M39.534 34.2256H38.037C37.8945 34.2256 37.761 34.2961 37.68 34.4146L35.616 37.4536L34.7415 34.5331C34.6875 34.3501 34.518 34.2256 34.3275 34.2256H32.8575C32.679 34.2256 32.5545 34.3996 32.6115 34.5676L34.2585 39.4036L32.709 41.5906C32.5875 41.7631 32.7105 42.0001 32.9205 42.0001H34.416C34.557 42.0001 34.6905 41.9311 34.77 41.8141L39.747 34.6321C39.8655 34.4596 39.744 34.2256 39.534 34.2256Z" fill="#253B80"/>
<path d="M44.487 31.3484H41.3775C41.1645 31.3484 40.9845 31.5029 40.9515 31.7129L39.693 39.6854C39.669 39.8429 39.7905 39.9854 39.9495 39.9854H41.544C41.6925 39.9854 41.82 39.8774 41.8425 39.7289L42.1995 37.4699C42.2325 37.2599 42.414 37.1054 42.6255 37.1054H43.6095C45.6585 37.1054 46.8405 36.1139 47.1495 34.1504C47.289 33.2909 47.154 32.6159 46.752 32.1434C46.311 31.6229 45.528 31.3484 44.487 31.3484ZM44.8455 34.2614C44.676 35.3759 43.824 35.3759 42.999 35.3759H42.531L42.8595 33.2924C42.879 33.1664 42.987 33.0749 43.116 33.0749H43.3305C43.8915 33.0749 44.421 33.0749 44.6955 33.3944C44.859 33.5849 44.9085 33.8684 44.8455 34.2614Z" fill="#179BD7"/>
<path d="M53.7795 34.2255H52.2915C52.164 34.2255 52.056 34.317 52.0365 34.443L51.9705 34.86L51.8655 34.7085C51.5445 34.242 50.826 34.0845 50.109 34.0845C48.4635 34.0845 47.058 35.331 46.785 37.0785C46.6425 37.9515 46.8435 38.784 47.3385 39.366C47.793 39.9 48.441 40.1235 49.2135 40.1235C50.5395 40.1235 51.2745 39.2715 51.2745 39.2715L51.2085 39.684C51.183 39.843 51.3045 39.984 51.465 39.984H52.806C53.0175 39.984 53.199 39.8295 53.232 39.6195L54.0375 34.524C54.0615 34.3665 53.94 34.2255 53.7795 34.2255ZM51.705 37.122C51.5625 37.9725 50.886 38.544 50.025 38.544C49.593 38.544 49.2465 38.406 49.026 38.142C48.8055 37.881 48.723 37.5105 48.792 37.0965C48.927 36.2535 49.6125 35.664 50.46 35.664C50.883 35.664 51.2265 35.8035 51.453 36.069C51.681 36.3375 51.771 36.711 51.705 37.122Z" fill="#179BD7"/>
<path d="M55.536 31.5674L54.2595 39.6854C54.234 39.8429 54.3555 39.9854 54.5145 39.9854H55.797C56.0115 39.9854 56.1915 39.8309 56.2245 39.6194L57.483 31.6484C57.5085 31.4909 57.3855 31.3484 57.228 31.3484H55.791C55.6635 31.3484 55.5555 31.4414 55.536 31.5674Z" fill="#179BD7"/>
<path d="M34.6035 25.5271L34.953 23.3026L34.173 23.2845H30.447L33.036 6.86554C33.045 6.81604 33.0705 6.76954 33.1095 6.73654C33.147 6.70354 33.1965 6.68555 33.2475 6.68555H39.5295C41.6145 6.68555 43.0545 7.12054 43.806 7.97704C44.1585 8.37904 44.382 8.79904 44.4915 9.26104C44.6055 9.74554 44.607 10.3246 44.496 11.0311L44.4885 11.0836V11.5365L44.8395 11.7361C45.1365 11.8936 45.372 12.0736 45.5535 12.2791C45.855 12.6226 46.05 13.059 46.1325 13.578C46.218 14.1105 46.1895 14.7436 46.05 15.4606C45.8895 16.2856 45.6285 17.004 45.2775 17.592C44.955 18.135 44.544 18.5835 44.0565 18.9315C43.59 19.263 43.0365 19.5151 42.4095 19.6756C41.802 19.8331 41.1105 19.9125 40.3515 19.9125H39.8625C39.513 19.9125 39.174 20.0385 38.907 20.265C38.64 20.4945 38.463 20.8095 38.409 21.1545L38.3715 21.354L37.7535 25.2765L37.725 25.4206C37.7175 25.4656 37.7055 25.488 37.686 25.503C37.6695 25.518 37.6455 25.5271 37.6215 25.5271H34.6035Z" fill="#253B80"/>
<path d="M45.174 11.1345C45.1545 11.2545 45.1335 11.3775 45.1095 11.5035C44.28 15.7575 41.4465 17.2275 37.8255 17.2275H35.982C35.5395 17.2275 35.1675 17.5485 35.0985 17.985L34.1535 23.97L33.8865 25.6665C33.8415 25.953 34.0635 26.2125 34.353 26.2125H37.6215C38.0085 26.2125 38.337 25.9305 38.3985 25.5495L38.43 25.383L39.0465 21.477L39.0855 21.2625C39.1455 20.88 39.4755 20.598 39.8625 20.598H40.3515C43.5195 20.598 45.999 19.3125 46.7235 15.591C47.0265 14.0355 46.869 12.738 46.068 11.8245C45.8265 11.55 45.525 11.322 45.174 11.1345Z" fill="#179BD7"/>
<path d="M44.307 10.7894C44.181 10.7534 44.049 10.7189 43.9155 10.6889C43.7805 10.6589 43.6425 10.6334 43.5015 10.6109C43.0035 10.5299 42.459 10.4924 41.877 10.4924H36.9525C36.831 10.4924 36.7155 10.5194 36.612 10.5689C36.3855 10.6784 36.216 10.8929 36.1755 11.1569L35.1285 17.7914L35.0985 17.9849C35.1675 17.5484 35.5395 17.2274 35.9835 17.2274H37.8255C41.4465 17.2274 44.2815 15.7574 45.1095 11.5034C45.1335 11.3774 45.1545 11.2544 45.174 11.1359C44.964 11.0234 44.7375 10.9289 44.493 10.8479C44.4315 10.8284 44.37 10.8089 44.307 10.7894Z" fill="#222D65"/>
<path d="M36.1755 11.157C36.216 10.893 36.3855 10.6785 36.612 10.5705C36.7155 10.521 36.831 10.4925 36.9525 10.4925H41.8755C42.459 10.4925 43.0035 10.5315 43.5015 10.611C43.6425 10.635 43.7805 10.6605 43.9155 10.6905C44.049 10.7205 44.181 10.7535 44.307 10.791C44.37 10.809 44.4315 10.8285 44.493 10.848C44.7375 10.929 44.964 11.025 45.174 11.136C45.42 9.56399 45.1725 8.49301 44.322 7.52401C43.3845 6.45751 41.694 6 39.5295 6H33.2475C32.805 6 32.4285 6.321 32.3595 6.759L29.7435 23.346C29.691 23.6745 29.9445 23.97 30.276 23.97H34.1535L35.1285 17.7915L36.1755 11.157Z" fill="#253B80"/>
</svg>
