<svg width="75" height="48" viewBox="0 0 75 48" fill="none" xmlns="http://www.w3.org/2000/svg">
<path d="M70.5 0H4.5C2.01472 0 0 2.01472 0 4.5V43.5C0 45.9853 2.01472 48 4.5 48H70.5C72.9853 48 75 45.9853 75 43.5V4.5C75 2.01472 72.9853 0 70.5 0Z" fill="white"/>
<path d="M23.614 35.4956C23.614 35.6448 23.5979 35.7837 23.5657 35.9125C23.5335 36.0412 23.4765 36.1538 23.3946 36.2504C23.3156 36.3469 23.2074 36.423 23.0699 36.4786C22.9353 36.5341 22.7641 36.5619 22.5564 36.5619C22.3633 36.5619 22.1951 36.5356 22.0518 36.4829C21.9114 36.4274 21.8031 36.3688 21.7271 36.3074L21.9245 35.873C21.9977 35.9227 22.0869 35.971 22.1922 36.0178C22.3004 36.0617 22.4102 36.0836 22.5213 36.0836C22.7086 36.0836 22.8446 36.0368 22.9294 35.9432C23.0143 35.8496 23.0567 35.6887 23.0567 35.4605V33.455H23.614V35.4956Z" fill="black"/>
<path d="M26.6142 36.4259C26.5118 36.4522 26.3787 36.4786 26.2149 36.5049C26.0511 36.5341 25.8712 36.5488 25.6751 36.5488C25.4908 36.5488 25.3358 36.5224 25.21 36.4698C25.0871 36.4171 24.9877 36.344 24.9116 36.2504C24.8385 36.1567 24.7858 36.0456 24.7536 35.9169C24.7214 35.7852 24.7053 35.6419 24.7053 35.4868V34.201H25.2363V35.4034C25.2363 35.6492 25.2714 35.8247 25.3416 35.93C25.4148 36.0353 25.5406 36.088 25.719 36.088C25.7834 36.088 25.8507 36.0851 25.9209 36.0792C25.994 36.0734 26.0481 36.0661 26.0833 36.0573V34.201H26.6142V36.4259Z" fill="black"/>
<path d="M28.3037 36.1143C28.4442 36.1143 28.5466 36.0982 28.6109 36.0661C28.6753 36.031 28.7075 35.9724 28.7075 35.8905C28.7075 35.8145 28.6724 35.7516 28.6021 35.7018C28.5349 35.6521 28.4222 35.598 28.2643 35.5395C28.1677 35.5044 28.0785 35.4678 27.9966 35.4298C27.9176 35.3888 27.8488 35.342 27.7903 35.2893C27.7318 35.2367 27.685 35.1738 27.6499 35.1006C27.6177 35.0246 27.6016 34.9324 27.6016 34.8242C27.6016 34.6135 27.6791 34.4483 27.8342 34.3283C27.9893 34.2054 28.1999 34.144 28.4661 34.144C28.6007 34.144 28.7294 34.1572 28.8523 34.1835C28.9751 34.2069 29.0673 34.2303 29.1287 34.2537L29.0322 34.6838C28.9737 34.6574 28.8991 34.634 28.8084 34.6135C28.7177 34.5901 28.6124 34.5784 28.4924 34.5784C28.3842 34.5784 28.2964 34.5975 28.2291 34.6355C28.1619 34.6706 28.1282 34.7262 28.1282 34.8022C28.1282 34.8403 28.1341 34.8739 28.1458 34.9032C28.1604 34.9324 28.1838 34.9602 28.216 34.9865C28.2482 35.01 28.2906 35.0348 28.3432 35.0611C28.3959 35.0846 28.4603 35.1094 28.5363 35.1357C28.6621 35.1826 28.7689 35.2294 28.8567 35.2762C28.9444 35.3201 29.0161 35.3713 29.0717 35.4298C29.1302 35.4853 29.1726 35.5497 29.1989 35.6228C29.2253 35.696 29.2384 35.7837 29.2384 35.8861C29.2384 36.1056 29.1565 36.2723 28.9927 36.3864C28.8318 36.4976 28.6007 36.5532 28.2994 36.5532C28.0975 36.5532 27.9351 36.5356 27.8123 36.5005C27.6894 36.4683 27.6031 36.442 27.5534 36.4215L27.6455 35.9783C27.7245 36.0105 27.8181 36.0412 27.9264 36.0704C28.0375 36.0997 28.1633 36.1143 28.3037 36.1143Z" fill="black"/>
<path d="M30.1469 33.5955L30.6779 33.5077V34.201H31.4941V34.6443H30.6779V35.579C30.6779 35.7633 30.7072 35.8949 30.7657 35.9739C30.8242 36.0529 30.9237 36.0924 31.0641 36.0924C31.1606 36.0924 31.2455 36.0821 31.3186 36.0617C31.3947 36.0412 31.4547 36.0222 31.4985 36.0046L31.5863 36.4259C31.5249 36.4522 31.4444 36.4786 31.3449 36.5049C31.2455 36.5341 31.1285 36.5488 30.9939 36.5488C30.8301 36.5488 30.6926 36.5268 30.5814 36.4829C30.4731 36.4391 30.3868 36.3762 30.3225 36.2942C30.2581 36.2094 30.2128 36.1085 30.1864 35.9915C30.1601 35.8715 30.1469 35.7355 30.1469 35.5834V33.5955Z" fill="black"/>
<path d="M35.432 35.3595C35.432 35.1226 35.3779 34.9383 35.2697 34.8066C35.1643 34.675 34.9932 34.6092 34.7562 34.6092C34.7065 34.6092 34.6538 34.6121 34.5983 34.6179C34.5456 34.6209 34.4929 34.6296 34.4403 34.6443V35.9564C34.4871 35.9885 34.5485 36.0193 34.6246 36.0485C34.7036 36.0748 34.7869 36.088 34.8747 36.088C35.0678 36.088 35.2082 36.0222 35.296 35.8905C35.3867 35.7589 35.432 35.5819 35.432 35.3595ZM35.9762 35.3508C35.9762 35.5263 35.9528 35.6872 35.906 35.8335C35.8621 35.9798 35.7977 36.1056 35.7129 36.2109C35.628 36.3162 35.5213 36.3981 35.3925 36.4566C35.2667 36.5151 35.1234 36.5444 34.9625 36.5444C34.8542 36.5444 34.7548 36.5312 34.6641 36.5049C34.5734 36.4786 34.4988 36.4493 34.4403 36.4171V37.3079H33.9093V34.2756C34.0175 34.2464 34.1507 34.2186 34.3086 34.1923C34.4666 34.1659 34.6334 34.1528 34.8089 34.1528C34.9903 34.1528 35.1526 34.1806 35.296 34.2362C35.4393 34.2917 35.5607 34.3722 35.6602 34.4775C35.7626 34.5799 35.8401 34.7057 35.8928 34.8549C35.9484 35.0012 35.9762 35.1665 35.9762 35.3508Z" fill="black"/>
<path d="M36.835 35.3595C36.835 35.1577 36.8642 34.9807 36.9227 34.8286C36.9842 34.6764 37.0646 34.5506 37.1641 34.4512C37.2635 34.3488 37.3776 34.2727 37.5064 34.223C37.6351 34.1703 37.7667 34.144 37.9013 34.144C38.2173 34.144 38.463 34.242 38.6385 34.438C38.817 34.634 38.9062 34.9266 38.9062 35.3157C38.9062 35.3449 38.9048 35.3786 38.9018 35.4166C38.9018 35.4517 38.9004 35.4839 38.8974 35.5131H37.3835C37.3981 35.6974 37.4625 35.8408 37.5766 35.9432C37.6936 36.0427 37.8618 36.0924 38.0812 36.0924C38.2099 36.0924 38.327 36.0807 38.4323 36.0573C38.5405 36.0339 38.6254 36.009 38.6868 35.9827L38.757 36.4171C38.7278 36.4317 38.6868 36.4478 38.6341 36.4654C38.5844 36.48 38.5259 36.4932 38.4586 36.5049C38.3943 36.5195 38.324 36.5312 38.248 36.54C38.1719 36.5488 38.0944 36.5532 38.0154 36.5532C37.8135 36.5532 37.638 36.5239 37.4888 36.4654C37.3396 36.404 37.2167 36.3206 37.1202 36.2153C37.0237 36.107 36.952 35.9812 36.9052 35.8379C36.8584 35.6916 36.835 35.5322 36.835 35.3595ZM38.3752 35.1226C38.3752 35.0494 38.365 34.9807 38.3445 34.9163C38.324 34.849 38.2933 34.792 38.2524 34.7452C38.2143 34.6955 38.1661 34.6574 38.1076 34.6311C38.052 34.6018 37.9847 34.5872 37.9057 34.5872C37.8238 34.5872 37.7521 34.6033 37.6907 34.6355C37.6292 34.6647 37.5766 34.7042 37.5327 34.754C37.4917 34.8037 37.4596 34.8608 37.4362 34.9251C37.4127 34.9895 37.3967 35.0553 37.3879 35.1226H38.3752Z" fill="black"/>
<path d="M41.2157 34.6794C41.1718 34.6647 41.1104 34.6501 41.0314 34.6355C40.9553 34.6179 40.8661 34.6092 40.7637 34.6092C40.7052 34.6092 40.6423 34.615 40.575 34.6267C40.5107 34.6384 40.4653 34.6487 40.439 34.6574V36.4961H39.908V34.3108C40.0104 34.2727 40.1377 34.2376 40.2898 34.2054C40.4448 34.1703 40.616 34.1528 40.8032 34.1528C40.8383 34.1528 40.8793 34.1557 40.9261 34.1616C40.9729 34.1645 41.0197 34.1703 41.0665 34.1791C41.1133 34.185 41.1587 34.1937 41.2025 34.2054C41.2464 34.2142 41.2815 34.223 41.3079 34.2318L41.2157 34.6794Z" fill="black"/>
<path d="M43.0514 33.0908C43.1743 33.0908 43.2825 33.1025 43.3761 33.1259C43.4698 33.1464 43.54 33.1654 43.5868 33.183L43.4858 33.6218C43.4361 33.5984 43.3776 33.5794 43.3103 33.5648C43.246 33.5501 43.1757 33.5428 43.0997 33.5428C43.0148 33.5428 42.9432 33.556 42.8847 33.5823C42.8261 33.6057 42.7793 33.6394 42.7442 33.6832C42.7091 33.7271 42.6843 33.7812 42.6696 33.8456C42.655 33.907 42.6477 33.9743 42.6477 34.0475V34.201H43.4815V34.6443H42.6477V36.4961H42.1167V34.0387C42.1167 33.7432 42.1942 33.5121 42.3493 33.3453C42.5043 33.1757 42.7384 33.0908 43.0514 33.0908Z" fill="black"/>
<path d="M44.1424 35.3595C44.1424 35.1577 44.1717 34.9807 44.2302 34.8286C44.2916 34.6764 44.3721 34.5506 44.4716 34.4512C44.571 34.3488 44.6851 34.2727 44.8138 34.223C44.9426 34.1703 45.0742 34.144 45.2088 34.144C45.5247 34.144 45.7705 34.242 45.946 34.438C46.1245 34.634 46.2137 34.9266 46.2137 35.3157C46.2137 35.3449 46.2122 35.3786 46.2093 35.4166C46.2093 35.4517 46.2078 35.4839 46.2049 35.5131H44.691C44.7056 35.6974 44.77 35.8408 44.8841 35.9432C45.0011 36.0427 45.1693 36.0924 45.3887 36.0924C45.5174 36.0924 45.6344 36.0807 45.7398 36.0573C45.848 36.0339 45.9328 36.009 45.9943 35.9827L46.0645 36.4171C46.0352 36.4317 45.9943 36.4478 45.9416 36.4654C45.8919 36.48 45.8334 36.4932 45.7661 36.5049C45.7017 36.5195 45.6315 36.5312 45.5555 36.54C45.4794 36.5488 45.4019 36.5532 45.3229 36.5532C45.121 36.5532 44.9455 36.5239 44.7963 36.4654C44.6471 36.404 44.5242 36.3206 44.4277 36.2153C44.3311 36.107 44.2595 35.9812 44.2127 35.8379C44.1658 35.6916 44.1424 35.5322 44.1424 35.3595ZM45.6827 35.1226C45.6827 35.0494 45.6725 34.9807 45.652 34.9163C45.6315 34.849 45.6008 34.792 45.5598 34.7452C45.5218 34.6955 45.4735 34.6574 45.415 34.6311C45.3594 34.6018 45.2922 34.5872 45.2132 34.5872C45.1313 34.5872 45.0596 34.6033 44.9981 34.6355C44.9367 34.6647 44.8841 34.7042 44.8402 34.754C44.7992 34.8037 44.767 34.8608 44.7436 34.9251C44.7202 34.9895 44.7041 35.0553 44.6954 35.1226H45.6827Z" fill="black"/>
<path d="M47.0882 35.3508C47.0882 35.1811 47.1146 35.0231 47.1672 34.8768C47.2199 34.7276 47.2945 34.5989 47.391 34.4907C47.4905 34.3824 47.6104 34.2976 47.7509 34.2362C47.8913 34.1747 48.0493 34.144 48.2248 34.144C48.4413 34.144 48.6461 34.1835 48.8391 34.2625L48.725 34.6969C48.6636 34.6706 48.5934 34.6487 48.5144 34.6311C48.4383 34.6135 48.3564 34.6048 48.2687 34.6048C48.061 34.6048 47.903 34.6706 47.7947 34.8022C47.6865 34.931 47.6324 35.1138 47.6324 35.3508C47.6324 35.579 47.6836 35.7603 47.786 35.8949C47.8884 36.0266 48.061 36.0924 48.3038 36.0924C48.3945 36.0924 48.4837 36.0836 48.5715 36.0661C48.6592 36.0485 48.7353 36.0266 48.7996 36.0002L48.8742 36.4391C48.8157 36.4683 48.7265 36.4946 48.6066 36.518C48.4895 36.5415 48.3681 36.5532 48.2423 36.5532C48.0463 36.5532 47.8752 36.5239 47.7289 36.4654C47.5856 36.404 47.4656 36.3206 47.3691 36.2153C47.2755 36.107 47.2052 35.9798 47.1584 35.8335C47.1116 35.6843 47.0882 35.5234 47.0882 35.3508Z" fill="black"/>
<path d="M49.6978 33.5955L50.2288 33.5077V34.201H51.045V34.6443H50.2288V35.579C50.2288 35.7633 50.2581 35.8949 50.3166 35.9739C50.3751 36.0529 50.4746 36.0924 50.615 36.0924C50.7115 36.0924 50.7964 36.0821 50.8695 36.0617C50.9456 36.0412 51.0055 36.0222 51.0494 36.0046L51.1372 36.4259C51.0757 36.4522 50.9953 36.4786 50.8958 36.5049C50.7964 36.5341 50.6793 36.5488 50.5448 36.5488C50.3809 36.5488 50.2434 36.5268 50.1323 36.4829C50.024 36.4391 49.9377 36.3762 49.8734 36.2942C49.809 36.2094 49.7637 36.1085 49.7373 35.9915C49.711 35.8715 49.6978 35.7355 49.6978 35.5834V33.5955Z" fill="black"/>
<path d="M21.7983 31.5208C22.3614 31.4632 22.7228 31.3368 22.8824 31.1417C23.042 30.9422 23.1218 30.4833 23.1218 29.765V24.2317C23.1218 23.7396 23.0442 23.4203 22.889 23.274C22.7339 23.1233 22.3814 23.0346 21.8316 23.008V22.7553H24.5251L27.6775 29.6254L30.6902 22.7553H33.4037V23.008C32.8982 23.0435 32.5723 23.1366 32.426 23.2873C32.2797 23.4336 32.2065 23.7484 32.2065 24.2317V30.2904C32.2065 30.787 32.2797 31.1062 32.426 31.2481C32.5723 31.3856 32.8982 31.4765 33.4037 31.5208V31.7669H29.5862V31.5208C30.136 31.4765 30.4774 31.3789 30.6104 31.2282C30.7478 31.073 30.8166 30.7072 30.8166 30.1308V24.0122L27.3316 31.7669H27.1454L23.7204 24.3315V29.765C23.7204 30.5099 23.829 30.9954 24.0462 31.2215C24.1881 31.3678 24.5051 31.4676 24.9973 31.5208V31.7669H21.7983V31.5208Z" fill="#F01010"/>
<path d="M34.1086 28.681C34.1086 27.7987 34.388 27.0538 34.9466 26.4464C35.5097 25.8345 36.2324 25.5286 37.1147 25.5286C37.9926 25.5286 38.7197 25.8168 39.2961 26.3932C39.8725 26.9696 40.1607 27.7366 40.1607 28.6943C40.1607 29.5766 39.8814 30.3436 39.3227 30.9954C38.7641 31.6472 38.0414 31.973 37.1546 31.973C36.3033 31.973 35.5828 31.6605 34.9932 31.0353C34.4035 30.4101 34.1086 29.6254 34.1086 28.681ZM36.9285 25.9276C36.5782 25.9276 36.2745 26.0429 36.0174 26.2735C35.574 26.6769 35.3523 27.373 35.3523 28.3617C35.3523 29.151 35.5296 29.887 35.8843 30.5698C36.2435 31.2525 36.7401 31.5939 37.3741 31.5939C37.8707 31.5939 38.252 31.3656 38.518 30.9089C38.7884 30.4523 38.9237 29.8537 38.9237 29.1133C38.9237 28.3462 38.753 27.6235 38.4116 26.9452C38.0702 26.2668 37.5758 25.9276 36.9285 25.9276Z" fill="#F01010"/>
<path d="M40.8191 31.5806C41.1339 31.5407 41.3534 31.4632 41.4775 31.3479C41.6061 31.2282 41.6704 30.9644 41.6704 30.5564V27.1846C41.6704 26.9008 41.6438 26.7013 41.5906 26.586C41.5063 26.4176 41.3334 26.3333 41.0718 26.3333C41.0319 26.3333 40.9898 26.3355 40.9455 26.34C40.9056 26.3444 40.8546 26.351 40.7925 26.3599V26.1271C40.9743 26.0739 41.4043 25.9365 42.0827 25.7148L42.7079 25.5086C42.7389 25.5086 42.7566 25.5197 42.7611 25.5419C42.7699 25.5641 42.7744 25.5951 42.7744 25.635V26.6126C43.1823 26.2313 43.5015 25.9697 43.7321 25.8279C44.0779 25.6106 44.437 25.502 44.8095 25.502C45.111 25.502 45.3858 25.5884 45.6341 25.7614C46.113 26.0983 46.3524 26.6991 46.3524 27.5637V30.6695C46.3524 30.9887 46.4167 31.2193 46.5453 31.3612C46.6738 31.5031 46.8889 31.5762 47.1904 31.5806V31.7669H44.3506V31.5806C44.6742 31.5363 44.9004 31.4476 45.0289 31.3146C45.1575 31.1772 45.2218 30.8823 45.2218 30.4301V27.5903C45.2218 27.209 45.1509 26.8942 45.009 26.6459C44.8671 26.3932 44.6055 26.2668 44.2242 26.2668C43.9626 26.2668 43.6966 26.3555 43.4261 26.5328C43.2754 26.6348 43.0803 26.8033 42.8409 27.0383V30.7626C42.8409 31.0818 42.9118 31.2969 43.0537 31.4077C43.1956 31.5141 43.4195 31.5718 43.7254 31.5806V31.7669H40.8191V31.5806Z" fill="#F01010"/>
<path d="M50.5024 25.5286C51.1275 25.5286 51.6751 25.7458 52.1451 26.1803C52.6151 26.6104 52.8501 27.2223 52.8501 28.0159H48.6269C48.6713 29.0445 48.904 29.7938 49.3252 30.2638C49.7464 30.7338 50.2452 30.9688 50.8216 30.9688C51.2872 30.9688 51.6795 30.8469 51.9988 30.603C52.318 30.3591 52.6128 30.0133 52.8833 29.5655L53.1161 29.6453C52.9343 30.2084 52.5929 30.7294 52.0919 31.2082C51.5953 31.6871 50.9857 31.9265 50.263 31.9265C49.4294 31.9265 48.7843 31.6117 48.3276 30.9821C47.8754 30.3525 47.6493 29.6276 47.6493 28.8073C47.6493 27.9162 47.9131 27.1469 48.4407 26.4996C48.9683 25.8522 49.6555 25.5286 50.5024 25.5286ZM50.1167 26.0141C49.6112 26.0141 49.2255 26.238 48.9594 26.6858C48.8176 26.9252 48.7156 27.2267 48.6535 27.5903H50.4314C50.9804 27.5903 51.4723 27.0801 51.2074 26.5993V26.5993C50.9901 26.2092 50.6265 26.0141 50.1167 26.0141Z" fill="#F01010"/>
<path d="M53.6215 25.6549H56.4281V25.8611C56.2064 25.8656 56.0423 25.8855 55.9359 25.921C55.732 25.9786 55.63 26.0917 55.63 26.2602C55.63 26.3222 55.6411 26.3865 55.6633 26.453C55.6854 26.5151 55.7253 26.6104 55.783 26.739L57.3392 30.1907L58.5895 26.7124C58.6028 26.6769 58.6228 26.5971 58.6494 26.473C58.6804 26.3488 58.6959 26.2646 58.6959 26.2202C58.6959 26.105 58.656 26.0207 58.5762 25.9675C58.4964 25.9143 58.3944 25.8833 58.2703 25.8744L58.0641 25.8611V25.6549H59.8931V25.8611C59.7113 25.8833 59.5738 25.9454 59.4807 26.0473C59.392 26.1493 59.3144 26.2912 59.2479 26.473L57.153 32.0196C56.7894 32.9773 56.4414 33.6712 56.1089 34.1012C55.7763 34.5313 55.3551 34.7463 54.8452 34.7463C54.5969 34.7463 54.3642 34.6843 54.1469 34.5601C53.9297 34.436 53.821 34.2387 53.821 33.9682C53.821 33.7909 53.8853 33.6446 54.0139 33.5293C54.1469 33.4184 54.3132 33.363 54.5127 33.363C54.628 33.363 54.7987 33.4051 55.0248 33.4894C55.2554 33.5736 55.4194 33.6157 55.5169 33.6157C55.7652 33.6157 56.0268 33.3275 56.3017 32.7512C56.5766 32.1748 56.7141 31.789 56.7141 31.5939C56.7141 31.554 56.7074 31.5053 56.6941 31.4476C56.6808 31.39 56.6653 31.339 56.6476 31.2947L54.5194 26.6924C54.3686 26.3643 54.2356 26.1493 54.1203 26.0473C54.0095 25.9409 53.8432 25.8722 53.6215 25.8412V25.6549Z" fill="#F01010"/>
<path d="M18.7887 13.7513C19.4138 13.7513 19.9614 13.9686 20.4314 14.4031C20.9013 14.8332 21.1363 15.445 21.1363 16.2387H16.9132C16.9575 17.2673 17.1903 18.0166 17.6115 18.4866C18.0327 18.9565 18.5315 19.1915 19.1079 19.1915C19.5734 19.1915 19.9658 19.0696 20.285 18.8257C20.6043 18.5819 20.8991 18.2361 21.1696 17.7883L21.4024 17.8681C21.2206 18.4311 20.8792 18.9521 20.3782 19.431C19.8816 19.9098 19.2719 20.1492 18.5492 20.1492C17.7157 20.1492 17.0706 19.8344 16.6139 19.2048C16.1617 18.5752 15.9355 17.8503 15.9355 17.0301C15.9355 16.1389 16.1994 15.3696 16.727 14.7223C17.2546 14.075 17.9418 13.7513 18.7887 13.7513ZM18.4029 14.2368C17.8975 14.2368 17.5117 14.4607 17.2457 14.9085C17.1038 15.148 17.0019 15.4495 16.9398 15.813H18.7177C19.2666 15.813 19.7585 15.3029 19.4936 14.8221V14.8221C19.2764 14.4319 18.9128 14.2368 18.4029 14.2368Z" fill="#F01010"/>
<path d="M21.7814 19.7701C22.1893 19.7347 22.4598 19.6637 22.5928 19.5573C22.7258 19.4465 22.7923 19.2137 22.7923 18.859V15.8596C22.7923 15.4206 22.7502 15.1081 22.666 14.9218C22.5862 14.7312 22.4376 14.6359 22.2204 14.6359C22.176 14.6359 22.1162 14.6425 22.0408 14.6558C21.9699 14.6647 21.8945 14.678 21.8147 14.6957V14.4762C22.0674 14.3876 22.3268 14.2967 22.5928 14.2036C22.8588 14.1105 23.0428 14.044 23.1448 14.0041C23.3665 13.9198 23.5948 13.8245 23.8298 13.7181C23.8609 13.7181 23.8786 13.7292 23.883 13.7513C23.8919 13.7735 23.8963 13.8201 23.8963 13.891V14.9817C24.1801 14.5871 24.4528 14.2789 24.7144 14.0573C24.9804 13.8356 25.2553 13.7247 25.539 13.7247C25.7652 13.7247 25.9492 13.7935 26.091 13.9309C26.2329 14.0639 26.3039 14.2324 26.3039 14.4363C26.3039 14.6181 26.2484 14.7711 26.1376 14.8952C26.0312 15.0194 25.896 15.0815 25.7319 15.0815C25.5634 15.0815 25.3927 15.0039 25.2198 14.8487C25.0513 14.6935 24.9183 14.6159 24.8208 14.6159C24.6656 14.6159 24.4749 14.7423 24.2488 14.995C24.0227 15.2433 23.9096 15.5004 23.9096 15.7665V18.7659C23.9096 19.1472 23.9983 19.4132 24.1757 19.564C24.353 19.7103 24.6479 19.779 25.0602 19.7701V19.9896H21.7814V19.7701Z" fill="#F01010"/>
<path d="M26.5233 19.8034C26.9933 19.7812 27.3014 19.6948 27.4478 19.544C27.5985 19.3888 27.6739 19.0652 27.6739 18.573V14.3033H26.5366V13.8577H27.6739C27.6739 13.1572 27.7692 12.5653 27.9599 12.082C28.3234 11.1554 28.9907 10.692 29.9617 10.692C30.3519 10.692 30.6999 10.7696 31.0058 10.9248C31.3162 11.08 31.4714 11.2884 31.4714 11.55C31.4714 11.6963 31.4182 11.8271 31.3118 11.9424C31.2054 12.0576 31.0768 12.1153 30.926 12.1153C30.7975 12.1153 30.6866 12.0776 30.5935 12.0022C30.5004 11.9224 30.3895 11.785 30.261 11.5899L30.1479 11.417C30.0858 11.3239 30.0127 11.2463 29.9284 11.1842C29.8442 11.1177 29.7267 11.0844 29.576 11.0844C29.239 11.0844 29.0107 11.2507 28.8909 11.5832C28.8244 11.7606 28.7912 11.9934 28.7912 12.2815V13.8577H30.4605V14.3033H28.8045V18.573C28.8045 19.074 28.871 19.3955 29.004 19.5374C29.1415 19.6748 29.4961 19.7635 30.0681 19.8034V19.9896H26.5233V19.8034Z" fill="#F01010"/>
<path d="M33.9122 13.7513C34.5373 13.7513 35.0849 13.9686 35.5549 14.4031C36.0248 14.8332 36.2598 15.445 36.2598 16.2387H32.0367C32.081 17.2673 32.3138 18.0166 32.735 18.4866C33.1562 18.9565 33.655 19.1915 34.2314 19.1915C34.6969 19.1915 35.0893 19.0696 35.4085 18.8257C35.7278 18.5819 36.0226 18.2361 36.2931 17.7883L36.5258 17.8681C36.3441 18.4311 36.0027 18.9521 35.5017 19.431C35.0051 19.9098 34.3954 20.1492 33.6727 20.1492C32.8392 20.1492 32.1941 19.8344 31.7374 19.2048C31.2852 18.5752 31.059 17.8503 31.059 17.0301C31.059 16.1389 31.3229 15.3696 31.8505 14.7223C32.3781 14.075 33.0653 13.7513 33.9122 13.7513ZM33.5264 14.2368C33.021 14.2368 32.6352 14.4607 32.3692 14.9085C32.2273 15.148 32.1254 15.4495 32.0633 15.813H33.8412C34.3901 15.813 34.882 15.3029 34.6171 14.8221V14.8221C34.3999 14.4319 34.0363 14.2368 33.5264 14.2368Z" fill="#F01010"/>
<path d="M40.2302 13.7181C40.7845 13.7181 41.2611 13.8622 41.6601 14.1504C42.0636 14.4341 42.2653 14.7467 42.2653 15.0881C42.2653 15.2344 42.2143 15.3719 42.1124 15.5004C42.0104 15.6246 41.853 15.6867 41.6402 15.6867C41.485 15.6867 41.3475 15.6335 41.2278 15.527C41.1126 15.4206 41.0283 15.2655 40.9751 15.0615L40.8953 14.7423C40.8377 14.5073 40.7379 14.341 40.596 14.2435C40.4497 14.1504 40.2568 14.1038 40.0174 14.1038C39.512 14.1038 39.0841 14.3255 38.7339 14.7689C38.388 15.2078 38.2151 15.7931 38.2151 16.5246C38.2151 17.1941 38.4058 17.7949 38.7871 18.327C39.1728 18.859 39.6915 19.125 40.3433 19.125C40.8044 19.125 41.2145 18.9743 41.5737 18.6728C41.7776 18.4999 42.0082 18.225 42.2653 17.8481L42.4515 17.9612C42.1988 18.4932 41.9328 18.9144 41.6535 19.2248C41.117 19.8189 40.4963 20.116 39.7913 20.116C39.0996 20.116 38.4878 19.8433 37.9557 19.2979C37.4237 18.7526 37.1577 18.0122 37.1577 17.0766C37.1577 16.1589 37.4481 15.3696 38.0289 14.709C38.6097 14.0484 39.3435 13.7181 40.2302 13.7181Z" fill="#F01010"/>
<path d="M46.3621 13.8577V14.3366H45.0054L44.9921 18.1673C44.9921 18.5043 45.0209 18.7592 45.0785 18.9322C45.1849 19.2381 45.3933 19.3911 45.7037 19.3911C45.8633 19.3911 46.0008 19.3534 46.116 19.278C46.2357 19.2026 46.371 19.0829 46.5217 18.9189L46.6946 19.0652L46.5483 19.2647C46.3178 19.5751 46.0739 19.7945 45.8168 19.9231C45.5596 20.0517 45.3113 20.116 45.0719 20.116C44.5487 20.116 44.194 19.8832 44.0078 19.4177C43.9058 19.1649 43.8548 18.8147 43.8548 18.3669V14.3366H43.1299C43.1077 14.3233 43.09 14.31 43.0767 14.2967C43.0678 14.2834 43.0634 14.2656 43.0634 14.2435C43.0634 14.1991 43.0723 14.1659 43.09 14.1437C43.1122 14.1171 43.1765 14.0595 43.2829 13.9708C43.5888 13.7181 43.8083 13.5141 43.9413 13.3589C44.0787 13.1993 44.398 12.7826 44.899 12.1086C44.9566 12.1086 44.9899 12.1131 44.9987 12.1219C45.012 12.1308 45.0187 12.164 45.0187 12.2217V13.8577H46.3621Z" fill="#F01010"/>
<path d="M10.8627 18.5129V16.5347C10.3801 16.5305 9.92084 16.4966 9.49717 16.4464V18.354C9.49717 18.9169 9.43248 19.2785 9.30311 19.4381C9.17373 19.5934 8.84816 19.6951 8.32568 19.7439V19.9896H12.1615V19.7439C11.6127 19.7043 11.258 19.6175 11.0973 19.4847C10.9409 19.3512 10.8627 19.0277 10.8627 18.5129Z" fill="#F01010"/>
<path d="M14.6047 11.6497C13.9891 11.2019 13.1006 10.9781 11.9404 10.9781H8.32574V11.2309C8.81694 11.2711 9.13327 11.3658 9.27616 11.5169C9.4233 11.6673 9.49723 11.9802 9.49723 12.4548V15.4726C9.93938 15.493 10.4057 15.4937 10.8628 15.4584V11.9357C10.8628 11.745 10.8941 11.6229 10.9566 11.5699C11.0234 11.512 11.1976 11.4837 11.4791 11.4837C12.0727 11.4837 12.5639 11.5678 12.952 11.7366C13.6749 12.0466 14.0367 12.6186 14.0367 13.4527C14.0367 13.9704 13.9514 14.4153 13.7005 14.7162C12.0933 16.6386 7 15.5206 7 15.5206C7 15.5206 10.0098 16.647 13.129 15.9521C13.8235 15.7974 14.4036 15.5375 14.8087 15.2077C14.8087 15.2077 14.8286 15.1915 14.84 15.1816C14.8485 15.1745 14.8642 15.1597 14.8642 15.1597C15.3063 14.7444 15.5288 14.1646 15.5288 13.4195C15.5288 12.6872 15.221 12.0974 14.6047 11.6497Z" fill="#F01010"/>
<circle cx="65.2384" cy="25.3555" r="3.76136" fill="#F01010"/>
<path d="M64.7354 26.5701C64.8959 26.5536 64.9989 26.5176 65.0445 26.462C65.09 26.4051 65.1127 26.2742 65.1127 26.0694V24.4917C65.1127 24.3513 65.0906 24.2603 65.0464 24.2186C65.0021 24.1756 64.9016 24.1503 64.7448 24.1427V24.0707H65.5129L66.4117 26.0296L67.2708 24.0707H68.0445V24.1427C67.9004 24.1529 67.8075 24.1794 67.7657 24.2224C67.724 24.2641 67.7032 24.3539 67.7032 24.4917V26.2193C67.7032 26.3608 67.724 26.4519 67.7657 26.4923C67.8075 26.5315 67.9004 26.5574 68.0445 26.5701V26.6402H66.956V26.5701C67.1128 26.5574 67.2101 26.5296 67.248 26.4866C67.2872 26.4424 67.3068 26.3381 67.3068 26.1737V24.4291L66.3131 26.6402H66.26L65.2834 24.5201V26.0694C65.2834 26.2818 65.3144 26.4203 65.3763 26.4847C65.4168 26.5265 65.5072 26.5549 65.6475 26.5701V26.6402H64.7354V26.5701Z" fill="white"/>
<path d="M63.3382 26.2192V25.6551C63.2005 25.6539 63.0696 25.6442 62.9488 25.6299V26.1739C62.9488 26.3344 62.9303 26.4375 62.8934 26.483C62.8566 26.5273 62.7637 26.5563 62.6147 26.5702V26.6403H63.7085V26.5702C63.552 26.5589 63.4509 26.5341 63.405 26.4963C63.3605 26.4582 63.3382 26.366 63.3382 26.2192Z" fill="white"/>
<path d="M64.4047 24.2622C64.2292 24.1345 63.9758 24.0707 63.645 24.0707H62.6144V24.1428C62.7544 24.1543 62.8446 24.1812 62.8854 24.2243C62.9273 24.2672 62.9484 24.3564 62.9484 24.4918V25.3522C63.0745 25.3581 63.2074 25.3583 63.3378 25.3482V24.3437C63.3378 24.2894 63.3467 24.2545 63.3645 24.2394C63.3836 24.2229 63.4332 24.2149 63.5135 24.2149C63.6827 24.2149 63.8228 24.2388 63.9335 24.287C64.1396 24.3754 64.2428 24.5385 64.2428 24.7763C64.2428 24.9239 64.2185 25.0508 64.1469 25.1366C63.6886 25.6847 62.2363 25.3659 62.2363 25.3659C62.2363 25.3659 63.0945 25.6871 63.984 25.489C64.182 25.4449 64.3474 25.3708 64.4629 25.2767C64.4629 25.2767 64.4686 25.2721 64.4718 25.2693C64.4743 25.2673 64.4787 25.263 64.4787 25.263C64.6048 25.1446 64.6682 24.9793 64.6682 24.7668C64.6682 24.558 64.5805 24.3899 64.4047 24.2622Z" fill="white"/>
</svg>
