<svg width="75" height="48" viewBox="0 0 75 48" fill="none" xmlns="http://www.w3.org/2000/svg">
<path d="M70.5 0H4.5C2.01472 0 0 2.01472 0 4.5V43.5C0 45.9853 2.01472 48 4.5 48H70.5C72.9853 48 75 45.9853 75 43.5V4.5C75 2.01472 72.9853 0 70.5 0Z" fill="white"/>
<path d="M37.1717 25.6054H38.0093V27.4825H38.6143L39.7003 25.6054H40.6159L39.3125 27.8086V27.8239L40.6936 30.228H39.747L38.6298 28.2111H38.0251V30.228H37.1872V25.6049H37.1717V25.6054ZM42.5707 26.8312C43.5785 26.8312 44.4011 27.5602 44.4011 28.5685C44.4011 29.5927 43.5943 30.3062 42.5862 30.3062C41.5774 30.3062 40.7706 29.5925 40.7706 28.5685C40.7553 27.5447 41.5619 26.8312 42.5707 26.8312ZM45.0525 26.9083H45.8438V29.5149H46.8835V26.9088H47.6742V29.5149H48.7138V26.9088H49.5051V30.228H45.0835V26.9083H45.0525ZM51.848 26.8312C52.794 26.8312 53.3216 27.5292 53.3216 28.3983C53.319 28.5073 53.3086 28.616 53.2906 28.7236H51.01C51.0567 29.2975 51.5066 29.608 52.0033 29.608C52.3441 29.608 52.6856 29.4528 52.9493 29.2512L53.2753 29.8409C52.934 30.1351 52.4219 30.3217 51.9411 30.3217C50.8393 30.3217 50.1569 29.5304 50.1569 28.5838C50.1569 27.5447 50.8548 26.8312 51.8482 26.8312H51.848ZM53.7092 29.5304C54.1129 29.4682 54.4074 29.1273 54.4074 27.9478V26.9088H56.828V30.228H56.0053V27.5751H55.1987V27.9474C55.1987 29.3901 54.8111 30.228 53.7092 30.259V29.53V29.5304ZM59.1859 26.8312C60.1321 26.8312 60.6595 27.5292 60.6595 28.3983C60.6568 28.5073 60.6465 28.616 60.6285 28.7236H58.3479C58.3947 29.2975 58.8445 29.608 59.3411 29.608C59.6821 29.608 60.0234 29.4528 60.2872 29.2512L60.6134 29.8409C60.2718 30.1351 59.7597 30.3217 59.279 30.3217C58.1777 30.3217 57.4948 29.5304 57.4948 28.5838C57.4948 27.5447 58.1932 26.8312 59.186 26.8312H59.1859ZM61.3423 26.9083H62.1643V28.1807H62.5679L63.3747 26.9086H64.29L63.2348 28.4909V28.5067L64.4139 30.228H63.4524L62.5834 28.8789H62.1495V30.228H61.3263V26.9083H61.3418H61.3423ZM42.5707 29.5927C43.1138 29.5927 43.5635 29.1736 43.5635 28.553C43.5635 27.948 43.1138 27.5133 42.5703 27.5133C42.0278 27.5133 41.5935 27.9328 41.5935 28.553C41.5935 29.1736 42.0272 29.5925 42.5707 29.5925V29.5927ZM52.484 28.1499C52.484 27.7154 52.1888 27.4517 51.8166 27.4517C51.3982 27.4517 51.0877 27.7309 51.01 28.1497L52.484 28.1499ZM59.8219 28.1499C59.8219 27.7154 59.5274 27.4517 59.1551 27.4517C58.7355 27.4517 58.4255 27.7309 58.3479 28.1497L59.8219 28.1499Z" fill="#2D3540"/>
<path d="M48.7606 15.5368V23.3715C48.7612 23.4001 48.7561 23.4286 48.7454 23.4552C48.7347 23.4818 48.7188 23.506 48.6985 23.5263C48.6783 23.5465 48.6541 23.5625 48.6275 23.5732C48.6009 23.5838 48.5724 23.589 48.5437 23.5883H46.9454C46.9168 23.589 46.8883 23.5838 46.8617 23.5732C46.8351 23.5625 46.8109 23.5465 46.7907 23.5263C46.7704 23.506 46.7544 23.4818 46.7438 23.4552C46.7331 23.4286 46.7279 23.4001 46.7286 23.3715V15.5368C46.7279 15.5082 46.7331 15.4797 46.7438 15.4531C46.7544 15.4265 46.7704 15.4023 46.7907 15.382C46.8109 15.3617 46.8351 15.3458 46.8617 15.3351C46.8883 15.3245 46.9168 15.3193 46.9454 15.3199H48.5437C48.5724 15.3193 48.6009 15.3245 48.6275 15.3351C48.6541 15.3458 48.6783 15.3617 48.6985 15.382C48.7188 15.4023 48.7347 15.4265 48.7454 15.4531C48.7561 15.4797 48.7612 15.5082 48.7606 15.5368V15.5368ZM61.2337 15.3199C61.2961 15.3199 61.3737 15.3507 61.4506 15.4129C61.4976 15.4592 61.4976 15.5368 61.4821 15.5991L58.8445 23.4491C58.8285 23.4897 58.8008 23.5247 58.7649 23.5496C58.7291 23.5744 58.6866 23.5881 58.643 23.5889H57.2158C57.1227 23.5889 57.045 23.5421 57.0142 23.4491L55.4774 18.8726L53.9416 23.4488C53.9256 23.4893 53.8979 23.5242 53.862 23.5491C53.8261 23.5739 53.7837 23.5876 53.7401 23.5883H52.3129C52.22 23.5883 52.1421 23.5421 52.1113 23.4486L49.4735 15.5986C49.458 15.5368 49.458 15.4747 49.5045 15.4129C49.5357 15.3507 49.6133 15.3199 49.6751 15.3199H51.4593C51.5522 15.3199 51.6298 15.3815 51.6612 15.4747L53.0727 20.1133L54.6243 15.4747C54.6403 15.4341 54.668 15.3991 54.7039 15.3742C54.7398 15.3493 54.7822 15.3357 54.8259 15.3349H56.0824C56.1754 15.3349 56.253 15.3815 56.284 15.4747L57.8356 20.1133L59.2475 15.4747C59.2601 15.4307 59.2865 15.3919 59.3228 15.3641C59.359 15.3362 59.4033 15.3207 59.449 15.3198H61.2332L61.2337 15.3199ZM63.9331 15.3199C64.0416 15.3199 64.1347 15.4129 64.15 15.5368V23.3715C64.1507 23.4001 64.1455 23.4286 64.1348 23.4552C64.1242 23.4818 64.1082 23.506 64.0879 23.5263C64.0677 23.5465 64.0435 23.5625 64.0169 23.5732C63.9903 23.5838 63.9618 23.589 63.9331 23.5883H62.335C62.3064 23.589 62.2779 23.5838 62.2513 23.5732C62.2247 23.5625 62.2005 23.5465 62.1803 23.5263C62.16 23.506 62.144 23.4818 62.1334 23.4552C62.1227 23.4286 62.1175 23.4001 62.1182 23.3715V15.5368C62.1175 15.5082 62.1227 15.4797 62.1334 15.4531C62.144 15.4265 62.16 15.4023 62.1803 15.382C62.2005 15.3617 62.2247 15.3458 62.2513 15.3351C62.2779 15.3245 62.3064 15.3193 62.335 15.3199H63.9331ZM45.7975 23.3097C45.8904 23.4181 45.813 23.573 45.6732 23.573H43.7183C43.6798 23.5741 43.6416 23.5662 43.6066 23.5501C43.5716 23.5339 43.5409 23.5099 43.5167 23.4799L43.1912 23.0768C42.5085 23.5107 41.7014 23.775 40.8483 23.775C38.4596 23.775 36.5202 21.8357 36.5202 19.4465C36.5202 17.0573 38.4596 15.1178 40.8485 15.1178C43.2377 15.1178 45.177 17.0573 45.177 19.4465C45.177 20.2999 44.9286 21.1067 44.4943 21.7889L45.7975 23.3092V23.3097ZM29.4613 27.1104C29.8648 27.2655 30.0201 27.8704 30.0509 28.1341C30.1132 28.6152 29.9738 28.8013 29.8185 28.8013C29.6632 28.8013 29.4458 28.6154 29.2135 28.243C28.9804 27.8702 28.8873 27.4517 29.0117 27.2343C29.089 27.0944 29.2596 27.0328 29.4617 27.1104H29.4613ZM27.1033 28.8636C27.3517 28.8636 27.6309 28.972 27.8791 29.1891C28.3598 29.5926 28.4998 30.058 28.2514 30.3992C28.1116 30.5699 27.8791 30.6786 27.6154 30.6786C27.3517 30.6786 27.0723 30.5854 26.8864 30.4147C26.4519 30.0425 26.328 29.4214 26.6066 29.0806C26.7156 28.9407 26.8864 28.8636 27.1033 28.8636V28.8636ZM21.6739 33.3468C15.7781 33.347 11 28.5685 11 22.6735C11 16.7781 15.7784 12 21.6733 12C27.5684 12 32.347 16.7784 32.347 22.6733C32.347 24.6743 31.7886 26.552 30.8425 28.1497C30.8112 28.1962 30.7336 28.1807 30.7181 28.1186C30.3458 25.497 28.748 24.0538 26.4208 23.6197C26.2188 23.5883 26.1879 23.4644 26.4517 23.4336C27.1654 23.3715 28.1736 23.3868 28.7012 23.4799C28.7325 23.207 28.7481 22.9325 28.7478 22.6578C28.7478 18.7636 25.5828 15.5986 21.6886 15.5986C17.795 15.5986 14.6299 18.7636 14.6299 22.6578C14.6299 26.552 17.795 29.717 21.6892 29.717H22.0146C21.904 29.0872 21.8571 28.4478 21.8747 27.8086C21.8907 27.3741 21.9837 27.3118 22.1699 27.6533C23.1473 29.3443 24.5436 30.8646 27.2738 31.4699C29.5078 31.9665 31.7417 32.5402 34.1463 35.5964C34.3635 35.8601 34.038 36.1393 33.7896 35.9223C31.3386 33.7499 29.1047 33.0364 27.0721 33.0364C24.7915 33.0523 23.2402 33.347 21.6733 33.347L21.6739 33.3468ZM41.919 21.572L41.0655 20.5323C40.9729 20.4239 41.0506 20.2531 41.19 20.2531H42.9895C43.0824 20.0049 43.1293 19.7257 43.1293 19.4465C43.1293 18.1589 42.1674 17.0418 40.8485 17.0418C39.5303 17.0418 38.5679 18.1589 38.5679 19.4465C38.5679 20.7339 39.5301 21.8357 40.8485 21.8357C41.2208 21.851 41.5935 21.7428 41.919 21.5718V21.572Z" fill="#FF8C00"/>
</svg>
