<svg width="75" height="48" viewBox="0 0 75 48" fill="none" xmlns="http://www.w3.org/2000/svg">
<path d="M70.5 0H4.5C2.01472 0 0 2.01472 0 4.5V43.5C0 45.9853 2.01472 48 4.5 48H70.5C72.9853 48 75 45.9853 75 43.5V4.5C75 2.01472 72.9853 0 70.5 0Z" fill="white"/>
<path fill-rule="evenodd" clip-rule="evenodd" d="M45.8642 17.7018C45.8642 16.5746 46.7834 15.6602 47.9152 15.6602C49.049 15.6602 49.9675 16.5746 49.9675 17.7018C49.9675 18.8297 49.049 19.7422 47.9152 19.7422C46.7834 19.7422 45.8642 18.8297 45.8642 17.7018ZM51.7612 17.3298L55.9212 16.5892V32.4789H51.7612V17.3298ZM57.8374 17.3298V32.4789H62V16.5892L57.8374 17.3298ZM45.8355 20.8568V32.4789H49.9975V20.8568H45.8355ZM37.6888 25.9408C37.6888 22.5272 39.6424 20.8098 43.4878 20.6864C43.4878 20.6864 44.1823 20.6599 44.5923 20.7468V24.1438C42.1547 24.2273 41.8854 25.1033 41.8854 27.1463V32.4789H37.6888V25.9408ZM32.1964 20.8436C32.1912 20.8567 32.1842 20.875 32.1753 20.8983C32.0263 21.2875 31.3481 23.0585 29.8261 24.8898V16.5892L25.5309 17.4346V32.4789H29.8261V27.8279C31.0699 29.6846 31.6845 32.4789 31.6845 32.4789H36.8283C36.3197 30.3742 34.0941 26.4944 34.0941 26.4944C36.0924 23.9734 36.9689 21.2885 37.1089 20.8436H32.1964ZM16.5839 21.2971C16.5839 22.3879 17.8024 22.4668 18.3283 22.5006C22.1856 22.7579 24.4846 24.6365 24.4846 27.5269C24.4846 30.0771 22.4289 32.6493 17.843 32.6493C15.7167 32.6493 13.9023 32.4411 12.2933 32.02V28.308C13.3678 28.7476 15.1381 29.2091 16.9618 29.2091C18.6262 29.2091 19.616 28.6614 19.616 27.7305C19.616 26.6073 18.4156 26.5341 17.9553 26.506L17.9503 26.5057C12.5786 26.1417 12 22.9801 12 21.638C12 19.3072 13.6624 16.5892 18.3543 16.5892C21.0758 16.5892 22.5429 17.0116 23.8067 17.4512L23.87 17.4704V21.0757L23.8227 21.0624C23.3154 20.8489 22.7195 20.6393 22.7195 20.6393C21.649 20.3204 20.152 19.9809 18.9948 19.9809C18.3369 19.9809 16.5839 19.9809 16.5839 21.2971Z" fill="#862165"/>
</svg>
