<svg width="75" height="48" viewBox="0 0 75 48" fill="none" xmlns="http://www.w3.org/2000/svg">
<path d="M70.5 0H4.5C2.01472 0 0 2.01472 0 4.5V43.5C0 45.9853 2.01472 48 4.5 48H70.5C72.9853 48 75 45.9853 75 43.5V4.5C75 2.01472 72.9853 0 70.5 0Z" fill="white"/>
<path d="M17.1947 22.0633C17.1947 21.6076 17.6739 21.3797 18.3128 21.3797C19.2712 21.3797 20.5491 21.6835 21.5075 22.2152V19.3291C20.4692 18.9494 19.3511 18.7215 18.3128 18.7215C15.7571 18.7215 14 20.0127 14 22.2152C14 25.557 18.792 24.9494 18.792 26.4684C18.792 27 18.3128 27.2278 17.594 27.2278C16.5557 27.2278 15.198 26.7722 14.1597 26.2405V29.1266C15.3577 29.5823 16.4759 29.8101 17.594 29.8101C20.2296 29.8101 21.9867 28.5949 21.9867 26.3924C22.0666 22.7468 17.1947 23.4304 17.1947 22.0633V22.0633ZM37.0815 29.5823H40.2762V18.9494H37.0815V29.5823ZM26.2196 16.443L23.1048 17.0506V26.6203C23.1048 28.443 24.5424 29.7342 26.3794 29.7342C27.4176 29.7342 28.2163 29.5823 28.6156 29.3544V26.9241C28.2163 27.0759 26.2196 27.6076 26.2196 25.8608V21.5316H28.6156V18.9494H26.2196V16.443ZM32.9285 19.8608L32.8486 18.9494H29.9734V29.5823H33.1681V22.3671C33.9667 21.4557 35.3245 21.6076 35.7238 21.7595V18.9494C35.3245 18.7975 33.7271 18.5696 32.9285 19.8608V19.8608ZM37.0815 18.1139L40.2762 17.5063V15L37.0815 15.6076V18.1139V18.1139ZM62 24.2658C62 21.1519 60.4027 18.7215 57.3677 18.7215C54.3328 18.7215 52.4958 21.1519 52.4958 24.2658C52.4958 27.9114 54.6522 29.7342 57.7671 29.7342C59.2845 29.7342 60.4027 29.4304 61.2812 28.8987V26.5443C60.4027 27 59.4443 27.2278 58.1664 27.2278C56.8885 27.2278 55.8503 26.7722 55.6905 25.3291H61.9201C62 25.1772 62 24.5696 62 24.2658V24.2658ZM55.6905 23.1266C55.6905 21.7595 56.5691 21.2278 57.3677 21.2278C58.1664 21.2278 58.9651 21.7595 58.9651 23.1266H55.6905ZM47.3045 18.7215C46.0266 18.7215 45.3078 19.2532 44.8286 19.7089L44.7488 18.9494H41.8735V33L45.0682 32.4684V29.0506C45.5474 29.3544 46.1864 29.8101 47.3045 29.8101C49.6206 29.8101 51.6972 28.0633 51.6972 24.1899C51.6173 20.6962 49.5408 18.7215 47.3045 18.7215V18.7215ZM46.5058 27.0759C45.787 27.0759 45.3078 26.8481 44.9884 26.4684V21.9873C45.3078 21.6076 45.787 21.3797 46.5058 21.3797C47.7038 21.3797 48.5025 22.5949 48.5025 24.1899C48.5025 25.8608 47.7038 27.0759 46.5058 27.0759Z" fill="#6974DE"/>
</svg>
