<svg width="75" height="48" viewBox="0 0 75 48" fill="none" xmlns="http://www.w3.org/2000/svg">
<path d="M70.5 0H4.5C2.01472 0 0 2.01472 0 4.5V43.5C0 45.9853 2.01472 48 4.5 48H70.5C72.9853 48 75 45.9853 75 43.5V4.5C75 2.01472 72.9853 0 70.5 0Z" fill="white"/>
<path d="M33.7005 32.3025H29.082L31.971 15.75H36.588L33.7005 32.3025Z" fill="#00579F"/>
<path d="M50.439 16.1551C49.527 15.8206 48.0825 15.4501 46.2975 15.4501C41.7375 15.4501 38.526 17.7046 38.5065 20.9266C38.469 23.3041 40.806 24.6241 42.5535 25.4176C44.34 26.2276 44.9475 26.7556 44.9475 27.4786C44.928 28.5871 43.503 29.0986 42.174 29.0986C40.3305 29.0986 39.342 28.8346 37.842 28.2181L37.233 27.9526L36.588 31.6696C37.671 32.1271 39.666 32.5321 41.7375 32.5501C46.5825 32.5501 49.7355 30.3316 49.773 26.8966C49.7925 25.0126 48.558 23.5681 45.897 22.3891C44.283 21.6316 43.293 21.1201 43.293 20.3461C43.3125 19.6411 44.13 18.9196 45.9525 18.9196C47.454 18.8836 48.5565 19.2181 49.392 19.5541L49.8105 19.7296L50.439 16.1551Z" fill="#00579F"/>
<path d="M56.5755 26.439C56.955 25.488 58.419 21.807 58.419 21.807C58.3995 21.843 58.7985 20.8395 59.0265 20.223L59.349 21.6495C59.349 21.6495 60.2235 25.611 60.414 26.439C59.691 26.439 57.4875 26.439 56.5755 26.439ZM62.2755 15.75H58.704C57.6015 15.75 56.766 16.0485 56.2905 17.124L49.431 32.3025H54.276C54.276 32.3025 55.074 30.2595 55.245 29.82C55.7775 29.82 60.4905 29.82 61.1745 29.82C61.3065 30.4005 61.725 32.3025 61.725 32.3025H66L62.2755 15.75Z" fill="#00579F"/>
<path d="M25.2255 15.75L20.7045 27.0375L20.2095 24.7485C19.374 22.107 16.752 19.2375 13.8255 17.8095L17.9685 32.286H22.851L30.108 15.75H25.2255Z" fill="#00579F"/>
<path d="M16.5045 15.75H9.07649L9 16.0845C14.7945 17.4585 18.633 20.769 20.2095 24.7485L18.5955 17.142C18.3285 16.0845 17.5125 15.7845 16.5045 15.75Z" fill="#FAA61A"/>
</svg>
