<svg width="75" height="48" viewBox="0 0 75 48" fill="none" xmlns="http://www.w3.org/2000/svg">
<path d="M70.5 0H4.5C2.01472 0 0 2.01472 0 4.5V43.5C0 45.9853 2.01472 48 4.5 48H70.5C72.9853 48 75 45.9853 75 43.5V4.5C75 2.01472 72.9853 0 70.5 0Z" fill="white"/>
<path fill-rule="evenodd" clip-rule="evenodd" d="M28.3346 32.3173C28.6479 32.1545 29.1805 31.9409 29.7447 31.9409C31.0397 31.9409 31.7396 32.8154 31.7396 34.4426C31.7396 36.3434 30.7999 37.2688 29.2852 37.2688C28.7314 37.2688 27.8749 37.096 27.2481 36.7701V29.6738L28.3346 29.4195V32.3173ZM28.3243 36.3941C28.6583 36.5366 29.0241 36.5567 29.2853 36.5567C30.0582 36.5567 30.6431 36.0892 30.6431 34.4426C30.6431 33.1509 30.1626 32.7341 29.4628 32.7341C29.0448 32.7341 28.7421 32.8459 28.3243 33.0696V36.3941ZM17.1991 32.0729H17.2722L18.6925 37.1467H19.8205L21.5129 29.9377H20.2907L19.2253 35.3165H19.1525L17.7003 29.9377H16.7707L15.4129 35.3165H15.3397L14.1698 29.9377H13L14.6922 37.1467H15.82L17.1991 32.0729ZM26.1415 36.8007V36.028C25.567 36.3636 25.0449 36.5567 24.4809 36.5567C23.405 36.5567 22.8933 36.0176 22.8933 34.7977H26.2982V34.4217C26.2982 32.7647 25.4938 31.9409 24.1885 31.9409C22.6217 31.9409 21.8174 33.0594 21.8174 34.6046C21.8174 36.2113 22.538 37.2688 24.2927 37.2688C25.0449 37.2688 25.6715 37.0654 26.1415 36.8007ZM25.3059 34.1167H22.9144C23.029 33.1002 23.5196 32.6222 24.1572 32.6222C24.7212 32.6222 25.2541 33.049 25.3059 34.1167ZM36.5446 35.6215H36.4922L34.1525 29.9377H32.8887V37.1467H33.8288V32.0427H33.9227L36.0538 37.1467H36.722L38.8529 31.9206H38.9472V37.1467H40.0752V29.9377H38.7798L36.5446 35.6215ZM41.2243 34.6046C41.2243 32.8253 42.2271 31.9409 43.6058 31.9409C44.9847 31.9409 45.9876 32.8253 45.9876 34.6046C45.9876 36.3434 45.037 37.2688 43.6058 37.2688C42.1746 37.2688 41.2243 36.3434 41.2243 34.6046ZM44.8905 34.6046C44.8905 33.2322 44.3158 32.6528 43.6057 32.6528C42.9163 32.6528 42.3208 33.2322 42.3208 34.6046C42.3208 35.998 42.8643 36.5567 43.6057 36.5567C44.3472 36.5567 44.8905 35.998 44.8905 34.6046ZM49.6426 31.9409C48.442 31.9409 47.4494 32.4187 46.9794 32.6933V37.1467H48.0659V33.1203C48.3895 32.9376 48.9223 32.7542 49.3404 32.7542C49.873 32.7542 50.2799 32.8966 50.2799 33.6999V37.1467H51.3662V33.4658C51.3662 32.4187 50.8966 31.9409 49.6426 31.9409ZM56.6617 36.028V36.8007C56.1919 37.0654 55.5655 37.2688 54.8131 37.2688C53.0586 37.2688 52.3378 36.2113 52.3378 34.6046C52.3378 33.0594 53.1423 31.9409 54.7089 31.9409C56.0148 31.9409 56.8193 32.7647 56.8193 34.4217V34.7977H53.414C53.414 36.0176 53.9258 36.5567 55.0015 36.5567C55.5655 36.5567 56.0878 36.3636 56.6617 36.028ZM53.4348 34.1167H55.8266C55.7747 33.049 55.2416 32.6222 54.6776 32.6222C54.0402 32.6222 53.5499 33.1002 53.4348 34.1167ZM62 32.1137H60.8823L59.6911 35.855H59.6289L58.2919 32.1137H57.1429L59.1484 37.1974C58.8973 37.9496 58.4591 38.4991 57.7488 38.4991V39.3324C58.9494 39.3324 59.5868 38.6007 60.1092 37.1974L62 32.1137Z" fill="#0068A3"/>
<path fill-rule="evenodd" clip-rule="evenodd" d="M36.7997 8.62665C38.2371 8.62665 39.5985 8.95248 40.8109 9.53096C41.0014 9.61889 41.1913 9.71563 41.3817 9.82245L40.539 10.5566L39.2728 9.28227L37.1357 11.1376L35.8664 9.78918L31.8855 13.282L34.4376 16.0197L33.4347 16.8784L35.9484 19.6203L34.9514 20.4769L38.5434 24.3688L40.6757 22.458L42.5192 24.5056C42.1525 24.7831 41.753 25.0442 41.313 25.2855C39.9799 26.0254 38.4392 26.4491 36.7997 26.4491C31.7575 26.4491 27.645 22.4456 27.645 17.5381C27.645 12.6296 31.7575 8.62665 36.7997 8.62665ZM35.1312 16.9748L37.3082 15.0665L39.2684 17.186L37.0917 19.0936L35.1312 16.9748ZM38.8564 18.7285L36.6793 20.6362L38.6399 22.7558L40.8168 20.8475L38.8564 18.7285ZM33.5736 13.3561L35.7505 11.4484L37.7102 13.5674L35.5333 15.4751L33.5736 13.3561ZM39.2012 10.8985L37.5685 12.3291L39.0384 13.9189L40.6711 12.4877L39.2012 10.8985ZM40.4693 18.8834L42.1026 17.4522L43.5726 19.0418L41.9399 20.4726L40.4693 18.8834ZM43.538 20.6621L41.9057 22.0935L43.3757 23.6822L45.0084 22.2514L43.538 20.6621ZM42.5632 14.7362L43.6517 13.7822L44.6316 14.8417L43.5436 15.7955L42.5632 14.7362ZM42.2611 10.6343L41.1726 11.5881L42.1525 12.6476L43.2411 11.6938L42.2611 10.6343ZM43.9548 17.8841L45.0432 16.9302L46.0233 17.9895L44.9348 18.9434L43.9548 17.8841ZM40.7059 14.0939L39.0733 15.5252L40.5437 17.1139L42.1758 15.6831L40.7059 14.0939Z" fill="#0068A3"/>
</svg>
