<svg width="75" height="48" viewBox="0 0 75 48" fill="none" xmlns="http://www.w3.org/2000/svg">
<path d="M70.5 0H4.5C2.01472 0 0 2.01472 0 4.5V43.5C0 45.9853 2.01472 48 4.5 48H70.5C72.9853 48 75 45.9853 75 43.5V4.5C75 2.01472 72.9853 0 70.5 0Z" fill="white"/>
<rect x="51.2627" y="18.1397" width="13.7291" height="12.3546" fill="#D6AB05"/>
<path d="M64.1842 18.1351V26.0219L52.0025 29.9752L61.6356 23.4282V9C61.6356 9 54.743 14.473 52.5924 16.0727C49.9951 18.0094 49.8892 18.8035 49.8892 20.0546V29.6496C49.8892 30.0809 50.0638 30.498 50.3702 30.8036C50.6766 31.1093 51.0919 31.2835 51.5271 31.2835H66.8789V18.1351H64.1842ZM57.2343 17.8637C57.7984 17.1953 58.6203 16.9553 59.0727 17.3353C59.5252 17.7123 59.4335 18.5635 58.8694 19.232C58.3053 19.9004 57.4834 20.1375 57.031 19.7604C56.5814 19.3805 56.6702 18.5321 57.2343 17.8637Z" fill="#FFCC00"/>
<path fill-rule="evenodd" clip-rule="evenodd" d="M59.0722 17.3352C58.6198 16.9553 57.7979 17.1952 57.2338 17.8636C56.6697 18.5321 56.5809 19.3804 57.0305 19.7603C57.4829 20.1374 58.3048 19.9003 58.8689 19.2319C59.4331 18.5635 59.5247 17.7122 59.0722 17.3352Z" fill="black"/>
<path d="M20.3782 21.1367V29.6594H19.0724V25.8378H17.1061V29.6599H15.7842V21.1372H17.1061V24.7558H19.0724V21.1367H20.3782ZM27.1764 31.3337H25.9898V29.6599H22.3279V31.3337H21.1412V28.5774H21.6664C21.8588 28.1266 22.0113 27.6279 22.1244 27.0809C22.237 26.5344 22.3248 25.9708 22.387 25.3895C22.4491 24.8092 22.4885 24.2174 22.5061 23.6144C22.5228 23.011 22.5314 22.4277 22.5314 21.8636V21.1367H26.4983V28.5774H27.1764V31.3337ZM25.193 22.2187H23.7185V22.3708C23.7185 22.8206 23.7094 23.3127 23.6923 23.8467C23.6748 24.3903 23.6381 24.9331 23.5822 25.4741C23.526 26.0197 23.4469 26.5627 23.3449 27.1016C23.2515 27.606 23.1095 28.1003 22.9207 28.5774H25.193V22.2187ZM32.9233 29.0846C32.6428 29.3039 32.3279 29.4753 31.9912 29.5919C31.6407 29.7158 31.2504 29.7782 30.8212 29.7782C29.9395 29.7782 29.2447 29.4372 28.7357 28.7552C28.2273 28.0732 27.9733 27.0724 27.9733 25.7532C27.9733 25.0661 28.0207 24.4345 28.1172 23.8592C28.2136 23.284 28.3656 22.7854 28.5752 22.3628C28.7837 21.9396 29.0523 21.6102 29.3806 21.3735C29.7078 21.1367 30.0976 21.0184 30.5495 21.0184C30.9 21.0184 31.2221 21.0889 31.5165 21.2299C31.8099 21.371 32.0583 21.5991 32.2623 21.915C32.4653 22.2303 32.6234 22.6388 32.737 23.1405C32.8496 23.6422 32.9062 24.2536 32.9062 24.9755V25.7023H29.3462C29.3462 26.6724 29.479 27.4048 29.7451 27.9009C30.0102 28.3971 30.4087 28.6449 30.9399 28.6449C31.3125 28.6449 31.6433 28.5804 31.9316 28.4505C32.2194 28.321 32.4487 28.1941 32.6183 28.0702L32.9233 29.0846ZM30.55 22.1008C30.143 22.1008 29.8552 22.329 29.6856 22.7859C29.5154 23.2422 29.4078 23.8537 29.3629 24.6203H31.5504C31.5504 24.2597 31.5332 23.9242 31.4994 23.6144C31.4729 23.3419 31.4189 23.0728 31.3383 22.811C31.2645 22.5854 31.1631 22.4106 31.0333 22.2867C30.969 22.2253 30.8931 22.1772 30.8101 22.1453C30.7271 22.1133 30.639 22.0985 30.55 22.1008ZM35.5844 25.4152V29.6599H34.263V21.1372H35.5854V25.0767L37.6366 21.1367H38.9757L36.8569 25.1447L39.2812 29.6599H37.8406L35.5844 25.4152ZM42.3831 29.7777C41.4671 29.7777 40.7496 29.4146 40.23 28.6872C39.7099 27.9599 39.4498 26.8638 39.4498 25.3981C39.4498 24.7332 39.5155 24.1302 39.6453 23.5888C39.7745 23.0478 39.9669 22.5884 40.2209 22.2106C40.4618 21.8454 40.7877 21.5437 41.1707 21.3312C41.5494 21.1226 41.9872 21.0184 42.4846 21.0184C42.8684 21.0184 43.1799 21.0607 43.4168 21.1453C43.6546 21.2299 43.8687 21.3342 44.0616 21.4576L43.8748 22.7093C43.6826 22.5397 43.4686 22.3964 43.2385 22.2832C42.9995 22.1625 42.7353 22.1 42.4675 22.1008C41.9928 22.1008 41.603 22.3673 41.298 22.8997C40.9925 23.4326 40.84 24.2426 40.84 25.3301C40.84 26.407 40.9677 27.2371 41.2212 27.8204C41.4757 28.4047 41.8741 28.6958 42.417 28.6958C42.7442 28.6958 43.0274 28.6404 43.2643 28.5296C43.5016 28.4198 43.6995 28.2943 43.8576 28.1548L44.1626 29.1355C43.9339 29.3287 43.6767 29.4855 43.4001 29.6004C43.1173 29.7188 42.778 29.7777 42.3831 29.7777Z" fill="black"/>
<path d="M11.6992 25.0259L9.63087 29.6599H8.12207L10.3939 24.705C9.86265 24.4345 9.43293 24.0371 9.10572 23.5127C8.7775 22.9884 8.6139 22.2756 8.6139 21.3735C8.6139 20.7424 8.70681 20.1873 8.89364 19.7078C9.07997 19.2293 9.33446 18.8313 9.65612 18.5155C9.97778 18.1997 10.354 17.9635 10.7847 17.8053C11.2188 17.6467 11.6777 17.5665 12.14 17.5686H14.0891V29.6599H12.7843V25.0259H11.6992ZM12.7843 18.6515H12.089C11.8289 18.6515 11.5744 18.6994 11.3265 18.7956C11.0786 18.8918 10.8569 19.0444 10.665 19.2539C10.4731 19.463 10.3176 19.74 10.1989 20.085C10.0798 20.4301 10.0212 20.8567 10.0212 21.366C10.0212 21.852 10.0742 22.2595 10.1818 22.5874C10.2893 22.9153 10.4363 23.1818 10.6226 23.3848C10.8094 23.5883 11.0296 23.7323 11.2841 23.8175C11.5437 23.9029 11.8156 23.9458 12.089 23.9444H12.7843V18.6515Z" fill="#FF0000"/>
</svg>
